<svg width="100" height="100" viewBox="0 0 15 13" fill="none" xmlns="http://www.w3.org/2000/svg">
<path d="M7.173 5.80097C6.54015 4.57089 4.81761 2.27767 3.21592 1.14748C1.68129 0.0647798 1.09663 0.251283 0.713148 0.425911C0.268894 0.624988 0.187866 1.30743 0.187866 1.70768C0.187866 2.10933 0.407898 4.99698 0.551093 5.47965C1.02608 7.07227 2.71229 7.61012 4.26718 7.43759C1.99003 7.77497 -0.0335624 8.6041 2.61869 11.5574C5.53708 14.5785 6.61838 10.9099 7.173 9.04976C7.72762 10.9099 8.36606 14.4465 11.6742 11.5574C14.1581 9.04976 12.3567 7.77497 10.0795 7.43759C11.6337 7.61012 13.3206 7.07227 13.7949 5.47965C13.9381 4.99768 14.1581 2.10933 14.1581 1.70838C14.1581 1.30674 14.0771 0.625686 13.6328 0.424514C13.2494 0.251283 12.6647 0.0633829 11.1301 1.14608C9.52839 2.27837 7.80515 4.57159 7.173 5.80097Z" fill="white"/>
</svg>
