<svg width="100" height="100" viewBox="0 0 13 13" fill="none" xmlns="http://www.w3.org/2000/svg">
<path d="M12.0997 7.77207C11.9245 8.67344 10.5296 9.66111 8.92761 9.85226C8.09272 9.95198 7.26998 10.044 6.39291 10.0031C4.95903 9.93728 3.82688 9.66111 3.82688 9.66111C3.82688 9.80048 3.83583 9.93344 3.85245 10.0575C4.03912 11.4734 5.25629 11.5578 6.40953 11.5981C7.573 11.6377 8.60861 11.3104 8.60861 11.3104L8.6572 12.3627C8.6572 12.3627 7.84277 12.7999 6.39291 12.8805C5.59382 12.9239 4.60104 12.86 3.4446 12.5544C0.936746 11.8902 0.505239 9.21746 0.439395 6.5044C0.419577 5.69893 0.431723 4.94011 0.431723 4.30532C0.431723 1.53089 2.24917 0.71838 2.24917 0.71838C3.16524 0.297741 4.7372 0.120663 6.37245 0.107239H6.41209C8.0467 0.120024 9.61994 0.297741 10.536 0.71838C10.536 0.71838 12.3535 1.53153 12.3535 4.30468C12.3535 4.30468 12.3765 6.35098 12.0997 7.77207ZM10.21 4.52011C10.21 3.83354 10.0355 3.28824 9.6845 2.88486C9.32204 2.48148 8.84834 2.27436 8.25957 2.27436C7.57875 2.27436 7.0635 2.53646 6.72213 3.05938L6.39099 3.61555L6.05921 3.05938C5.71848 2.53646 5.20323 2.27436 4.52241 2.27436C3.93364 2.27436 3.4593 2.48148 3.09748 2.88486C2.74652 3.28824 2.572 3.83354 2.572 4.52011V7.87819H3.90232V4.61856C3.90232 3.93135 4.19126 3.58294 4.7698 3.58294C5.40907 3.58294 5.72935 3.99655 5.72935 4.81482V6.59838H7.05263V4.81482C7.05263 3.99655 7.37227 3.58294 8.01154 3.58294C8.59007 3.58294 8.87966 3.93135 8.87966 4.61856V7.87883H10.2093V4.51947L10.21 4.52011Z" fill="white"/>
</svg>
