<svg width="100" height="100" viewBox="0 0 13 15" fill="none" xmlns="http://www.w3.org/2000/svg">
<path fill-rule="evenodd" clip-rule="evenodd" d="M6.53736 3.69841C5.31389 3.69841 4.42969 4.07195 3.75944 5.02945C3.75944 5.02945 4.55499 5.58148 4.79377 5.74106L4.82214 5.70915C5.16495 5.31197 5.45929 4.97152 6.53618 4.97152C7.74427 4.97152 8.22184 5.93847 8.22184 6.50351C7.8944 6.43732 7.26789 6.40185 6.74777 6.40185C5.35881 6.40185 3.59986 7.07328 3.59986 8.9268C3.59986 10.2247 4.83751 11.2153 6.27139 11.2153C8.7325 11.2153 9.29281 9.37481 9.50204 8.28138C9.5576 8.28138 10.6286 8.89134 10.6286 10.1668C10.6286 12.0404 8.79279 13.3194 6.33049 13.3194C3.33744 13.3194 1.3397 11.369 1.3397 7.69624C1.3397 3.6003 3.12703 1.67585 6.28912 1.67585C8.20056 1.67585 10.2869 2.15815 11.2823 5.1843L12.488 4.87223C11.2019 0.622612 7.77974 0.407471 6.32104 0.407471C3.16249 0.407471 0.0760498 2.21134 0.0760498 7.49529C0.0760498 12.8076 3.26297 14.5926 6.33049 14.5926C9.90277 14.5926 11.8769 12.5014 11.8769 10.0935C11.8769 8.96108 11.3355 7.97285 10.352 7.31206C10.1077 7.14736 9.84051 7.00433 9.55051 6.88296C9.48195 5.877 9.18288 5.08973 8.65921 4.53888C8.13436 3.98921 7.40028 3.69841 6.53736 3.69841ZM4.87534 8.92325C4.87534 8.43859 5.10821 7.66787 6.91681 7.66787C7.47121 7.66787 7.81283 7.70806 8.27148 7.8109C8.12491 9.70934 7.19578 9.95995 6.29266 9.95995C5.79855 9.95995 4.87534 9.70225 4.87534 8.92325Z" fill="white"/>
</svg>
