<svg width="100" height="100" viewBox="0 0 15 13" fill="none" xmlns="http://www.w3.org/2000/svg">
<path d="M14.6288 2.14845C14.094 2.38083 13.5281 2.53393 12.9491 2.60291C13.5576 2.24658 14.0153 1.68049 14.2362 1.01081C13.6608 1.34722 13.0324 1.58327 12.3779 1.70883C12.1023 1.41998 11.7708 1.19019 11.4036 1.03342C11.0364 0.876661 10.6412 0.796203 10.2419 0.796941C8.62549 0.796941 7.31735 2.08607 7.31735 3.6752C7.31621 3.89624 7.34154 4.11663 7.3928 4.33164C6.23368 4.2773 5.09867 3.98161 4.06037 3.46349C3.02208 2.94537 2.10336 2.21622 1.36301 1.32269C1.10328 1.76055 0.965917 2.26014 0.965284 2.76925C0.965284 3.76728 1.48598 4.64947 2.27223 5.16631C1.8064 5.15525 1.35012 5.03196 0.942115 4.8069V4.84254C0.942115 6.2386 1.95203 7.4 3.28868 7.66436C3.03733 7.73137 2.77831 7.76532 2.51818 7.76536C2.33359 7.76568 2.14943 7.74777 1.96837 7.71189C2.33996 8.85547 3.42146 9.68717 4.70256 9.71093C3.66157 10.5132 2.38351 10.9468 1.06925 10.9436C0.83596 10.9433 0.602892 10.9294 0.371216 10.902C1.70822 11.7558 3.26238 12.2074 4.8487 12.203C10.2357 12.203 13.1787 7.81585 13.1787 4.01085C13.1787 3.88609 13.1755 3.76134 13.1695 3.63955C13.7407 3.23323 14.2349 2.72829 14.6288 2.14845Z" fill="white"/>
</svg>
