<svg xmlns="http://www.w3.org/2000/svg" direction="ltr" width="470.30284755411634" height="136.9329758941991" viewBox="12.186737060546875 185.42282104492188 470.30284755411634 136.9329758941991" stroke-linecap="round" stroke-linejoin="round" style="background-color: transparent;">
    <defs/>
    <g transform="matrix(1, 0, 0, 1, 44.8106, 236.8978)" opacity="1">
        <path d="M3.1176,-0.6554 T3.3527,0.476 4.0008,4.1787 4.5959,8.2202 5.0687,11.6923 5.6263,15.4433 6.1138,19.1033 6.465,22.9799 6.8142,26.3831 7.2079,30.3714 7.3832,32.9221 A3.5498,3.5498 0 0 1 0.3168,32.2379 T0.5613,31.9735 0.5475,30.3332 0.1059,27.0245 -0.0952,23.3284 -0.2943,19.6864 -0.6585,16.1719 -1.0777,12.5511 -1.5459,9.1565 -2.2074,5.3313 -2.8773,1.7856 -3.1176,0.6554 A3.1858,3.1858 0 0 1 3.1176,-0.6554 Z" stroke-linecap="round" fill="#f2f2f2"/>
    </g>
    <g transform="matrix(1, 0, 0, 1, 44.1867, 236.2929)" opacity="1">
        <path d="M-0.9723,-3.0557 T0.4061,-3.46 3.9629,-4.5538 8.104,-5.8895 12.2879,-7.0679 16.1907,-7.9881 19.4881,-8.7288 23.7473,-9.401 26.3906,-9.7205 A3.5542,3.5542 0 0 1 26.9771,-2.6364 T24.5583,-2.5259 20.7057,-2.2242 17.5575,-1.6926 13.9371,-0.9245 9.999,0.1413 5.8282,1.4511 2.3309,2.5892 0.9723,3.0557 A3.2066,3.2066 0 0 1 -0.9723,-3.0557 ZM27.6483,-2.7577 T26.5546,-2.4368 25.4609,-2.116 A3.5783,3.5783 0 0 1 23.5191,-9.004 T24.6193,-9.3017 25.7194,-9.5993 A3.5542,3.5542 0 0 1 27.6483,-2.7577 Z" stroke-linecap="round" fill="#f2f2f2"/>
    </g>
    <g transform="matrix(1, 0, 0, 1, 52.7886, 248.9828)" opacity="1">
        <path d="M-0.6098,-3.1604 T0.5897,-3.3812 3.4932,-3.8978 6.8433,-4.3627 10.6468,-4.6998 14.1082,-4.923 15.4124,-4.9782 A3.2443,3.2443 0 0 1 15.8076,1.4982 T13.5326,1.6615 8.7943,2.0188 4.6658,2.4453 1.8051,2.9191 0.6098,3.1604 A3.2187,3.2187 0 0 1 -0.6098,-3.1604 Z" stroke-linecap="round" fill="#f2f2f2"/>
    </g>
    <g transform="matrix(1, 0, 0, 1, 48.3669, 265.7851)" opacity="1">
        <path d="M0.1654,-3.0405 T1.7561,-2.9141 4.7922,-2.7232 7.7694,-2.6086 11.0406,-2.4954 14.7956,-2.4835 18.715,-2.5804 23.0356,-2.6306 25.4522,-2.6348 A3.0248,3.0248 0 0 1 25.4478,3.4148 T23.028,3.4071 18.6955,3.3454 14.7579,3.2148 10.9673,3.1713 7.6244,3.2012 4.5358,3.1661 1.4296,3.0874 -0.1654,3.0405 A3.045,3.045 0 0 1 0.1654,-3.0405 Z" stroke-linecap="round" fill="#f2f2f2"/>
    </g>
    <g transform="matrix(1, 0, 0, 1, 82.6253, 246.4383)" opacity="1">
        <path d="M3.1784,0 T3.1616,1.3152 3.157,4.7463 3.1658,9.1701 3.227,13.6887 3.5389,17.4647 3.9742,19.8776 4.1624,20.7253 A3.2929,3.2929 0 0 1 -2.3224,21.8747 T-2.446,20.9633 -2.7885,18.1881 -3.0848,13.9011 -3.1658,9.1701 -3.157,4.7463 -3.1616,1.3152 -3.1784,0 A3.1784,3.1784 0 0 1 3.1784,0 ZM-2.225,22.2759 T-2.5616,21.2981 -3.6657,18.6362 -4.8789,15.1213 -5.4204,11.7728 -5.2722,8.4955 -4.3423,5.0736 -2.8329,2.2239 -0.7282,-0.1336 2.1532,-1.9335 5.5781,-1.7784 8.4069,0.0882 10.5911,2.8844 12.8106,6.5927 14.5685,10.0968 15.8337,13.0071 16.8987,16.2746 17.4175,18.1421 A3.6208,3.6208 0 0 1 10.402,19.937 T10.1406,18.8191 9.3505,16.1289 8.147,13.1642 6.5597,10.168 4.7942,6.9758 3.0329,6.6439 1.8432,9.4905 1.8005,12.8424 2.6838,16.1707 3.6968,19.0306 4.065,20.3241 A3.2929,3.2929 0 0 1 -2.225,22.2759 ZM14.5294,15.4722 T14.5428,15.474 14.5563,15.4758 A3.6218,3.6218 0 0 1 13.3167,22.6126 T13.3034,22.6097 13.2901,22.6069 A3.6208,3.6208 0 0 1 14.5294,15.4722 ZM10.3242,19.3063 T10.2344,18.304 10.4288,15.5857 11.1586,12.3435 12.0586,9.2969 13.0205,6.4182 14.4261,3.4059 16.2357,0.6831 18.4255,-1.2595 21.1574,-2.5715 24.0599,-2.8558 26.9711,-1.312 29.2517,1.4143 30.5633,4.0998 31.5094,7.8153 32.2457,12.1111 32.5947,15.9485 32.6602,17.8566 A3.6339,3.6339 0 0 1 25.3998,18.1834 T25.3062,16.5574 24.9598,13.2 24.2525,9.632 23.9438,6.0438 22.7013,5.1681 20.619,7.3472 19.3113,10.5841 18.0789,14.8056 17.5047,17.9378 17.5488,18.7821 A3.6218,3.6218 0 0 1 10.3242,19.3063 Z" stroke-linecap="round" fill="#f2f2f2"/>
    </g>
    <g transform="matrix(1, 0, 0, 1, 122.2195, 248.8037)" opacity="1">
        <path d="M2.679,-0.2301 T2.7512,2.0822 2.9517,6.5577 3.1564,10.8623 3.3684,15.0314 3.7628,19.8758 4.1389,24.5209 4.3368,28.1573 4.6537,32.5888 5.0836,36.8945 5.4001,40.0739 5.5229,41.5713 A2.9628,2.9628 0 0 1 -0.4022,41.4976 T-0.2927,40.1758 -0.1755,37.2364 -0.2294,32.8912 -0.3598,28.4246 -0.5801,24.7704 -0.7527,20.1258 -0.9618,15.3209 -1.3043,11.2004 -1.7456,6.9836 -2.3558,2.5209 -2.679,0.2301 A2.6889,2.6889 0 0 1 2.679,-0.2301 ZM2.8584,44.4822 T2.772,44.499 2.6855,44.5158 A2.9788,2.9788 0 0 1 2.0861,38.5884 T2.1742,38.5875 2.2623,38.5867 A2.9628,2.9628 0 0 1 2.8584,44.4822 ZM-0.2801,42.8811 T-0.8861,41.8136 -2.1155,38.8361 -3.1266,34.5071 -3.6089,29.615 -3.6239,24.4369 -3.5055,19.8071 -3.267,15.764 -2.8086,11.9469 -2.2746,8.798 -1.5149,5.4542 -0.5691,1.7299 0.4916,-1.5902 1.9959,-4.3888 4.5675,-6.3523 7.676,-6.727 11.0066,-5.274 14.588,-2.7692 17.5712,-0.3888 20.3585,1.9033 22.8973,4.5302 24.1634,7.9333 23.6758,11.7157 21.7342,14.442 19.1457,15.9679 15.8868,17.0365 11.973,17.9968 8.2628,18.8684 4.4833,19.6696 2.4003,20.0536 A3.5023,3.5023 0 0 1 1.0197,13.1864 T2.1383,12.9351 4.7078,12.3679 8.1953,11.4965 12.0336,10.4535 15.6928,9.5205 16.5132,8.0865 14.236,6.0726 11.6433,4.0036 8.5531,1.9945 6.3583,2.5003 5.3095,6.031 4.2939,9.7461 3.5775,12.92 3.0693,16.2268 2.7647,20.0497 2.6479,24.5225 2.7219,29.2286 3.0745,33.2707 3.7759,36.6589 4.6394,39.2479 5.0518,40.2231 A2.9788,2.9788 0 0 1 -0.2801,42.8811 Z" stroke-linecap="round" fill="#f2f2f2"/>
    </g>
    <g transform="matrix(1, 0, 0, 1, 150.453, 235.026)" opacity="1">
        <path d="M3.2996,0 T3.2912,1.1308 3.3597,4.1291 3.575,7.909 3.8163,11.614 4.0734,14.8892 4.2907,17.909 4.5116,21.8024 4.6692,24.1583 A3.4806,3.4806 0 0 1 -2.2692,24.7217 T-2.3689,22.1581 -2.489,18.1945 -2.6261,15.2348 -2.8004,12.0788 -2.9918,8.4916 -3.2042,4.3811 -3.2912,1.1308 -3.2996,0 A3.2996,3.2996 0 0 1 3.2996,0 Z" stroke-linecap="round" fill="#f2f2f2"/>
    </g>
    <g transform="matrix(1, 0, 0, 1, 140.3537, 243.7961)" opacity="1">
        <path d="M-1.1631,-3.1807 T-0.0573,-3.5663 2.7356,-4.4655 5.7946,-5.2718 8.7326,-5.7763 11.9197,-6.2025 14.9729,-6.6347 18.5862,-7.1081 20.7673,-7.3634 A3.5598,3.5598 0 0 1 21.6327,-0.2966 T19.5215,-0.0519 15.677,0.3987 12.4579,0.7468 9.1242,1.0993 5.3132,1.8265 2.2566,2.7621 1.1631,3.1807 A3.3867,3.3867 0 0 1 -1.1631,-3.1807 Z" stroke-linecap="round" fill="#f2f2f2"/>
    </g>
    <g transform="matrix(1, 0, 0, 1, 162.2748, 248.0387)" opacity="1">
        <path d="M3.4398,0.5061 T3.2559,1.6206 2.9529,4.1807 3.2747,7.2173 5.3122,8.2466 8.3809,6.7902 10.829,4.8395 12.4851,2.245 13.5633,-0.727 13.9124,-3.5819 13.8633,-5.0035 A3.8925,3.8925 0 0 1 21.5308,-6.3514 T21.5409,-3.672 21.0855,0.6076 19.92,3.9592 18.3938,7.2266 16.4131,9.8997 14.1019,11.9665 11.3814,13.7264 8.2468,15.1468 5.2427,15.7304 2.2277,15.2583 -0.6069,13.9099 -2.7615,11.2931 -3.8616,7.362 -3.8948,3.4598 -3.5847,0.6143 -3.4398,-0.5061 A3.4768,3.4768 0 0 1 3.4398,0.5061 ZM21.4474,-4.6353 T21.2588,-4.0808 20.9305,-2.0412 20.7366,0.9714 20.6184,4.5196 20.5836,8.5694 20.736,12.2525 21.0104,15.7273 21.4157,19.302 21.9897,22.6447 22.5804,25.8637 22.9484,28.9326 22.7066,31.9032 21.4851,34.6385 19.3238,36.8615 16.6931,38.5624 13.5631,39.8308 10.2844,40.7078 7.3783,41.0741 4.1089,40.9798 0.7016,40.2952 -2.61,39.2388 -6.0169,38.1105 -8.9081,36.7775 -11.2414,34.659 -12.3219,33.288 A3.7845,3.7845 0 0 1 -6.2181,28.812 T-5.3437,29.7738 -2.8407,31.2548 0.3822,32.2504 3.3295,33.1139 6.434,33.4567 9.6428,33.1107 12.7236,32.1184 15.0759,30.2134 15.61,27.3678 15.0993,23.9078 14.4829,20.1864 13.9945,16.5103 13.645,12.9276 13.3297,8.8282 13.1233,4.489 13.0537,0.7919 13.1561,-2.4616 13.6112,-5.3882 13.9467,-6.7197 A3.8925,3.8925 0 0 1 21.4474,-4.6353 Z" stroke-linecap="round" fill="#f2f2f2"/>
    </g>
    <g transform="matrix(1, 0, 0, 1, 228.2118, 220.5946)" opacity="1">
        <path d="M3.1218,-0.44 T3.2954,1.0626 3.7884,4.7842 4.4141,8.8731 5.059,13.1821 5.6879,17.977 6.1058,21.9953 6.2949,25.0632 6.3916,27.9654 6.4826,30.8882 6.2914,33.956 5.9725,36.6047 5.9007,37.6114 A3.5978,3.5978 0 0 1 -1.2407,36.7286 T-0.9942,35.396 -0.5205,32.5392 -0.2558,29.5636 -0.2021,25.9984 -0.2287,22.386 -0.5337,18.6996 -1.1587,14.0858 -1.7858,9.7055 -2.3374,5.5876 -2.8733,1.9321 -3.1218,0.44 A3.1527,3.1527 0 0 1 3.1218,-0.44 Z" stroke-linecap="round" fill="#f2f2f2"/>
    </g>
    <g transform="matrix(1, 0, 0, 1, 229.5111, 224.8888)" opacity="1">
        <path d="M-1.8182,-2.901 T-1.0191,-3.3988 1.069,-4.5856 3.6954,-5.7225 7.0944,-6.5519 11.1868,-7.0484 15.2251,-6.8952 18.6922,-5.9642 21.6897,-4.0788 24.7575,-1.3092 27.2836,1.5762 29.1061,4.1692 30.765,6.823 32.3627,9.6241 33.9621,12.9148 35.3019,16.3988 35.87,19.8241 35.3345,23.4924 33.8475,26.7804 31.9764,29.3439 29.3345,31.9457 25.9801,34.5772 22.5375,36.5455 18.98,37.9691 15.7055,38.8644 11.84,39.2359 7.7553,39.2224 3.109,38.5056 0.1471,37.8771 A3.556,3.556 0 0 1 2.3129,31.1029 T4.3527,31.6011 7.879,32.1827 11.3471,32.1882 14.8405,31.76 18.4007,30.5614 21.7509,28.7879 24.3173,26.6325 26.7356,23.9316 28.2614,20.9604 28.195,18.0509 26.9238,14.9182 25.3675,11.8945 23.4352,8.7974 21.149,5.6255 18.8455,3.0954 16.3486,1.0328 13.4955,0.0526 10.4295,0.0865 7.5166,0.4355 4.7489,1.2876 2.6142,2.3991 1.8182,2.901 A3.4237,3.4237 0 0 1 -1.8182,-2.901 Z" stroke-linecap="round" fill="#f2f2f2"/>
    </g>
    <g transform="matrix(1, 0, 0, 1, 270.3966, 240.8339)" opacity="1">
        <path d="M3.3746,0.5105 T3.1868,1.6386 2.8608,4.5954 2.7678,8.4239 2.9954,11.8359 3.6348,14.6727 4.0919,16.0974 A3.5491,3.5491 0 0 1 -2.5686,18.5518 T-2.9089,17.5037 -3.5085,14.6236 -3.9522,10.8734 -4.0674,7.5142 -3.8408,3.9148 -3.529,0.6229 -3.3746,-0.5105 A3.413,3.413 0 0 1 3.3746,0.5105 ZM-2.6762,18.2064 T-2.959,17.2031 -3.6993,14.3608 -4.5323,10.6975 -5.1974,7.018 -5.7431,3.3422 -6.0515,-0.1199 -5.6067,-3.6495 -3.8349,-6.5741 -0.498,-8.2281 3.5567,-9.2809 6.9942,-9.8922 9.9134,-9.9001 13.653,-8.1263 15.9186,-6.5206 A3.7617,3.7617 0 0 1 10.6814,-1.1194 T9.212,-1.8448 5.9689,-2.2433 2.5747,-1.6816 1.0422,0.2283 1.5086,4.031 2.1471,7.5517 2.8015,10.5366 3.5348,13.5515 4.0368,15.7088 4.1995,16.4428 A3.5491,3.5491 0 0 1 -2.6762,18.2064 Z" stroke-linecap="round" fill="#f2f2f2"/>
    </g>
    <g transform="matrix(1, 0, 0, 1, 306.0465, 238.4955)" opacity="1">
        <path d="M-1.3354,3.1779 T-2.1681,2.826 -4.4961,2.259 -7.4615,2.016 -10.496,2.231 -13.3187,3.1935 -14.8176,5.3981 -14.5951,8.2223 -13.1644,10.6957 -10.6469,10.9569 -7.905,9.1311 -6.462,6.751 -6.6679,4.164 -7.1248,3.0043 A3.801,3.801 0 0 1 -0.3455,-0.4352 T0.4378,1.7807 1.232,5.6329 0.9077,8.8499 -0.13,11.8559 -2.2575,14.6522 -5.5045,16.7536 -9.0948,17.8946 -12.2579,18.4977 -15.0109,18.3413 -17.5697,16.9401 -19.8037,14.429 -21.4979,11.1399 -22.2994,7.4623 -22.1301,3.9762 -21.0363,0.8223 -18.8015,-1.932 -16.0628,-3.7312 -13.0203,-4.6452 -9.4513,-5.0288 -5.7428,-4.8965 -2.0943,-4.3063 0.4975,-3.528 1.3354,-3.1779 A3.4471,3.4471 0 0 1 -1.3354,3.1779 ZM0.0139,1.9107 T-0.1315,2.7724 -0.318,5.0734 -0.2686,7.9461 0.3335,10.7499 2.2293,13.0553 4.623,12.856 6.3894,10.5732 7.1463,9.4244 A3.7704,3.7704 0 0 1 13.4937,13.4956 T12.6457,14.8492 10.8565,17.4896 8.4986,19.9283 5.3154,21.2895 2.1295,21.1739 -0.9667,19.8516 -3.874,17.6533 -5.7625,15.1609 -6.959,12.2223 -7.7003,8.5106 -7.9023,4.8094 -7.6927,1.9156 -7.4842,0.6583 A3.801,3.801 0 0 1 0.0139,1.9107 Z" stroke-linecap="round" fill="#f2f2f2"/>
    </g>
    <g transform="matrix(1, 0, 0, 1, 322.2873, 234.7005)" opacity="1">
        <path d="M3.3729,0.4238 T3.2698,1.2728 3.0894,4.2086 3.0049,7.8382 3.3274,11.3199 5.3167,13.0434 7.9743,11.0663 9.2593,7.6872 9.522,5.254 9.4978,4.4382 A3.6451,3.6451 0 0 1 16.7874,4.5302 T16.6574,6.3462 16.0602,10.1501 14.6262,14.015 11.9113,17.8944 8.3545,20.9576 4.4867,22.1341 1.1775,21.5558 -1.0054,19.654 -2.5115,16.7079 -3.436,13.1036 -3.8488,9.4866 -3.8708,6.1262 -3.7122,2.8946 -3.4831,0.4244 -3.3729,-0.4238 A3.3994,3.3994 0 0 1 3.3729,0.4238 ZM16.7755,4.7831 T16.685,6.0735 16.9787,9.4414 18.0599,13.4156 19.6062,16.5896 21.5471,16.3598 23.2877,12.6432 24.2227,8.1013 24.6068,3.5392 24.3972,0.2368 24.0896,-0.8359 A3.3657,3.3657 0 0 1 30.5281,-2.8 T30.8419,-1.4919 31.1479,1.5975 31.1186,4.7897 30.8749,8.9855 30.0078,14.6351 28.1549,19.7633 25.8892,23.3074 23.5397,25.3305 20.41,25.8298 17.2841,24.481 14.7345,21.7892 12.4406,18.186 10.5149,13.7356 9.4204,9.3145 9.3647,5.7561 9.5097,4.1852 A3.6451,3.6451 0 0 1 16.7755,4.7831 ZM26.3383,1.4047 T26.2618,1.3863 26.1853,1.3678 A3.3744,3.3744 0 0 1 28.1313,-5.0944 T28.2053,-5.0675 28.2794,-5.0407 A3.3657,3.3657 0 0 1 26.3383,1.4047 ZM30.532,-1.9345 T30.4563,-1.6131 31.7438,-0.6262 34.5353,0.5921 38.1002,1.4528 41.8064,1.3991 44.1752,0.193 44.9746,-0.6514 A3.6976,3.6976 0 0 1 50.6654,4.0714 T48.6503,5.7653 45.2551,8.0393 41.7878,8.6827 37.5993,8.5189 33.8093,7.7626 30.1706,6.397 27.0514,4.6819 24.9504,2.6404 23.9016,-0.1571 23.7846,-1.792 A3.3744,3.3744 0 0 1 30.532,-1.9345 ZM51.4813,2.2267 T51.3417,3.2755 51.1602,6.3721 51.0951,10.1426 51.173,13.6724 51.4833,17.126 51.9984,19.9858 52.3043,21.1992 A3.6502,3.6502 0 0 1 45.1857,22.8181 T44.7954,20.7393 44.2685,17.2549 43.9711,13.8562 43.7895,10.1371 43.7437,6.3013 43.9387,2.6925 44.1587,1.1933 A3.6976,3.6976 0 0 1 51.4813,2.2267 ZM46.3603,19.2451 T47.1054,18.5872 47.8504,17.9292 A3.673,3.673 0 0 1 52.6496,23.4908 T51.8896,24.1315 51.1297,24.7722 A3.6502,3.6502 0 0 1 46.3603,19.2451 Z" stroke-linecap="round" fill="#f2f2f2"/>
    </g>
    <g transform="matrix(1, 0, 0, 1, 387.2368, 258.2384)" opacity="1">
        <path d="M-3.118,1.037 T-3.4495,0.0346 -4.4465,-3.184 -5.6176,-7.776 -6.3238,-11.9568 -6.4628,-15.6991 -5.8851,-19.2095 -4.3945,-22.0854 -1.8371,-24.5043 1.0059,-26.3591 4.0754,-27.4854 7.6093,-27.172 10.9656,-25.5294 14.1251,-23.4569 16.8106,-21.2108 19.0556,-18.7136 20.6815,-15.5717 21.3139,-12.4003 21.3254,-9.2899 21.1748,-5.7499 21.1066,-3.9091 A3.6778,3.6778 0 0 1 13.7534,-4.0909 T13.8044,-6.1468 13.9307,-9.8795 13.7184,-12.9519 12.221,-15.5605 9.3462,-17.8805 6.435,-19.7028 3.9054,-19.7397 1.5266,-18.0733 0.2232,-15.6601 0.1179,-12.7698 0.6969,-9.1934 1.8107,-5.061 2.7831,-2.0384 3.118,-1.037 A3.286,3.286 0 0 1 -3.118,1.037 Z" stroke-linecap="round" fill="#f2f2f2"/>
    </g>
    <g transform="matrix(1, 0, 0, 1, 434.4048, 235.7449)" opacity="1">
        <path d="M0.3759,3.3026 T-0.8156,3.4221 -3.7678,4.1391 -6.788,5.9882 -8.9945,8.6149 -8.8304,10.9041 -6.1377,12.1169 -3.088,12.5206 -0.0336,12.3536 2.2073,10.6582 2.9779,8.0611 3.0942,6.8871 A3.7371,3.7371 0 0 1 10.5379,7.5621 T10.3365,9.1123 9.5389,12.0251 8.1328,14.7383 6.0685,17.2005 3.0915,18.8337 -0.277,19.4693 -3.7035,19.4526 -7.9174,18.8563 -11.9984,17.6672 -14.9677,16.044 -16.8888,13.5357 -17.0386,10.0602 -15.8398,6.7357 -13.9943,3.8839 -11.4189,1.1184 -8.2227,-1.1579 -4.6306,-2.5312 -1.5659,-3.1511 -0.3759,-3.3026 A3.3239,3.3239 0 0 1 0.3759,3.3026 ZM10.0979,9.0121 T9.7669,9.5795 9.3933,11.7395 9.6958,15.2726 10.8963,19.7761 12.6202,24.2959 14.2316,27.7208 15.836,31.3312 17.3325,35.2194 18.3632,38.3692 19.0233,41.3776 19.4203,44.4277 18.8771,47.724 16.7841,50.4086 13.7271,51.4494 10.1644,51.4544 6.0085,51.0972 1.7742,50.889 -2.5676,50.7902 -6.3188,50.7036 -9.8527,50.6613 -14.1838,50.5475 -18.3287,49.7063 -21.55,48.3755 -24.2479,46.9692 -25.6617,46.1648 A3.4681,3.4681 0 0 1 -22.1983,40.1552 T-20.451,41.1584 -16.766,43.0469 -13.4001,44.0477 -9.8462,44.1652 -6.3046,44.1301 -2.5255,44.0673 1.903,44.0524 6.502,44.1161 10.8226,44.9218 12.513,44.2376 12.0419,40.9255 11.1097,37.4363 9.7523,33.996 8.2336,30.6759 6.5056,27.0315 4.3367,22.1813 2.5691,17.7415 1.8996,13.9884 2.0275,9.9558 2.8756,6.6866 3.5341,5.4371 A3.7371,3.7371 0 0 1 10.0979,9.0121 Z" stroke-linecap="round" fill="#f2f2f2"/>
    </g>
    <g transform="matrix(1, 0, 0, 1, 367.4099, 220.9228)" opacity="1">
        <path d="M 0 0 m -3.181980515339464, 0 a 3.181980515339464,3.181980515339464 0 1,1 6.363961030678928,0 a 3.181980515339464,3.181980515339464 0 1,1 -6.363961030678928,0" stroke-linecap="round" fill="#f2f2f2"/>
    </g>
</svg>