<svg width="28" height="27" viewBox="0 0 28 27" fill="none" xmlns="http://www.w3.org/2000/svg">
<rect x="0.923035" y="0.25" width="26.5" height="26.5" rx="4.75" fill="black"/>
<rect x="0.923035" y="0.25" width="26.5" height="26.5" rx="4.75" stroke="black" stroke-width="0.5"/>
<path d="M14.173 12.801C13.5401 11.5709 11.8176 9.27767 10.2159 8.14748C8.68129 7.06478 8.09663 7.25128 7.71315 7.42591C7.26889 7.62499 7.18787 8.30743 7.18787 8.70768C7.18787 9.10933 7.4079 11.997 7.55109 12.4797C8.02608 14.0723 9.71229 14.6101 11.2672 14.4376C8.99003 14.775 6.96644 15.6041 9.61869 18.5574C12.5371 21.5785 13.6184 17.9099 14.173 16.0498C14.7276 17.9099 15.3661 21.4465 18.6742 18.5574C21.1581 16.0498 19.3567 14.775 17.0795 14.4376C18.6337 14.6101 20.3206 14.0723 20.7949 12.4797C20.9381 11.9977 21.1581 9.10933 21.1581 8.70838C21.1581 8.30674 21.0771 7.62569 20.6328 7.42451C20.2494 7.25128 19.6647 7.06338 18.1301 8.14608C16.5284 9.27837 14.8052 11.5716 14.173 12.801Z" fill="white"/>
</svg>
