<svg width="125" height="27" viewBox="0 0 125 27" fill="none" xmlns="http://www.w3.org/2000/svg">
<rect x="0.217957" width="124" height="27" rx="5" fill="#171717"/>
<path d="M12.853 8.78C13.918 8.75 15.148 8.735 16.363 8.735C17.758 8.735 18.808 9.02 19.438 9.5C20.458 10.265 20.923 11.48 20.923 12.86C20.923 15.08 19.588 16.865 18.178 17.75C17.218 18.335 15.973 18.515 14.983 18.515C14.428 18.515 13.618 18.5 13.153 18.5C12.493 18.5 11.743 18.5 11.158 18.5C11.233 18.095 11.308 17.645 11.383 17.255L12.103 17.21C12.163 17.195 12.193 17.165 12.193 17.105L13.438 10.085L12.598 10.055C12.688 9.62 12.763 9.2 12.853 8.78ZM15.883 10.025L14.653 16.85C14.593 17.165 14.773 17.3 15.103 17.3C15.673 17.3 16.273 17.18 16.903 16.67C17.713 16.01 18.283 14.675 18.283 12.935C18.283 12.11 18.208 11.285 17.668 10.625C17.248 10.115 16.858 9.965 16.378 9.965C16.183 9.965 16.048 9.98 15.883 10.025ZM21.5647 16.445C21.5647 15.305 22.1047 13.85 23.2147 12.86C24.2047 11.975 25.1647 11.75 25.9897 11.75C27.4447 11.75 28.1197 12.77 28.1497 13.61C28.0597 14.285 27.6847 14.96 27.2647 15.245C26.5297 15.62 25.4497 15.845 23.9947 15.83C23.9647 15.98 23.9497 16.19 23.9497 16.295C23.9497 16.82 24.3097 17.195 24.8797 17.195C25.3897 17.195 26.3347 17.045 27.2797 16.64C27.3997 17 27.4897 17.36 27.5797 17.75C26.5747 18.245 25.3297 18.65 23.8147 18.65C22.7047 18.65 21.5647 17.84 21.5647 16.445ZM25.3597 12.89C25.1347 12.89 24.9547 12.965 24.7297 13.22C24.4897 13.505 24.2797 13.925 24.1297 14.705C24.6547 14.72 25.1647 14.675 25.5697 14.45C25.7947 14.33 25.9447 14.165 25.9447 13.82C25.9447 13.4 25.7197 12.89 25.3597 12.89ZM33.1364 14.135L33.0164 13.34C33.0014 13.265 32.9864 13.205 32.9264 13.16C32.7914 13.07 32.5214 12.995 32.2964 12.995C32.0714 12.995 31.7864 13.025 31.6064 13.13C31.4114 13.25 31.3064 13.415 31.3064 13.64C31.3064 14.015 31.8614 14.165 32.4614 14.39C33.4514 14.765 34.0964 15.245 34.0964 16.16C34.0964 17.105 33.6164 17.75 32.9114 18.17C32.5064 18.41 31.7714 18.65 30.6764 18.65C29.8964 18.65 29.1164 18.545 28.6814 18.365C28.7264 17.615 28.7864 16.865 28.8164 16.19C29.1914 16.145 29.5814 16.13 29.9564 16.115L30.1064 17.03C30.1214 17.09 30.1364 17.165 30.1814 17.195C30.3914 17.315 30.7064 17.405 31.0064 17.405C31.2914 17.405 31.5314 17.375 31.6964 17.285C31.8164 17.21 31.9364 17.06 31.9364 16.805C31.9364 16.43 31.6214 16.25 30.9614 16.01C29.9864 15.635 29.1164 15.185 29.1164 14.105C29.1164 13.07 29.9864 12.38 30.5564 12.125C31.1714 11.855 31.8614 11.75 32.6564 11.75C33.3614 11.75 34.0964 11.885 34.4264 12.05C34.3814 12.71 34.3364 13.445 34.2914 14.06C33.9764 14.105 33.5264 14.12 33.1364 14.135ZM38.1888 8.405C39.1038 8.405 39.4188 9.005 39.4188 9.515C39.4188 10.37 38.7888 10.865 38.0988 10.865C37.3038 10.865 36.8388 10.25 36.8388 9.65C36.8388 8.975 37.4088 8.405 38.1888 8.405ZM36.3138 13.4L35.1588 13.385C35.1588 12.965 35.1588 12.56 35.1738 12.155C36.3138 12.02 37.8288 11.75 38.0988 11.75C38.2188 11.75 38.6688 12.125 38.8038 12.35C38.5338 13.625 37.8738 16.625 37.7538 17.18C37.7238 17.24 37.7388 17.285 37.7988 17.285C37.9488 17.285 38.3388 17.24 38.7588 17.135C38.7888 17.525 38.8338 17.93 38.8638 18.32C38.1888 18.5 37.3638 18.635 36.0738 18.635C35.9538 18.635 35.4738 18.215 35.3688 17.96C35.6838 16.49 36.0888 14.54 36.3138 13.4ZM40.0702 15.02C40.0702 13.55 41.2252 11.75 43.7302 11.75C44.2552 11.75 44.6902 11.795 44.9602 11.87C45.0202 11.9 45.1402 11.9 45.2302 11.9C45.4852 11.9 47.0602 11.885 47.5102 11.87C47.5102 12.29 47.5102 12.695 47.4952 13.16C47.0452 13.19 46.5502 13.235 46.2202 13.25V13.34C46.2952 13.49 46.3702 13.835 46.3702 14.21C46.3702 14.96 46.0852 15.53 45.7252 16.025C45.3202 16.55 44.2252 17.39 42.3352 17.225C42.1102 17.375 41.9302 17.54 41.9302 17.72C41.9302 18.035 42.7402 18.035 44.0602 18.125C44.9752 18.2 45.3652 18.275 45.7552 18.515C46.1002 18.71 46.4902 19.19 46.4902 19.865C46.4902 20.99 45.0052 22.385 41.9002 22.385C39.8002 22.385 38.6902 21.905 38.6902 20.855C38.6902 20.555 38.7652 20.255 39.0052 20.12C39.5602 19.835 39.8302 19.715 40.5052 19.325V19.235C39.9352 18.935 39.7702 18.59 39.7702 18.02C39.7702 17.765 39.9052 17.705 41.1502 16.94V16.835C40.6252 16.49 40.0702 15.935 40.0702 15.02ZM42.3802 15.515C42.3802 15.935 42.6052 16.235 42.9802 16.235C43.6102 16.235 44.0752 14.9 44.0752 13.625C44.0752 13.4 44.0452 13.205 44.0002 13.07C43.9252 12.86 43.7602 12.755 43.5052 12.755C42.9052 12.755 42.3802 13.955 42.3802 15.515ZM44.2102 20.375C44.2102 19.955 43.8052 19.895 43.2652 19.835C42.9652 19.79 41.9002 19.685 41.6752 19.655C41.2552 19.955 41.0002 20.285 41.0002 20.63C41.0002 21.095 41.5852 21.29 42.2902 21.29C43.2952 21.29 44.2102 20.99 44.2102 20.375ZM49.0729 13.4L48.0079 13.445C47.9929 13.025 47.9929 12.62 48.0079 12.215C49.1479 12.05 50.4529 11.75 50.6329 11.75C50.7529 11.75 51.2029 12.065 51.3379 12.32C51.2929 12.62 51.2029 13.07 51.1129 13.535L51.2929 13.58C52.3879 12.23 53.4979 11.765 54.0979 11.75C54.5179 11.795 55.0279 12.125 55.3279 12.635C55.4179 12.8 55.4479 13.04 55.4479 13.205C55.4479 13.79 55.1329 15.23 54.5029 17.18C54.4879 17.24 54.4879 17.3 54.5479 17.3C54.6979 17.3 55.0879 17.24 55.4179 17.165C55.4629 17.54 55.4929 17.945 55.5079 18.335C54.8629 18.515 54.0529 18.635 52.7329 18.635C52.6129 18.635 52.2229 18.32 52.0729 18.035C52.2979 17.225 52.6579 15.875 52.7629 15.47C52.8529 15.155 53.0929 14.3 53.0929 13.985C53.0929 13.835 52.9879 13.685 52.8229 13.685C52.1479 13.685 51.0079 15.185 50.7679 16.16C50.6179 16.745 50.3329 17.915 50.2129 18.5C49.4629 18.515 48.7429 18.515 47.9929 18.515C48.2929 17.165 48.8629 14.54 49.0729 13.4ZM57.8676 8.78C58.9326 8.75 60.1626 8.735 61.3776 8.735C62.7726 8.735 63.8226 9.02 64.4526 9.5C65.4726 10.265 65.9376 11.48 65.9376 12.86C65.9376 15.08 64.6026 16.865 63.1926 17.75C62.2326 18.335 60.9876 18.515 59.9976 18.515C59.4426 18.515 58.6326 18.5 58.1676 18.5C57.5076 18.5 56.7576 18.5 56.1726 18.5C56.2476 18.095 56.3226 17.645 56.3976 17.255L57.1176 17.21C57.1776 17.195 57.2076 17.165 57.2076 17.105L58.4526 10.085L57.6126 10.055C57.7026 9.62 57.7776 9.2 57.8676 8.78ZM60.8976 10.025L59.6676 16.85C59.6076 17.165 59.7876 17.3 60.1176 17.3C60.6876 17.3 61.2876 17.18 61.9176 16.67C62.7276 16.01 63.2976 14.675 63.2976 12.935C63.2976 12.11 63.2226 11.285 62.6826 10.625C62.2626 10.115 61.8726 9.965 61.3926 9.965C61.1976 9.965 61.0626 9.98 60.8976 10.025ZM66.5793 16.445C66.5793 15.305 67.1193 13.85 68.2293 12.86C69.2193 11.975 70.1793 11.75 71.0043 11.75C72.4593 11.75 73.1343 12.77 73.1643 13.61C73.0743 14.285 72.6993 14.96 72.2793 15.245C71.5443 15.62 70.4643 15.845 69.0093 15.83C68.9793 15.98 68.9643 16.19 68.9643 16.295C68.9643 16.82 69.3243 17.195 69.8943 17.195C70.4043 17.195 71.3493 17.045 72.2943 16.64C72.4143 17 72.5043 17.36 72.5943 17.75C71.5893 18.245 70.3443 18.65 68.8293 18.65C67.7193 18.65 66.5793 17.84 66.5793 16.445ZM70.3743 12.89C70.1493 12.89 69.9693 12.965 69.7443 13.22C69.5043 13.505 69.2943 13.925 69.1443 14.705C69.6693 14.72 70.1793 14.675 70.5843 14.45C70.8093 14.33 70.9593 14.165 70.9593 13.82C70.9593 13.4 70.7343 12.89 70.3743 12.89ZM76.8017 13.43L76.8917 13.475C78.0467 12.26 78.8117 11.735 79.6667 11.72C80.0867 11.795 80.6267 12.2 80.9867 12.815C81.0917 12.995 81.1667 13.265 81.1667 13.505C81.1667 13.955 80.9867 15.035 80.6867 15.815C80.2817 16.895 79.3217 18.65 77.5217 18.65C76.7867 18.65 76.2017 18.41 75.6617 18.005L75.0467 18.785C74.5667 18.65 74.0417 18.5 73.5617 18.35C73.9967 16.52 75.0917 11.585 75.5267 9.56L74.2967 9.59C74.2667 9.185 74.2517 8.795 74.2367 8.405C75.8417 8.255 77.1317 8 77.3567 8C77.4767 8 77.8967 8.36 78.0317 8.57C77.8667 9.245 77.0867 12.335 76.8017 13.43ZM77.0717 17.315C77.5067 17.315 77.8967 16.925 78.1667 16.385C78.4817 15.785 78.8267 14.63 78.8267 14.075C78.8267 13.79 78.7217 13.58 78.4817 13.58C77.8967 13.58 76.6817 15.035 76.4267 15.635C76.3517 15.86 76.2167 16.445 76.1267 16.805C76.3817 17.09 76.7267 17.315 77.0717 17.315ZM84.7816 16.625C84.7816 16.895 84.9766 17.06 85.3216 17.06C85.9366 17.06 86.4466 16.985 87.0016 16.895C87.0166 17.3 87.0016 17.75 86.9866 18.125C85.9066 18.455 84.8116 18.635 83.8516 18.635C83.4766 18.635 82.7716 18.2 82.5166 17.615C82.4566 17.48 82.4266 17.315 82.4266 17.21C82.4266 16.865 82.6816 15.575 82.7416 15.245C82.8316 14.855 83.1016 13.505 83.1616 13.25C82.8916 13.25 82.3966 13.25 81.9316 13.25C82.0216 12.845 82.0966 12.395 82.1866 11.99C82.5616 11.96 83.0116 11.93 83.3566 11.9C83.4166 11.9 83.4766 11.87 83.4916 11.78C83.6116 11.33 83.7166 10.85 83.8216 10.49C84.6616 10.145 85.6666 9.995 86.0266 9.995C86.0566 9.995 86.0866 10.01 86.0716 10.055C86.0116 10.385 85.7866 11.48 85.6816 11.9C86.3866 11.9 87.1366 11.9 87.7966 11.885C87.7216 12.32 87.6166 12.845 87.4966 13.265C86.9116 13.265 86.0416 13.265 85.3966 13.25C85.3516 13.55 85.2316 14.045 85.1416 14.525C85.0216 15.14 84.7816 16.28 84.7816 16.625ZM89.1789 17.24C89.7339 17.24 89.8389 17.705 89.8389 17.93C89.8389 18.305 89.5389 18.635 89.1489 18.635C88.6989 18.635 88.4889 18.35 88.4889 17.96C88.4889 17.645 88.6989 17.24 89.1789 17.24ZM91.631 16.79C91.631 15.935 91.976 14.405 92.921 13.31C93.626 12.5 94.286 12.14 95.321 12.14C95.711 12.14 96.101 12.275 96.281 12.395C96.236 12.635 95.906 13.025 95.756 13.13C95.651 13.085 95.156 12.83 94.736 12.83C94.151 12.83 93.701 13.22 93.461 13.535C92.891 14.3 92.411 15.605 92.411 16.655C92.411 17.675 92.906 18.02 93.596 18.02C94.076 18.02 94.871 17.735 95.471 17.45C95.531 17.585 95.591 17.75 95.636 17.9C94.976 18.245 94.061 18.65 93.356 18.65C92.576 18.65 91.631 18.065 91.631 16.79ZM99.0111 8.81L97.5711 8.885C97.5411 8.72 97.5261 8.555 97.5261 8.405C98.7111 8.255 99.4611 8 99.5511 8C99.6561 8 99.7761 8.12 99.8811 8.24C99.0861 11.495 97.9161 16.295 97.5411 17.96C97.5261 18.02 97.5411 18.065 97.6011 18.065C97.8111 18.065 98.3361 17.975 98.9211 17.81C98.9661 17.99 98.9811 18.14 98.9961 18.305C98.2911 18.545 97.5111 18.635 97.1661 18.635C97.1061 18.635 96.8661 18.44 96.7611 18.245C97.1361 16.715 98.5311 10.775 99.0111 8.81ZM101.716 12.875L100.531 12.995C100.501 12.83 100.486 12.68 100.471 12.53C101.581 12.335 102.196 12.14 102.256 12.14C102.361 12.14 102.511 12.32 102.541 12.455C102.226 13.385 101.701 15.32 101.521 16.175C101.416 16.655 101.356 17.105 101.356 17.39C101.356 17.825 101.596 18.005 101.866 18.005C102.661 18.005 104.491 16.325 104.701 15.59C104.821 15.14 105.256 13.145 105.436 12.305C105.691 12.29 105.931 12.29 106.156 12.29C106.006 13.01 105.166 16.61 104.896 17.975C104.896 18.02 104.926 18.065 104.956 18.065C105.091 18.065 105.526 17.975 106.096 17.78C106.156 17.945 106.186 18.095 106.216 18.245C105.571 18.515 104.941 18.62 104.596 18.62C104.521 18.62 104.311 18.425 104.206 18.23C104.251 18.005 104.386 17.435 104.551 16.745L104.476 16.715C103.381 17.9 102.316 18.665 101.671 18.68C101.401 18.635 100.996 18.41 100.786 18.11C100.666 17.96 100.621 17.765 100.621 17.495C100.621 16.715 101.221 14.435 101.716 12.875ZM108.808 14.33L108.898 14.36C109.948 12.905 110.938 12.125 111.958 12.125C112.303 12.185 112.678 12.47 112.873 12.86C112.948 13.01 112.978 13.265 112.978 13.475C112.978 14.36 112.708 15.83 112.003 17.03C111.508 17.87 110.653 18.65 109.498 18.65C109.018 18.65 108.463 18.365 108.013 17.87L107.698 18.68C107.518 18.62 107.323 18.575 107.128 18.53C107.518 17.075 109.078 10.61 109.543 8.75L108.238 8.84C108.223 8.69 108.193 8.54 108.178 8.39C109.438 8.18 110.038 8 110.113 8C110.203 8 110.338 8.135 110.413 8.255C109.978 9.89 109.183 12.98 108.808 14.33ZM109.603 18.08C110.593 18.08 111.178 17.3 111.523 16.64C112.018 15.68 112.228 14.45 112.228 13.58C112.228 13.145 112.018 12.785 111.658 12.785C110.653 12.785 108.838 14.81 108.523 15.785C108.463 16.01 108.268 16.805 108.178 17.135C108.403 17.645 109.093 18.08 109.603 18.08Z" fill="white"/>
</svg>
