<svg width="113" height="27" viewBox="0 0 113 27" fill="none" xmlns="http://www.w3.org/2000/svg">
<g clip-path="url(#clip0_5_134)">
<rect width="113" height="27" rx="5" fill="#171717"/>
<path d="M14.042 16.154C14.159 17.116 13.587 18.39 14.042 19.066C14.575 19.872 15.615 19.001 15.953 18.455C15.914 17.987 16.135 17.766 16.291 17.493C16.226 16.973 16.551 16.622 16.603 16.115C16.616 15.881 16.512 15.595 16.551 15.335C16.577 15.14 16.733 14.958 16.772 14.763C16.811 14.542 16.746 14.282 16.772 13.983C16.798 13.554 17.006 13.138 17.071 12.683C17.136 12.28 17.175 11.838 17.162 11.422C17.162 11.279 17.084 11.136 17.071 10.993C17.058 10.681 17.227 10.421 17.253 10.083C17.253 9.927 17.162 9.667 17.162 9.433C17.162 9.225 17.227 9.043 17.201 8.913C17.123 8.536 16.343 8.068 15.953 8.094C15.173 8.133 15.147 9.017 15.03 9.732C14.9 10.655 14.796 11.253 14.51 12.072C14.406 12.384 14.328 12.969 14.042 13.034C13.821 13.086 13.6 12.839 13.392 12.735C12.859 12.436 12.378 12.397 11.871 12.774C11.052 13.385 10.402 14.971 10.402 16.115C10.389 16.804 10.558 17.181 10.792 17.584C10.909 17.818 11.104 18 11.312 18.156C11.728 18.091 12.053 18.26 12.352 18.156C12.521 18.078 12.625 17.857 12.781 17.675C12.924 17.493 13.093 17.35 13.21 17.194C13.522 16.817 13.639 16.31 14.042 16.154ZM11.481 16.453C11.754 15.231 12.105 14.074 12.95 13.424C13.197 13.268 13.691 13.827 13.73 14.165C13.795 14.555 13.483 15.205 13.34 15.543C13.197 15.933 12.859 16.596 12.651 16.804C12.131 17.337 11.702 17.09 11.481 16.453ZM23.4594 14.568C23.2774 14.711 23.1734 14.88 23.0304 14.997C22.5104 15.426 22.1334 16.024 21.6394 16.427C21.3534 16.661 20.4174 17.337 20.0794 17.298C19.7154 17.246 19.5724 16.765 19.6504 16.297C19.6894 16.011 19.9104 15.868 19.8194 15.556C20.3524 15.114 21.3924 14.62 21.8994 13.996C22.0424 13.814 22.2634 13.58 22.2894 13.437C22.4194 12.852 21.9904 12.501 21.6394 12.176C21.1584 12.267 20.6384 12.059 20.0794 12.176C19.7414 12.254 19.5594 12.527 19.3384 12.748C19.1564 12.93 18.8964 13.073 18.7274 13.268C18.2984 13.736 17.8954 14.75 17.7784 15.426C17.6224 16.31 18.1814 17.558 18.6884 17.818C19.4554 18.195 20.2094 18 20.8594 17.688C21.1714 17.532 21.6394 17.233 21.8604 17.038C22.0164 16.882 22.0684 16.661 22.1984 16.518C22.3544 16.349 22.5754 16.245 22.7184 16.076C22.9134 15.855 23.0044 15.595 23.2384 15.426C23.2774 15.322 23.3034 15.192 23.2904 15.036C23.6284 14.945 23.7194 14.633 23.8884 14.386C24.0834 14.113 24.5124 13.814 24.4214 13.437C23.8754 13.424 23.8754 13.957 23.5894 14.217C23.4854 14.269 23.5114 14.451 23.4594 14.568ZM20.6904 14.048C20.7424 13.463 20.7424 12.631 21.4704 12.878C21.7954 13.411 21.2364 13.97 20.6904 14.048ZM29.696 13.372C29.111 13.19 28.695 13.567 28.214 13.892C27.85 14.152 27.265 14.711 26.836 14.672C26.693 14.659 26.589 14.529 26.446 14.412C26.121 14.152 25.458 13.866 25.445 13.32C25.432 13.125 25.614 12.904 25.653 12.722C25.822 12.111 25.64 11.513 25.133 11.422C24.483 11.305 23.677 12.254 23.573 12.67C23.352 13.606 23.963 14.178 24.353 14.633C24.548 14.828 25.12 15.348 25.094 15.673C25.068 16.024 24.47 16.271 24.314 16.492C23.82 17.142 23.196 18.052 23.924 18.832C24.223 19.157 25.003 19.326 25.315 19.313C25.536 19.3 26.043 19.131 26.225 19.053C26.81 18.767 27.577 17.779 27.655 16.921C27.668 16.7 27.655 16.31 27.616 16.102C27.564 15.855 27.174 15.517 27.226 15.231C27.265 14.971 28.006 14.542 28.344 14.503C28.552 14.295 28.838 14.191 29.085 14.022C29.319 13.866 29.67 13.723 29.696 13.372ZM24.873 12.722C24.496 12.787 24.522 12.241 24.704 12.111C25.003 12.098 25.107 12.566 24.873 12.722ZM24.535 18.091C24.236 17.389 24.704 16.479 25.315 16.271C25.471 16.999 25.315 18.052 24.535 18.091ZM30.7524 9.68C30.5574 9.706 30.3104 9.758 30.1414 9.849C29.9204 9.979 29.5694 10.421 29.5824 10.681C29.5824 10.954 30.0634 11.435 30.3104 11.63C30.4794 11.76 30.8954 11.981 31.0904 11.981C31.2464 11.981 31.7014 11.786 31.8314 11.63C31.9484 11.5 31.9354 11.305 32.0004 11.071C32.1694 10.538 32.2344 10.473 31.9224 10.109C31.6104 9.758 31.3374 9.602 30.7524 9.68ZM30.8824 16.752C30.5834 16.531 30.8694 16.18 30.9214 15.92C30.9994 15.582 31.0514 14.984 31.0904 14.451C31.1294 14.1 31.1944 13.606 31.1424 13.32C31.0384 12.852 30.3494 12.332 29.7514 12.67C29.4004 12.865 29.2834 13.593 29.1404 14.061C29.0104 14.516 28.7244 15.023 28.6204 15.491C28.5944 15.621 28.6464 15.738 28.6204 15.881C28.5944 16.05 28.5034 16.193 28.4904 16.31C28.4254 17.142 28.9974 18.117 29.4914 18.221C29.6474 18.26 29.8554 18.247 29.9724 18.221C30.7524 18.078 31.1554 17.116 31.8314 16.83C32.0784 16.505 32.2734 16.115 32.6114 15.881C32.8064 15.465 33.1054 15.14 33.3914 14.802C33.6644 14.464 34.0934 14.139 34.0414 13.632C33.6774 13.645 33.4304 14.035 33.2224 14.321C32.7544 14.945 32.2604 15.53 31.7924 16.102C31.5454 16.388 31.2984 16.778 30.8824 16.752ZM36.8877 13.138C36.9527 12.553 36.5107 12.501 36.4067 12.098C36.1337 12.033 35.9517 11.903 35.7567 11.877C35.0287 11.773 34.7037 12.033 34.3267 12.306C33.8977 12.618 33.7937 12.735 33.5467 13.047C33.4687 13.151 33.3387 13.229 33.2867 13.307C33.2217 13.411 33.1827 13.593 33.1047 13.749C33.0397 13.879 32.9227 14.035 32.8967 14.139C32.7927 14.49 32.8057 15.127 32.8447 15.439C32.9227 15.959 33.4947 16.765 33.8847 16.817C34.0017 16.843 34.4827 16.726 34.5867 16.687C35.0027 16.531 35.2757 16.05 35.6267 15.998C35.6527 16.596 35.7307 17.129 35.4577 17.519C35.3797 17.623 35.1717 17.688 35.0157 17.818C34.6257 18.13 34.1447 18.494 33.8067 18.819C33.4817 19.118 32.7667 19.807 32.9357 20.47C33.0397 20.873 34.1187 21.354 34.5867 21.328C34.6907 21.328 34.8467 21.211 35.0157 21.159C35.5227 21.016 35.6917 20.977 36.0557 20.769C36.2507 20.652 36.4977 20.535 36.5757 20.47C36.7317 20.327 36.7577 20.119 36.8877 19.989C37.0437 19.82 37.2127 19.82 37.3557 19.69C37.4857 19.378 37.7717 19.066 37.8367 18.65C37.8627 18.455 37.8107 18.234 37.8367 18.039C37.8887 17.584 38.1357 16.856 38.2267 16.479C38.5387 16.219 38.8897 16.024 39.1757 15.699C39.3187 15.543 39.3837 15.322 39.5267 15.179C39.7087 14.984 39.9427 14.789 40.1377 14.568C40.3067 14.373 40.6317 14.165 40.5277 13.827C40.2417 13.71 40.1117 14.035 40.0077 14.217C39.4097 14.581 39.1107 15.465 38.3957 15.569C38.4347 15.452 38.4607 15.335 38.4477 15.179C38.1617 14.672 38.2787 14.048 37.9277 13.658C37.6417 13.346 37.2647 13.372 36.8877 13.138ZM36.0167 13.957C35.6397 14.607 35.1197 15.465 34.5867 15.868C34.0667 15.582 34.3397 14.568 34.5347 14.048C34.7037 13.632 34.8857 13.333 35.1067 12.969C35.3537 12.566 35.7177 11.968 36.1857 12.436C36.3027 12.566 36.4327 12.969 36.4067 13.229C36.3807 13.437 36.1597 13.71 36.0167 13.957ZM33.4947 19.729C33.9627 19.261 34.3657 18.741 35.1067 18.559C35.3147 18.637 35.2627 19.157 35.1847 19.378C35.1587 19.508 34.6647 20.288 34.4567 20.418C34.1187 20.626 33.7287 20.574 33.4947 20.379V19.729ZM42.3154 13.58C42.2374 13.411 42.3154 13.242 42.2764 13.099C42.2634 13.047 42.1724 13.008 42.1464 12.93C42.1074 12.839 42.1334 12.683 42.1074 12.631C41.7434 12.02 40.6774 11.682 40.3654 12.319C40.3654 12.332 40.3264 12.423 40.3264 12.41C40.2224 13.294 40.0794 14.711 39.8454 15.582C39.7414 16.011 39.6114 16.427 39.5854 16.791C39.5334 17.61 40.0014 18.299 40.5474 18.312C41.0674 18.312 41.3144 17.87 41.6264 17.571C41.7564 17.519 41.9644 17.532 41.9774 17.35C42.0684 17.298 41.9904 17.051 42.0164 16.921C42.4714 15.972 42.5364 14.412 43.3684 13.97C43.4074 14.217 43.1994 14.438 43.1474 14.711C43.1214 14.841 43.1734 14.971 43.1474 15.101C43.1214 15.218 43.0174 15.348 42.9654 15.491L42.8354 15.972C42.7314 16.414 42.6664 16.817 42.6664 17.22C42.6664 17.506 42.5754 17.818 42.5754 18.091C42.6014 18.728 42.8354 18.949 43.1864 19.261H43.8364C44.0574 19.079 44.3954 18.962 44.5774 18.741C44.7074 18.585 44.7334 18.351 44.8374 18.182C44.9284 18.026 45.1104 17.935 45.2274 17.792C45.3444 17.636 45.4224 17.467 45.5264 17.311C45.7474 16.999 46.1244 16.791 46.2154 16.414C46.6314 16.18 46.7874 15.738 47.0474 15.361C47.5804 15.049 48.1524 14.568 48.1264 13.84C47.8664 13.827 47.8274 14.061 47.5674 14.061C47.0864 14.62 46.7484 15.348 46.2284 15.881C46.2154 16.063 46.0594 16.128 46.0594 16.31C45.5004 16.479 45.5004 17.168 44.9284 17.311C44.7074 16.882 45.0714 16.362 45.1364 15.79C45.1624 15.621 45.1104 15.413 45.1364 15.231C45.1754 15.023 45.2664 14.828 45.3184 14.581C45.4354 13.97 45.2274 12.839 44.9674 12.449C44.6814 12.046 43.9404 12.241 43.5764 12.501C43.1344 12.813 42.8354 13.528 42.3154 13.58Z" fill="#F46646"/>
<path d="M52.042 16.154C52.159 17.116 51.587 18.39 52.042 19.066C52.575 19.872 53.615 19.001 53.953 18.455C53.914 17.987 54.135 17.766 54.291 17.493C54.226 16.973 54.551 16.622 54.603 16.115C54.616 15.881 54.512 15.595 54.551 15.335C54.577 15.14 54.733 14.958 54.772 14.763C54.811 14.542 54.746 14.282 54.772 13.983C54.798 13.554 55.006 13.138 55.071 12.683C55.136 12.28 55.175 11.838 55.162 11.422C55.162 11.279 55.084 11.136 55.071 10.993C55.058 10.681 55.227 10.421 55.253 10.083C55.253 9.927 55.162 9.667 55.162 9.433C55.162 9.225 55.227 9.043 55.201 8.913C55.123 8.536 54.343 8.068 53.953 8.094C53.173 8.133 53.147 9.017 53.03 9.732C52.9 10.655 52.796 11.253 52.51 12.072C52.406 12.384 52.328 12.969 52.042 13.034C51.821 13.086 51.6 12.839 51.392 12.735C50.859 12.436 50.378 12.397 49.871 12.774C49.052 13.385 48.402 14.971 48.402 16.115C48.389 16.804 48.558 17.181 48.792 17.584C48.909 17.818 49.104 18 49.312 18.156C49.728 18.091 50.053 18.26 50.352 18.156C50.521 18.078 50.625 17.857 50.781 17.675C50.924 17.493 51.093 17.35 51.21 17.194C51.522 16.817 51.639 16.31 52.042 16.154ZM49.481 16.453C49.754 15.231 50.105 14.074 50.95 13.424C51.197 13.268 51.691 13.827 51.73 14.165C51.795 14.555 51.483 15.205 51.34 15.543C51.197 15.933 50.859 16.596 50.651 16.804C50.131 17.337 49.702 17.09 49.481 16.453ZM61.4594 14.568C61.2774 14.711 61.1734 14.88 61.0304 14.997C60.5104 15.426 60.1334 16.024 59.6394 16.427C59.3534 16.661 58.4174 17.337 58.0794 17.298C57.7154 17.246 57.5724 16.765 57.6504 16.297C57.6894 16.011 57.9104 15.868 57.8194 15.556C58.3524 15.114 59.3924 14.62 59.8994 13.996C60.0424 13.814 60.2634 13.58 60.2894 13.437C60.4194 12.852 59.9904 12.501 59.6394 12.176C59.1584 12.267 58.6384 12.059 58.0794 12.176C57.7414 12.254 57.5594 12.527 57.3384 12.748C57.1564 12.93 56.8964 13.073 56.7274 13.268C56.2984 13.736 55.8954 14.75 55.7784 15.426C55.6224 16.31 56.1814 17.558 56.6884 17.818C57.4554 18.195 58.2094 18 58.8594 17.688C59.1714 17.532 59.6394 17.233 59.8604 17.038C60.0164 16.882 60.0684 16.661 60.1984 16.518C60.3544 16.349 60.5754 16.245 60.7184 16.076C60.9134 15.855 61.0044 15.595 61.2384 15.426C61.2774 15.322 61.3034 15.192 61.2904 15.036C61.6284 14.945 61.7194 14.633 61.8884 14.386C62.0834 14.113 62.5124 13.814 62.4214 13.437C61.8754 13.424 61.8754 13.957 61.5894 14.217C61.4854 14.269 61.5114 14.451 61.4594 14.568ZM58.6904 14.048C58.7424 13.463 58.7424 12.631 59.4704 12.878C59.7954 13.411 59.2364 13.97 58.6904 14.048ZM64.615 12.852C64.576 12.527 64.498 12.046 64.537 11.63C64.55 11.5 64.628 11.383 64.667 11.24C64.745 10.876 64.693 10.655 64.667 10.33C64.628 10.005 64.693 9.667 64.615 9.42C64.576 9.264 64.407 9.082 64.316 8.9C64.199 8.653 64.225 8.458 64.056 8.341C63.77 8.133 63.211 8.159 62.925 8.38C62.769 8.497 62.704 8.77 62.626 9.121C62.444 9.901 62.21 10.98 62.145 11.76C62.054 12.8 61.898 13.502 61.716 14.412C61.664 14.646 61.612 14.945 61.586 15.192C61.417 16.414 61.04 17.506 61.404 18.403C61.807 18.572 62.093 18.663 62.535 18.572C62.847 18.507 62.99 18.208 63.237 18.182C63.445 18.156 63.705 18.299 63.926 18.312C64.329 18.338 64.745 18.169 64.966 18.052C65.213 17.909 65.681 17.467 65.837 17.272C66.214 16.778 66.344 16.076 66.747 15.53C67.176 15.179 67.735 14.958 68.138 14.581C68.359 14.555 68.476 14.425 68.606 14.321C68.801 14.269 69.022 14.243 68.996 13.97C68.658 13.801 68.333 14.061 68.047 14.191C67.735 14.334 67.462 14.568 67.085 14.581C66.825 14.022 67.072 13.307 66.656 12.93C66.162 12.488 65.291 12.865 64.615 12.852ZM64.186 15.452C64.134 14.373 64.394 12.787 65.785 13.19C65.772 13.437 65.954 13.645 65.967 13.892C65.967 14.139 65.785 14.451 65.707 14.75C65.642 15.01 65.681 15.192 65.525 15.361C65.408 15.504 65.096 15.686 64.875 15.842C64.628 16.024 64.316 16.206 64.095 16.05C63.978 15.829 64.134 15.634 64.186 15.452ZM64.355 16.7C64.329 16.544 64.446 16.531 64.576 16.531C64.576 16.674 64.459 16.687 64.355 16.7ZM71.8352 11.136C71.8482 10.122 70.6912 9.537 69.9242 10.187C69.8202 10.538 69.7162 10.902 69.6252 11.266C69.2872 11.513 68.4552 11.266 68.2732 11.656C68.3772 12.098 68.9622 12.046 69.4042 12.137C69.4562 12.644 69.1702 13.138 69.0662 13.658C69.0272 13.827 69.0532 14.009 69.0142 14.178C68.9752 14.334 68.8842 14.49 68.8452 14.659C68.7542 14.958 68.7542 15.218 68.7152 15.569C68.6892 15.79 68.5852 16.05 68.5852 16.258C68.5852 16.362 68.6372 16.466 68.6242 16.557C68.6112 16.687 68.5332 16.778 68.5462 16.908C68.5852 17.571 69.1182 18.338 69.8462 18.299C70.0802 18.286 70.2882 18.104 70.5742 18.039C71.2632 17.428 71.8482 16.739 72.6152 16.219C72.7712 15.933 73.0832 15.738 73.3042 15.478C73.5252 15.244 73.9022 14.971 73.7852 14.568C73.1092 14.711 72.9532 15.374 72.3552 15.608C72.0172 16.18 71.4192 16.492 70.8342 16.817C70.6002 16.414 70.9122 15.621 71.1462 15.257C71.1592 14.984 71.1852 14.737 71.2242 14.477C71.2762 14.23 71.3932 14.022 71.4452 13.788C71.6012 13.138 71.4842 12.488 71.7442 12.046C72.2122 11.747 73.0962 11.864 73.5642 11.578C73.4212 11.006 72.3162 11.383 71.8352 11.136ZM74.2662 14.126C74.1232 14.113 74.0712 14.165 74.0972 14.308C74.2272 14.321 74.2792 14.269 74.2662 14.126Z" fill="#F4AF47"/>
<g filter="url(#filter0_d_5_134)">
<path d="M77.911 17.61V17.389L77.976 17.233L77.898 16.921L77.846 16.817L77.612 16.609H77.547L77.456 16.518L77.365 16.505L77.274 16.388L77.001 16.401L76.91 16.349L76.884 16.31L76.78 16.297L76.741 16.271L76.637 16.284L76.468 16.362L76.364 16.57L76.286 16.635L76.26 16.739L76.104 16.947L76.13 17.025L76.039 17.129L76.052 17.246L75.948 17.48L76.039 17.571L76.091 17.545L76.13 17.584L76.065 17.649L76.052 17.701L76.13 17.805L76.143 17.909L76.403 18.078L76.468 18.182L76.676 18.104L76.689 18.156L76.624 18.26V18.312L76.689 18.325L76.78 18.286L76.741 18.169L76.819 18.104H76.871L76.936 18.169L77.001 18.312L77.105 18.286L77.248 18.143L77.3 18.13L77.339 18.026L77.651 17.857L77.703 17.766L77.872 17.636L77.911 17.61ZM82.3533 12.176L82.2623 12.215L82.0673 12.15L82.0153 12.163L81.9113 12.254L81.8593 12.241L81.7943 12.293L81.6903 12.332L81.5863 12.319L81.3393 12.397L81.1833 12.54H81.1313L81.0793 12.605L81.0403 12.722L81.0013 12.761L80.9103 12.748L80.8843 12.787L80.8973 12.839L80.7413 12.943L80.7283 13.008L80.6503 13.086L80.5463 13.112L80.5333 13.216L80.4813 13.307L80.4033 13.359L80.3643 13.554L80.2733 13.58L80.1693 13.762L80.0523 13.84L79.9483 14.308L79.8443 14.477L79.7793 14.542L79.7403 14.737L79.6623 14.828L79.6493 14.932L79.6883 15.114L79.6103 15.179L79.5713 15.257L79.5453 15.803L79.4933 15.881L79.5583 16.115L79.5063 16.219L79.5973 16.297L79.5583 16.362L79.5193 16.622L79.5973 16.713L79.5713 16.765V16.869L79.7533 17.207L79.8573 17.298L79.8313 17.467L79.8833 17.532L79.9483 17.402L80.0133 17.571V17.74L80.1563 17.701L80.1823 17.727L80.1563 17.87L80.1953 17.896L80.3123 17.883L80.5203 17.922L80.5983 17.961L80.6503 18.065L80.7153 18.13L80.8713 18.195L81.0273 18.156L81.1183 18.247L81.3263 18.234L81.5473 18.078L81.6253 18.091L81.7163 18.052L81.8073 18.065L81.8853 18L81.9893 18.026L82.0413 17.987L82.1063 17.844H82.1583L82.2233 17.896L82.3143 17.857L82.3793 17.779L82.3923 17.727L82.4963 17.675L82.5873 17.48L82.7043 17.363L82.7953 17.402H82.8603L82.9903 17.259L82.9253 17.142L83.0423 17.051L83.0683 17.116L83.1593 17.09L83.1983 17.051L83.1723 16.96L83.2113 16.908L83.3413 16.869L83.4063 16.778L83.5623 16.648L83.5103 16.544V16.492L83.5493 16.453H83.6143L83.7183 16.492L83.8223 16.297L84.0953 15.972L84.1083 15.907L84.1863 15.855L84.3163 15.686L84.3943 15.621V15.53L84.5373 15.4L84.6023 15.309L84.6673 15.101L84.7973 15.036L84.8233 14.997L84.8103 14.867H84.8883L84.9663 14.802L84.9923 14.659L85.0963 14.607L85.1353 14.49L85.2523 14.399L85.4213 14.152L85.4343 14.087L85.3693 13.957L85.4733 13.775L85.4343 13.736L85.3433 13.775L85.3043 13.879L85.2133 13.931L85.1613 13.996L85.0833 14.191L84.9663 14.308L84.9403 14.412L84.8623 14.451L84.8363 14.542L84.6543 14.789L84.5373 14.841L84.5113 14.945L84.4463 15.01L84.3553 15.205L84.3163 15.244H84.2643L84.2383 15.283L84.2513 15.335L84.2123 15.439L84.0823 15.543L84.0043 15.725L83.8613 15.855L83.7573 15.829L83.6663 15.894L83.6403 15.946L83.6923 16.024L83.6013 16.193L83.4453 16.323L83.3413 16.479L83.2503 16.531L83.2113 16.505H83.1073L83.0813 16.544L83.1853 16.583L83.2243 16.622L82.9383 16.726V16.869L82.8733 16.934L82.7173 16.947L82.7043 17.012L82.6263 17.09L82.5743 17.103L82.5613 17.272L82.4443 17.259L82.3403 17.415L82.2493 17.467L82.0543 17.519L81.9763 17.597L81.8723 17.623H81.5603L81.2353 17.545L81.1703 17.454L81.0793 17.415L81.0533 17.363L81.0793 17.272L81.0663 17.22L80.9623 17.194L80.9363 17.155L80.9623 17.064L80.9493 17.012L80.8843 16.947H80.7673L80.7543 16.804L80.7803 16.687L80.8453 16.661L80.7803 16.557L80.8193 16.479V16.375L80.7803 16.219L80.6503 16.154L80.6373 16.102L80.7413 16.076L80.7673 16.024L80.8713 15.972L80.9233 15.855L80.8323 15.777V15.725L80.9753 15.582L80.9493 15.413L80.8193 15.4L80.7543 15.348L80.7413 15.296L80.9103 15.218L81.0013 15.257L80.9493 14.971L80.9753 14.932L81.1183 14.906L81.1443 14.802L81.2483 14.685V14.607L81.1703 14.503L81.1833 14.464L81.3003 14.438L81.2873 14.386L81.3133 14.295L81.3783 14.217L81.4303 14.087L81.5603 13.931L81.6643 13.749L81.7163 13.723L81.7293 13.632L81.6643 13.554L81.6903 13.515L81.7943 13.502L81.8333 13.476L81.8203 13.424L81.7553 13.359L81.8203 13.19L81.8723 13.164H81.9893L81.9763 13.047L82.1193 12.956L82.2103 12.969L82.3013 13.021L82.3533 13.008L82.4313 13.073L82.5613 13.333L82.5223 13.528L82.5483 13.723L82.4963 13.827L82.5613 13.944L82.4313 14.009L82.5093 14.113L82.4703 14.256L82.5483 14.321L82.6523 14.308L82.6263 14.412L82.6393 14.464L82.7563 14.477L82.8993 14.412L83.0293 14.269L82.9903 14.165L83.0553 14.087V14.022L82.9773 13.97L82.9643 13.918L83.0553 13.814L83.0813 13.632L83.1983 13.45V13.411L83.1073 13.229L83.1463 13.112L83.1853 13.073L83.1983 12.982L83.1333 12.904L83.1203 12.8L82.9253 12.436L82.7433 12.319L82.6523 12.332L82.6003 12.28L82.5093 12.241L82.4443 12.254L82.3923 12.215L82.3533 12.176ZM79.8703 14.321L79.8573 14.282L79.8313 14.308L79.8703 14.321ZM80.6893 15.894L80.6633 15.842L80.6893 15.855V15.894ZM81.5733 18.156L81.5603 18.208L81.5993 18.221V18.169L81.5733 18.156ZM87.7242 8.25L87.6332 8.289L87.4642 8.237H87.3472L87.3082 8.328L87.2172 8.276H87.1522L87.0482 8.328L86.9312 8.302L86.8272 8.315L86.6192 8.484L86.6322 8.601L86.6062 8.731L86.4762 8.874L86.4372 9.03L86.5282 9.069L86.5542 9.108L86.5282 9.147L86.4242 9.199L86.3982 9.303L86.3202 9.355L86.2292 9.615L86.2812 9.706L86.2162 9.81L86.2552 9.875L86.1382 10.005V10.07L86.2292 10.148L86.2032 10.187L86.0732 10.213L86.0862 10.265L86.1512 10.304L86.0862 10.408L86.0992 10.473L85.9822 10.655L86.0082 10.733L85.9432 10.837L85.9822 10.928L85.9432 11.123L85.8262 11.214L85.8392 11.292L85.9172 11.37L85.8262 11.617V11.708L85.6962 11.773V11.851L85.7482 11.877L85.7742 11.929L85.7092 12.02L85.7222 12.085L85.6442 12.163L85.5402 12.176L85.6312 12.345L85.6572 12.488L85.6312 12.527L85.5272 12.566L85.6052 12.722L85.5792 12.761L85.4752 12.722L85.4492 12.813L85.4882 13.073L85.3452 13.151L85.3842 13.268L85.4622 13.333L85.4882 13.385L85.4622 13.411L85.3712 13.424V13.671L85.2672 13.853L85.3842 13.892L85.3322 14.061L85.2802 14.087L85.2412 14.178L85.2542 14.282L85.2022 14.373L85.2282 14.477V14.685L85.1372 14.737L85.1112 14.789L85.2542 14.841L85.2672 14.893L85.2412 14.932L85.1242 14.958L85.1502 15.062L85.0852 15.166V15.296L85.1632 15.465L85.0852 15.53L85.0462 15.829L85.0982 16.037L85.0592 16.141L85.1112 16.297L85.0852 16.336V16.57L85.1762 16.661L85.1112 16.765L85.2022 16.934L85.2152 17.025L85.1892 17.129L85.2672 17.246V17.363L85.4622 17.675V17.727L85.5142 17.805L85.5402 17.961L85.6442 17.974L85.7092 18.039L85.6832 18.078L85.7222 18.156H85.8522L85.8782 18.182V18.299L85.9692 18.273L86.0732 18.351L86.2422 18.338L86.2942 18.221L86.3462 18.195L86.4502 18.208L86.5022 18.182L86.5672 18.208L86.6582 18.195L86.8012 18.065L87.0482 17.961L87.1782 17.818L87.3472 17.779L87.4122 17.623L87.5552 17.571L87.5942 17.48V17.415L87.6982 17.337L87.7242 17.233L87.7632 17.194L87.8802 17.168L88.0362 16.947L88.0102 16.895L88.0492 16.739L88.2442 16.648L88.2312 16.544L88.3742 16.453L88.4132 16.349L88.4782 16.284L88.5302 16.141L88.6212 16.089L88.6732 16.011L88.6862 15.907L88.7772 15.855V15.79L88.7252 15.712L88.8942 15.608L88.9462 15.413L89.0632 15.244L89.0762 15.179L89.1542 15.114L89.2192 14.997V14.906L89.3882 14.893L89.4012 14.828L89.3362 14.737L89.4402 14.646L89.4272 14.451L89.4792 14.321L89.5702 14.334L89.6222 14.191L89.6092 14.139L89.7522 14.087L89.7782 14.048L89.7522 13.918L89.8042 13.775L89.7782 13.671L89.6742 13.593L89.5702 13.632L89.5442 13.749L89.4402 13.84V13.931L89.3102 14.204L89.2452 14.269L89.0502 14.62L88.9332 14.776L88.9722 14.971L88.8422 14.984L88.6862 15.231L88.6732 15.361L88.5822 15.543L88.4522 15.699L88.3612 15.894L88.1402 16.232L88.1012 16.323L88.0882 16.479L88.0102 16.557L87.8542 16.609L87.8282 16.713L87.6852 16.869L87.6202 17.038L87.4772 17.181L87.4512 17.259L87.3992 17.272L87.3342 17.35V17.493L87.2302 17.441L87.1522 17.506L87.1002 17.597L86.8662 17.701L86.7232 17.727V17.818L86.6192 17.74L86.4892 17.805L86.4632 17.792V17.675L86.5802 17.558L86.5152 17.493L86.4242 17.571L86.3982 17.506L86.3202 17.48L86.3722 17.402H86.4632L86.4372 17.298L86.3462 17.324L86.3202 17.272L86.3592 17.168L86.3072 17.09L86.4112 16.999L86.4242 16.947L86.2682 16.843L86.3072 16.752L86.2422 16.687L86.1902 16.674L86.0602 16.726L86.0212 16.674L86.1382 16.596L86.2162 16.622H86.3722L86.4112 16.648L86.4242 16.518L86.3332 16.479L86.3072 16.427H86.4242L86.4372 16.479L86.5282 16.427L86.5412 16.362L86.4372 16.271V16.141L86.3202 16.102L86.2292 16.193L86.1382 16.167L86.1122 16.115L86.1512 16.076L86.3592 16.05L86.3982 16.024L86.3852 15.92L86.4502 15.699L86.5412 15.634L86.5542 15.582L86.5282 15.543L86.4242 15.517L86.3982 15.478L86.4242 15.439L86.4112 15.335L86.3852 15.296L86.4372 15.231L86.3982 15.14L86.5152 14.984V14.867L86.5932 14.828L86.6192 14.789L86.6062 14.75L86.5022 14.698L86.5542 14.607L86.6712 14.581L86.5802 14.256L86.6842 14.217L86.6972 14.165L86.6582 14.074L86.6452 13.944L86.7752 13.853V13.71L86.8922 13.619L86.9182 13.437L87.0222 13.398L86.9572 13.307L87.0612 13.164L87.1522 13.125L87.3992 12.67L87.4772 12.618L87.4902 12.527L87.5682 12.462L87.6332 12.319L87.7632 12.215L87.7762 12.15L87.7502 12.02L87.8282 11.929L87.8542 11.838L87.9062 11.851L87.9452 11.825L87.9972 11.552L88.1402 11.461V11.344L88.2572 11.292L88.2832 11.175L88.2312 11.11L88.2052 11.006L88.2182 10.954L88.3482 10.889L88.3742 10.837L88.3612 10.746L88.4392 10.681L88.4652 10.629L88.4262 10.486L88.4392 10.369L88.5302 10.278L88.4392 10.083L88.4522 9.992L88.5302 9.901L88.5432 9.797L88.5952 9.732L88.6082 9.667L88.5302 9.485L88.5432 9.368L88.6082 9.264L88.5822 9.16L88.4912 9.095L88.4782 8.991L88.3742 8.822L88.1922 8.614L88.1662 8.51L88.1012 8.445L87.9842 8.419L87.7762 8.276L87.7242 8.25ZM87.5682 8.523L87.6592 8.562H87.8152L87.9712 8.731V8.783L88.1012 8.926L88.0492 9.017L88.0752 9.069L88.1532 9.121L88.1272 9.342L88.0882 9.381L88.1402 9.615L88.2052 9.745L88.1402 9.823L88.1922 10.07L88.1142 10.2V10.265L88.1532 10.369L88.0882 10.447L87.9062 11.019L87.9322 11.123L87.8412 11.201L87.8282 11.344L87.7372 11.37L87.6852 11.448L87.6982 11.552L87.6332 11.656V11.708L87.4642 11.903L87.4772 12.007L87.4512 12.124L87.2952 12.215L87.2822 12.28L87.1132 12.475L87.0612 12.462L86.9832 12.358L87.0352 12.293L87.1132 12.28V12.15L87.1652 12.059L87.1132 11.968L87.1522 11.786L87.0482 11.695L87.0612 11.643L87.0222 11.552L87.1782 11.422L87.1652 11.331L87.2562 11.292L87.2692 11.24L87.2432 11.201L87.1392 11.175L87.0742 11.201L87.0222 11.175L87.1262 11.071L87.2302 11.084L87.2692 11.058L87.2822 11.006L87.2432 10.902L87.2822 10.824L87.2952 10.668L87.3732 10.603L87.3862 10.564L87.3602 10.473L87.2952 10.395L87.3992 10.252L87.4122 10.2L87.3342 10.031L87.3862 9.953L87.4252 9.706L87.3472 9.602V9.55L87.4642 9.433L87.3862 9.368L87.3212 9.355L87.4122 9.199L87.3992 9.147L87.3472 9.108L87.3992 9.03L87.3472 8.926L87.3862 8.835L87.3472 8.614L87.5422 8.549L87.5682 8.523ZM87.1522 11.591L87.1392 11.643L87.1912 11.682L87.2042 11.604L87.1522 11.591ZM85.8782 11.903V11.89L85.9042 11.903H85.8782ZM86.8662 12.735L86.9182 12.696V12.748L86.8662 12.735ZM86.0862 14.737V14.685L86.1512 14.659L86.1382 14.724L86.0862 14.737ZM86.1902 15.075L86.1382 15.14L86.0732 15.101L86.1122 15.023H86.1642L86.1902 15.075ZM86.5282 15.179L86.4372 15.192L86.4632 15.244L86.5282 15.257L86.5412 15.218L86.5282 15.179ZM86.1902 15.335L86.2162 15.283L86.3332 15.27L86.3202 15.322L86.2552 15.374L86.1902 15.335ZM86.2552 15.738L86.2422 15.699L86.2812 15.608L86.3462 15.634L86.3722 15.673L86.3072 15.725L86.2552 15.738ZM85.1112 15.712L85.1242 15.686L85.1502 15.712H85.1112ZM86.0992 15.881H86.1512L86.1382 15.92L86.0992 15.881ZM86.5802 15.998L86.4892 15.959L86.3982 15.998L86.4892 16.076L86.5542 16.05L86.5802 15.998ZM86.2552 16.297L86.2682 16.245L86.3202 16.284L86.2552 16.297ZM86.0472 16.856V16.83H86.0732V16.856H86.0472ZM85.8522 16.895L85.9172 16.843L85.9562 16.856L85.8912 16.908L85.8522 16.895ZM86.0732 17.051L86.1252 16.999L86.1772 16.986L86.1512 17.077L86.0602 17.129L85.9692 17.116L86.0342 17.064L86.0732 17.051ZM85.7222 17.09L85.7352 17.025L85.8262 17.012L85.8522 17.051L85.8262 17.09L85.7742 17.103L85.7222 17.09ZM86.4892 17.129L86.4502 17.155V17.181L86.4892 17.207V17.129ZM86.1252 18.234L86.1772 18.169L86.2292 18.182L86.1772 18.247L86.1252 18.234ZM86.5282 18.312L86.5412 18.286L86.4502 18.299L86.4372 18.351L86.5282 18.377V18.312ZM90.7803 12.605L90.7153 12.527L90.5073 12.384L90.4423 12.397L90.2213 12.345L90.1433 12.41L90.0913 12.501L90.1173 12.605L90.0003 12.592L89.9353 12.657L89.9223 12.709L90.0003 12.787L89.9613 12.839L89.8573 12.891L89.8443 13.008L89.8703 13.164L89.7533 13.281L89.7923 13.437L89.7663 13.476L89.7533 13.619L89.7273 13.671L89.7663 13.749L89.7403 13.788L89.6363 13.827L89.5713 13.892L89.6103 14.035L89.5583 14.087L89.5973 14.113L89.6493 14.1L89.6883 14.126L89.6233 14.191L89.5713 14.204L89.5453 14.373L89.4933 14.451L89.4673 14.62L89.4933 14.763L89.4283 14.867L89.4543 14.906L89.5973 14.932L89.6233 14.958L89.3633 15.049L89.4413 15.192L89.3633 15.283V15.387L89.2983 15.478V15.517L89.3893 15.595L89.2983 15.673L89.3763 15.738L89.2593 15.855V15.92L89.3113 16.024L89.2983 16.076L89.2073 16.024L89.1943 16.076L89.2593 16.206L89.1813 16.388L89.1683 16.479L89.2333 16.544L89.2593 16.752L89.2073 16.843L89.2983 16.869L89.2203 16.986L89.2463 17.038L89.2203 17.22L89.3243 17.246L89.3503 17.285L89.2853 17.441L89.3893 17.532V17.636L89.5063 17.805V17.922L89.6753 18.052V18.13L89.8183 18.234H89.9613L89.9873 18.273L90.0913 18.247L90.1173 18.273L90.1303 18.364L90.2213 18.403L90.4553 18.325L90.5593 18.39H90.5983L90.6243 18.338L90.5463 18.208L90.7413 18.195L90.7673 18.156L90.7413 18.039H90.8063L90.9753 17.909L91.0533 17.896L91.0923 17.727L91.1573 17.649L91.2743 17.571L91.3263 17.428L91.4173 17.402L91.4563 17.246L91.5733 17.168L91.5863 17.129L91.4693 17.077L91.4563 17.025L91.4823 16.986L91.5603 16.96L91.5993 16.882V16.921L91.6383 16.934L91.6253 16.869L91.6903 16.739L91.5993 16.726L91.5863 16.661L91.6383 16.635L91.7943 16.661L91.8333 16.544L91.9243 16.414L91.9113 16.349L91.9503 16.258L92.0153 16.193L92.0283 16.102L92.0673 16.076L92.2753 16.102L92.3533 16.037L92.4183 16.089L92.1973 16.206L92.2103 16.258L92.1713 16.414L92.2103 16.518L92.1713 16.609L92.2233 16.622L92.2493 16.661L92.1583 16.726L92.1713 16.843L92.1453 16.947L92.2363 16.96L92.3013 17.025L92.1583 17.116L92.1713 17.207L92.4313 17.142L92.5093 17.207L92.6003 17.22L92.6913 17.168L92.8343 17.194L92.8473 17.259L92.6263 17.298L92.4183 17.285L92.3793 17.259L92.3403 17.285L92.2883 17.467L92.2363 17.48V17.363L92.1453 17.324L92.1713 17.428L92.1453 17.532L92.1583 17.636L92.4703 17.623L92.5093 17.649L92.5483 17.753V17.818L92.4963 17.922L92.4443 17.935L92.4313 17.87L92.5093 17.727L92.3793 17.688L92.2753 17.857V18L92.3793 17.987L92.4963 18.039L92.5353 18L92.8213 17.948L92.8733 17.974L92.9253 18.052H92.7953L92.6653 18.169L92.6263 18.13L92.5743 18.143L92.6133 18.208V18.26L92.5093 18.234L92.4833 18.351L92.5873 18.455L92.6523 18.403L92.7563 18.377L92.6913 18.234V18.182L92.8603 18.221L92.9123 18.208L92.9383 18.234L92.8213 18.325L92.8083 18.364L92.8733 18.442L92.9773 18.403L93.0033 18.442V18.507L92.9773 18.546L92.8343 18.442L92.7043 18.52L92.6913 18.585L92.7953 18.572L92.9253 18.611L92.8473 18.715L92.8863 18.793L92.9773 18.806L93.0553 18.741L93.0423 18.689L93.0943 18.637L93.1593 18.767L93.1983 18.793H93.3023L93.3673 18.741L93.6273 18.754L93.6923 18.663L93.7833 18.624L93.9393 18.442L94.0303 18.468L94.1083 18.364L94.1213 18.312L94.0693 18.26L94.1733 18.208L94.2253 18.078L94.2643 18.052L94.3163 18.143L94.3683 18.169L94.4463 18.065L94.4073 17.974L94.4203 17.922L94.5113 17.961L94.5893 17.896L94.6023 17.844L94.5503 17.818L94.5243 17.766L94.6023 17.727L94.6413 17.623L94.7063 17.545L94.6283 17.402L94.8493 17.376L94.8623 17.337L94.8233 17.181L95.0053 17.116L95.0183 17.064L94.9403 17.012L94.9663 16.973L95.1223 16.934L95.1353 16.882L95.1093 16.791L95.1743 16.726L95.2653 16.687L95.1873 16.648L95.2523 16.661L95.2393 16.596L95.2653 16.492L95.1873 16.401L95.2133 16.375L95.2523 16.401H95.3563L95.3953 16.375L95.3823 16.219L95.4993 16.18L95.5123 15.959L95.6033 15.933L95.6943 15.751V15.543L95.7333 15.478L95.8503 15.465L95.8893 15.4L95.8243 15.257L95.8503 15.218H96.0063L96.0323 15.114L95.9803 15.023L96.0193 14.919L96.0583 14.88L96.1233 14.698L96.1623 14.659H96.2013L96.2533 14.62L96.2403 14.555L96.2793 14.464L96.3833 14.36L96.2403 14.295L96.2143 14.256L96.2533 14.23L96.4223 14.204L96.4483 14.139L96.4353 14.048L96.3313 13.892L96.2923 13.879L96.2143 13.957L96.1883 14.061L96.0973 14.126L96.0843 14.23L95.9933 14.308L95.9153 14.62L95.9283 14.724L95.7593 14.906L95.7333 14.997L95.6163 15.14V15.296L95.4993 15.452L95.5123 15.569L95.4213 15.595L95.3953 15.634L95.4473 15.699L95.2653 15.972V16.05L95.1613 16.141L95.1743 16.206L95.1483 16.297L95.0313 16.375L95.0183 16.479L94.8883 16.674V16.726L94.8363 16.817L94.7583 16.882L94.7193 16.973L94.7323 17.038L94.6153 17.142V17.272L94.4723 17.363L94.4593 17.454L94.3033 17.636L94.2903 17.727L94.1603 17.87L94.1083 18L94.0043 18.065L93.9523 18.143L93.8613 18.182L93.7963 18.26L93.7053 18.286L93.5883 18.273L93.4453 18.416L93.3673 18.455H93.3153V18.325L93.2373 18.247H93.1983L93.0683 18.325V18.273L93.1853 18.104V18.052L93.2893 17.948L93.3023 17.883L93.2503 17.857L93.1983 17.87L93.1593 17.935L93.1723 18.039L93.0813 17.987L93.0293 17.844L93.1073 17.779L93.2243 17.727L93.2763 17.493L93.1983 17.467L93.1723 17.415L93.2633 17.402L93.2373 17.311L93.2503 17.207L93.4063 17.09L93.3933 17.038L93.4583 16.947L93.3673 16.895L93.2763 16.96L93.1853 16.882L93.3283 16.778V16.661L93.4453 16.505L93.3803 16.518L93.3413 16.557L93.3023 16.479L93.3153 16.427L93.4973 16.336L93.4063 16.271L93.4843 16.154L93.4323 16.063L93.5233 15.972L93.4583 15.842L93.5363 15.608L93.4323 15.53L93.4973 15.426L93.4843 15.335L93.5233 15.231L93.5753 15.218L93.6013 15.179L93.5103 15.14L93.5233 15.075L93.4583 14.867H93.4973L93.6013 14.776L93.5363 14.672L93.5753 14.542L93.5103 14.23L93.6143 14.191L93.6403 14.022L93.5623 13.957L93.4063 13.905L93.4323 13.801L93.3933 13.606L93.3023 13.567L93.1203 13.437L92.9253 13.424L92.7823 13.45L92.6653 13.619V13.671L92.7043 13.71L92.5873 13.749L92.5613 13.801L92.6133 13.814L92.6653 13.879V13.931L92.4963 13.996L92.4833 14.035L92.5483 14.152L92.4703 14.256L92.4963 14.308L92.4313 14.412L92.4443 14.464L92.3143 14.646L92.3663 14.737V14.828L92.3273 14.919L92.3013 15.075L92.3143 15.127L92.2623 15.205V15.27L92.1973 15.335L92.2493 15.517H92.1453L92.1193 15.569V15.738L92.0153 15.751L91.9503 15.803L91.9763 15.907L92.0413 15.959L91.9113 15.933L91.8463 15.998L91.8333 16.089L91.8593 16.141L91.8203 16.18L91.7163 16.193L91.6643 16.245L91.7423 16.336L91.4043 16.752L91.4173 16.843H91.3523L91.3003 16.947L91.1183 17.142V17.259L90.9493 17.376L90.7933 17.532L90.7543 17.623L90.6373 17.74L90.5463 17.727L90.5073 17.675L90.6243 17.597L90.6373 17.558L90.5853 17.545L90.4423 17.597L90.4033 17.545L90.5073 17.428L90.5463 17.311L90.6243 17.181L90.4813 17.012L90.5203 16.869L90.5983 16.804L90.5333 16.739L90.4423 16.7L90.3383 16.817L90.2993 16.778L90.3123 16.7L90.3903 16.661L90.4423 16.687L90.4683 16.596L90.4423 16.557L90.3383 16.544L90.2993 16.466L90.3513 16.453L90.4033 16.479L90.4813 16.427L90.4033 16.336L90.5593 16.245L90.5073 16.141L90.5983 16.024V15.959L90.4553 15.829L90.4423 15.738L90.5463 15.647L90.5073 15.556L90.5203 15.504L90.6113 15.439L90.5463 15.374L90.5333 15.322L90.5593 15.27L90.6893 15.192V15.14L90.7413 15.062V15.023L90.5983 14.906L90.5723 14.711L90.6763 14.646L90.7153 14.503L90.6893 14.347L90.7413 14.269L90.7283 14.191L90.6503 14.126L90.6243 14.074L90.6633 14.048L90.7933 14.035L90.7803 13.983L90.8323 13.84L90.8193 13.762L90.7543 13.697L90.8323 13.606V13.567L90.7153 13.346L90.6373 13.281L90.8453 13.294L90.8843 13.255L90.8713 13.216L90.6893 13.164L90.7283 13.086L90.7413 12.982L90.8713 12.865L90.8843 12.813L90.7673 12.683V12.644L90.7803 12.605ZM92.5093 14.49H92.5613L92.5873 14.516L92.5613 14.555L92.5093 14.542V14.49ZM92.5353 14.711V14.646L92.5743 14.659L92.5873 14.698L92.5353 14.711ZM93.0163 14.815L93.0553 14.711L93.0943 14.685L93.1333 14.698L93.0683 14.763V14.828L93.0163 14.815ZM93.3153 14.906L93.3023 14.867L93.3673 14.815V14.88L93.3153 14.906ZM92.4573 14.88H92.4963L92.5093 14.919L92.4573 14.88ZM93.1723 15.062H93.2243L93.1853 15.101L93.1723 15.062ZM93.3673 15.153L93.3283 15.127L93.3413 15.075L93.3933 15.062V15.114L93.3673 15.153ZM90.3513 15.322L90.3123 15.309L90.3253 15.244H90.3643L90.3773 15.296L90.3513 15.322ZM92.6913 15.556L92.7693 15.504H92.8603L92.8473 15.556L92.7303 15.582L92.6913 15.556ZM92.6393 15.725L92.6653 15.66L92.7043 15.634L92.7563 15.66L92.7693 15.712L92.7303 15.751H92.6783L92.6393 15.725ZM92.6913 15.92L92.7433 15.907L92.7953 15.933L92.7823 15.972L92.6913 15.959V15.92ZM90.3513 15.946H90.3903V15.985L90.3513 15.946ZM90.2213 16.18L90.2473 16.102L90.3513 16.063L90.4293 16.102L90.3643 16.167L90.2603 16.18H90.2213ZM90.7413 16.258L90.7543 16.206L90.7283 16.154L90.6763 16.18L90.7023 16.258H90.7413ZM90.1173 16.297H90.1693L90.1433 16.323L90.1173 16.297ZM92.6783 16.466L92.6913 16.414L92.7433 16.401L92.7953 16.427L92.7303 16.479L92.6783 16.466ZM89.4933 16.713L89.4803 16.661L89.5193 16.635L89.5453 16.674L89.4933 16.713ZM89.7403 16.752L89.7663 16.713L89.7923 16.752H89.7403ZM92.3143 16.856L92.3273 16.817L92.3793 16.83V16.869L92.3143 16.856ZM90.0263 16.895V16.843L90.0653 16.83V16.895H90.0263ZM92.7043 16.856L92.7563 16.843V16.895H92.7043V16.856ZM89.5583 16.96L89.6233 16.869L89.6623 16.856L89.6883 16.895L89.6233 16.947L89.5583 16.96ZM92.8343 17.038L92.8993 17.012V17.051L92.8343 17.038ZM89.4543 17.09L89.4803 17.051H89.5973L89.6103 17.103H89.5063L89.4543 17.09ZM89.6103 17.233L89.7013 17.207L89.7923 17.259L89.5973 17.35L89.4933 17.363L89.5583 17.272L89.6103 17.233ZM90.2343 17.35L90.2473 17.272L90.2863 17.22L90.3903 17.207L90.4293 17.246L90.3903 17.311H90.3383L90.2863 17.35H90.2343ZM92.8993 17.272L92.9253 17.233H93.0293L92.9643 17.324L92.9253 17.311L92.8993 17.272ZM89.8313 17.311L89.8573 17.272L89.9353 17.259L89.9613 17.311L89.9223 17.35H89.8703L89.8313 17.311ZM92.7953 17.428L92.8863 17.376L92.9773 17.389L93.0163 17.441L92.8083 17.506L92.7823 17.545L92.6913 17.493L92.6783 17.454L92.7043 17.415L92.7433 17.428H92.7953ZM92.5093 17.493L92.5613 17.428L92.6003 17.48L92.5483 17.506L92.5093 17.493ZM90.0913 17.545L90.0783 17.493L90.1043 17.454H90.1433L90.1823 17.493L90.1563 17.545H90.0913ZM92.7043 17.649L92.7303 17.61H92.7823L92.8083 17.662L92.7953 17.714L92.7433 17.688L92.7043 17.649ZM92.6653 17.857L92.6913 17.805L92.7953 17.766L92.8213 17.714L92.8993 17.727L92.9253 17.818L92.8603 17.87L92.7563 17.896L92.7043 17.883L92.6653 17.857ZM94.3553 17.87L94.3943 17.831L94.4333 17.857V17.909L94.3813 17.896L94.3553 17.87ZM92.5223 18.091L92.4833 18.065L92.3793 18.143L92.3923 18.182L92.5093 18.221L92.5223 18.143V18.091ZM93.4843 18.078L93.4323 18.065L93.3673 18.156L93.4193 18.169L93.4713 18.143L93.4843 18.078ZM93.0553 18.416L93.0813 18.377H93.1203L93.1463 18.416L93.1203 18.468L93.0813 18.442L93.0553 18.416ZM93.4583 18.65L93.4973 18.598L93.5233 18.637L93.4973 18.663L93.4583 18.65ZM93.3673 18.702L93.3283 18.715L93.3153 18.676L93.3673 18.702ZM97.4309 8.315L97.3529 8.302L97.1449 8.367L96.9759 8.588L97.0149 8.952L96.9759 9.03L96.9629 9.186L96.9889 9.225L96.9629 9.316L96.9759 9.368L96.9239 9.446L96.9499 9.667L97.0019 9.745L96.8979 9.849L96.9239 9.966L96.8849 10.044L96.8719 10.304L96.9499 10.382L96.9629 10.434H96.8459V10.629L96.8719 10.72L96.8069 10.824L96.8199 10.876L96.8849 10.941L96.8199 11.058L96.8069 11.162L96.7419 11.305L96.8069 11.409L96.7679 11.487L96.7289 11.799L96.6899 11.838V12.163L96.5859 12.267V12.332L96.6639 12.436L96.5469 12.709L96.5859 12.748L96.6379 13.008L96.5469 13.047L96.4299 13.346L96.4689 13.45L96.4559 13.567L96.4169 13.606L96.4429 13.827L96.4299 13.931L96.3389 14.126L96.4169 14.23V14.282L96.3259 14.256L96.2739 14.269L96.2609 14.321L96.2869 14.36H96.3909L96.2609 14.516L96.2739 14.594L96.1959 14.737L96.2349 14.841L96.1959 14.919L96.2089 14.958L96.1309 15.049L96.1439 15.218L96.0529 15.335L96.1439 15.439L96.1049 15.543L96.1179 15.608L96.0009 15.712L96.0659 15.842L96.0529 15.894L96.1309 15.985L96.1049 16.024L96.0139 16.076L95.9749 16.154L95.9879 16.206L95.9229 16.297L95.8969 16.466L95.9879 16.635L95.8839 16.674L95.8709 16.713L95.8969 16.804L95.9359 16.843L95.9099 16.947L96.0139 16.973L96.1569 16.947L96.1699 16.986L96.1049 17.077L96.0529 17.09L95.9489 17.038L95.8579 17.051L95.8319 17.103L95.9229 17.233L95.8839 17.272L95.8969 17.428H95.8189L95.8059 17.571L95.8319 17.623L95.7929 17.805L95.8059 17.922L95.8969 18.104L95.9619 18.182L95.8839 18.26L95.8969 18.325L95.9359 18.351L96.3649 18.39L96.4299 18.442L96.4689 18.533L96.5209 18.52L96.5859 18.429L96.8459 18.299L96.7549 18.117L96.9109 17.805L97.0019 17.714V17.597L97.0279 17.558L97.1059 17.688V17.74L97.0019 17.818V17.883L97.0279 17.922L97.0799 17.935L97.2749 17.883L97.3139 17.896L97.3009 17.935L97.1709 18.039V18.117L97.2879 18.156L97.3269 18.13L97.3789 17.987L97.4829 18.013L97.5089 18.052L97.4959 18.156L97.4569 18.182L97.4049 18.169L97.3399 18.247L97.3529 18.299L97.3919 18.325L97.6129 18.208L97.7689 18.247L97.8209 18.143L97.8989 18.169L98.0289 18.117L98.0679 18.039L98.1589 18.091L98.2759 18.117L98.3539 18.065L98.4319 17.948H98.4839L98.6269 17.844L98.7309 17.831L98.7699 17.805L98.7829 17.714L98.9389 17.675L98.9909 17.701L99.0689 17.467L99.2119 17.428L99.2509 17.389L99.2639 17.298L99.3809 17.233L99.3679 17.103L99.4199 17.077H99.5629L99.6019 17.051V16.895H99.7449L99.8489 16.609V16.518L99.8879 16.479L99.9789 16.518H100.044L100.083 16.466L100.044 16.245L100.304 15.79L100.278 15.764L100.304 15.673L100.447 15.66L100.408 15.387L100.525 15.296L100.564 15.218L100.837 15.01H100.902V14.919L101.006 14.932L101.201 14.893L101.253 14.789L101.292 14.763L101.383 14.789L101.552 14.646L101.721 14.633L101.864 14.516H101.916L101.981 14.451L102.189 14.438L102.345 14.282L102.527 14.217L102.696 14.074L102.878 14.022L102.774 13.931V13.84L102.397 13.931L102.228 14.035L102.124 14.061L101.994 14.165L101.903 14.139L101.773 14.256L101.669 14.282L101.513 14.386L101.37 14.438L101.344 14.542L101.292 14.581L101.188 14.516L101.136 14.542L101.045 14.672L100.785 14.711L100.746 14.672L100.811 14.477L100.772 14.386L100.681 14.438L100.616 14.347L100.72 14.243V14.178L100.603 14.113L100.629 14.074L100.733 14.061L100.759 14.022L100.694 13.931L100.733 13.84L100.694 13.736L100.655 13.697V13.658L100.59 13.593L100.616 13.489L100.59 13.164L100.447 13.099L100.434 12.995L100.122 12.956L100.083 12.917L100.07 12.852L99.9919 12.787L99.9789 12.735L100.044 12.657L100.005 12.644L99.9399 12.709L99.8489 12.67L99.6149 12.657L99.5239 12.631L99.4459 12.683L99.3289 12.696L99.2509 12.761L99.1209 12.813L99.0559 12.8L98.9779 12.865L98.7569 12.969L98.7309 13.06L98.6789 13.073L98.5619 13.021L98.4189 13.268L98.2759 13.307L98.2239 13.424H98.1069L98.0679 13.45L98.0809 13.58L97.7949 13.671L97.7559 13.619L97.7819 13.58L97.9249 13.489V13.398H97.8079L97.8339 13.307L98.0549 13.333L98.1069 13.268L98.1849 13.021L98.1069 12.774L98.1979 12.631L98.1849 12.54L98.2889 12.527L98.3409 12.449L98.2629 12.384L98.1849 12.514L98.1459 12.488L98.1329 12.397L98.1979 12.254L98.1329 12.15L98.1979 12.098L98.2759 12.163L98.3279 12.124L98.3409 12.033L98.2369 11.838L98.2109 11.734L98.2629 11.643L98.1979 11.565L98.2499 11.344L98.3149 11.24L98.2629 11.175L98.3019 10.928L98.3799 10.785L98.3409 10.759L98.1849 10.746L98.1979 10.694L98.2499 10.655L98.3669 10.681L98.3929 10.629L98.3799 10.525L98.2499 10.33L98.2369 10.278L98.2629 10.174L98.3799 10.057L98.3539 10.005H98.2109V9.953L98.2629 9.862L98.2109 9.55L98.2239 9.394L98.1199 9.29L98.1849 9.238V9.134L98.0939 8.952L98.0809 8.835L97.9639 8.679L97.6649 8.445L97.4309 8.38V8.315ZM100.148 12.878L100.174 12.839L100.161 12.813H100.122L100.096 12.852L100.148 12.878ZM97.9509 13.008L97.9379 12.956L97.9899 12.943L98.0419 12.969L98.0549 13.021L98.0029 13.034L97.9509 13.008ZM99.4199 13.008L99.5499 13.112L99.6929 13.021L99.7839 13.06L99.8749 13.268L99.9529 13.346L99.9269 13.463L100.005 13.528L99.9789 13.593L100.07 13.775H99.9659L99.9269 13.814L100.005 14.009V14.074L99.9009 14.256L99.9919 14.36L99.9529 14.451V14.555L99.8489 14.568L99.8099 14.607L99.8619 14.737L99.8489 14.828L99.7319 14.841L99.6929 14.893L99.7449 14.958L99.7319 15.114L99.4589 15.322H99.3419L99.3029 15.413L99.1989 15.4L99.1469 15.426L99.1209 15.543L98.6659 15.738L98.6269 15.842L98.5229 15.803L98.4319 15.868L98.3669 15.959L98.2629 15.972L98.2109 16.037L98.1849 16.128L98.0809 16.154L97.9509 16.31L97.8469 16.349L97.7559 16.323L97.4699 16.375L97.4439 16.492L97.3659 16.453L97.3269 16.297L97.4179 16.336L97.4569 16.323L97.4829 16.271L97.4569 16.219L97.3659 16.18L97.4959 16.089L97.3789 16.05L97.3139 15.972L97.3009 15.92L97.4569 15.959L97.5089 15.933L97.5219 15.881L97.4959 15.829L97.4049 15.777L97.5089 15.478V15.374L97.6389 15.348L97.7039 15.283L97.6909 15.231L97.5349 15.127L97.6259 15.023V14.971L97.7169 14.906V14.789L97.8469 14.698L97.8729 14.646L97.7949 14.516L97.8469 14.36L97.8859 14.321L97.9899 14.282L98.0289 14.243L98.1199 13.97L98.2239 13.905V13.788L98.2759 13.736L98.3799 13.697L98.4449 13.554L98.5489 13.541L98.6139 13.476L98.6399 13.333L98.7699 13.32L98.8349 13.242H98.8869L98.9519 13.177L99.1729 13.047L99.2249 13.06L99.3679 13.008H99.4199ZM100.291 13.203L100.239 13.19L100.226 13.151L100.291 13.164V13.203ZM97.8989 13.177L97.8729 13.216L97.8469 13.177H97.8989ZM97.6389 13.957L97.6519 13.866L97.7039 13.853L97.6909 13.944L97.6389 13.957ZM97.4179 14.191V14.152L97.4699 14.139L97.4569 14.178L97.4179 14.191ZM100.2 14.763L100.252 14.737H100.356V14.776L100.317 14.815L100.226 14.802L100.2 14.763ZM99.9009 14.945V14.893L99.9399 14.919L99.9009 14.945ZM97.7299 15.036L97.7689 15.075V15.036H97.7299ZM97.1579 15.231V15.192L97.2489 15.166L97.2229 15.218L97.1579 15.231ZM97.6389 15.777L97.6909 15.751L97.7039 15.699L97.6259 15.582L97.5479 15.608L97.5219 15.66L97.5869 15.751L97.6389 15.777ZM99.6539 15.79L99.6929 15.777L99.7579 15.894L99.7449 15.946L99.7059 15.933L99.6669 15.842L99.6539 15.79ZM99.3809 15.946L99.3679 15.985L99.2899 15.998L99.2509 16.037L99.2639 16.141L99.1729 16.193L99.1339 16.284L99.1599 16.323L99.2639 16.349L99.2249 16.388H99.1079L99.0169 16.453V16.544L99.1209 16.557L99.1079 16.609L98.9779 16.661L98.9519 16.7L99.0039 16.752H98.9519L98.8479 16.817V16.882L98.7049 17.051L98.6659 17.142L98.5489 17.207L98.5229 17.298L98.4189 17.337L98.2629 17.493L98.1979 17.48L98.0419 17.571L97.8859 17.61L97.7819 17.714H97.7169L97.5349 17.61L97.4829 17.636L97.5089 17.688L97.4049 17.662L97.3919 17.623L97.4179 17.571L97.5089 17.584L97.4569 17.389L97.4179 17.363L97.3269 17.376L97.3399 17.324L97.3789 17.298L97.5999 17.272V17.103L97.7299 17.038L97.7169 16.973L97.7429 16.869L97.7299 16.765L97.8729 16.895L97.9639 16.83L98.0029 16.7L98.1069 16.609V16.531L98.1849 16.466L98.2629 16.505L98.3669 16.453L98.4969 16.31H98.5619L98.5879 16.193L98.6529 16.206L98.7699 16.18L98.9779 16.037L98.9909 15.959L99.1599 15.907L99.2249 15.842H99.2899L99.3809 15.907V15.946ZM96.6379 16.037L96.6899 15.985V16.063L96.6379 16.037ZM99.3419 16.206L99.3029 16.154L99.3549 16.167L99.3419 16.206ZM96.1309 16.453L96.1049 16.388L96.1829 16.414L96.1699 16.453H96.1309ZM97.0799 16.57L97.1059 16.531L97.1969 16.518L97.3659 16.57L97.3269 16.713L97.2359 16.778L97.1189 16.804L97.1839 16.726L97.1709 16.635L97.1319 16.596L97.0799 16.57ZM97.0279 16.947L97.0929 16.895V16.947H97.0279ZM96.3519 17.194L96.3649 17.142L96.4169 17.129L96.4559 17.168L96.4299 17.207L96.3649 17.22L96.3519 17.194ZM96.9889 17.22L97.0149 17.181H97.1059L97.1189 17.207L97.0669 17.376L97.0149 17.363L97.0019 17.272L96.9889 17.22ZM96.1569 17.636L96.1699 17.597L96.2089 17.584L96.2479 17.61V17.649L96.1959 17.675L96.1569 17.636Z" fill="white"/>
</g>
</g>
<defs>
<filter id="filter0_d_5_134" x="45.948" y="-21.763" width="86.9299" height="70.569" filterUnits="userSpaceOnUse" color-interpolation-filters="sRGB">
<feFlood flood-opacity="0" result="BackgroundImageFix"/>
<feColorMatrix in="SourceAlpha" type="matrix" values="0 0 0 0 0 0 0 0 0 0 0 0 0 0 0 0 0 0 127 0" result="hardAlpha"/>
<feOffset/>
<feGaussianBlur stdDeviation="15"/>
<feComposite in2="hardAlpha" operator="out"/>
<feColorMatrix type="matrix" values="0 0 0 0 0 0 0 0 0 0 0 0 0 0 0 0 0 0 1 0"/>
<feBlend mode="normal" in2="BackgroundImageFix" result="effect1_dropShadow_5_134"/>
<feBlend mode="normal" in="SourceGraphic" in2="effect1_dropShadow_5_134" result="shape"/>
</filter>
<clipPath id="clip0_5_134">
<rect width="113" height="27" rx="5" fill="white"/>
</clipPath>
</defs>
</svg>
