<svg width="122" height="27" viewBox="0 0 122 27" fill="none" xmlns="http://www.w3.org/2000/svg">
<rect x="0.938904" width="121" height="27" rx="5" fill="#171717"/>
<path d="M17.9689 7.605C16.9039 7.605 16.0189 7.905 15.0589 8.64C14.1139 9.36 13.9789 9.855 13.6789 11.295C13.6639 11.37 13.6189 11.4 13.5589 11.4C13.2739 11.415 12.8689 11.46 12.5389 11.49C12.4489 11.865 12.3439 12.33 12.2539 12.75C12.7039 12.75 13.1239 12.75 13.3789 12.75C12.9289 15.195 12.4039 17.79 11.8639 20.64C12.6289 20.64 13.3339 20.625 14.0389 20.595C14.6089 17.82 15.1489 15.135 15.6289 12.75C16.1989 12.75 17.0089 12.75 17.5339 12.75C17.6839 12.33 17.8039 11.805 17.8789 11.385C17.2939 11.385 16.5739 11.4 15.8839 11.4C16.0939 10.17 16.1839 9.675 16.3789 9.42C16.5289 9.21 16.7239 9.15 16.8589 9.15C17.3239 9.15 17.9539 9.495 18.1489 9.585C18.5539 9.33 19.0939 8.235 19.1239 7.845C18.9289 7.755 18.4789 7.605 17.9689 7.605ZM21.8292 16.62C21.7692 17.025 21.7242 17.46 21.7092 17.685C21.8142 17.895 22.1892 18.135 22.2642 18.135C23.0742 18.135 24.0342 17.985 24.7242 17.76C24.6942 17.355 24.6492 16.965 24.5742 16.575C24.1992 16.665 23.8842 16.71 23.7942 16.71C23.7342 16.71 23.6892 16.68 23.7042 16.62C23.9742 15.375 24.5292 13.035 24.9192 11.61C24.3492 11.415 23.7642 11.25 23.1642 11.085L22.7742 11.85H22.6992C22.2342 11.445 21.7092 11.25 21.1092 11.25C19.4442 11.25 18.2742 13.29 17.8692 14.445C17.6142 15.165 17.4792 15.99 17.4792 16.41C17.4792 16.71 17.5392 16.95 17.6592 17.19C17.8992 17.715 18.6192 18.12 18.9792 18.18C19.5642 18.165 20.4492 17.82 21.6792 16.575L21.8292 16.62ZM21.5592 12.66C21.8892 12.66 22.1892 12.825 22.3092 13.035C22.1742 13.65 21.9642 14.52 21.8892 14.76C21.7092 15.345 20.5542 16.53 20.1192 16.53C19.9242 16.53 19.8042 16.32 19.8042 16.035C19.8042 15.585 20.0142 14.745 20.3442 13.98C20.5842 13.41 21.0192 12.66 21.5592 12.66ZM27.2912 9.09C26.9162 11.055 25.9112 15.99 25.5962 17.505C25.7762 17.79 26.2412 18.135 26.3462 18.135C27.5162 18.135 28.4462 18.03 29.2862 17.835C29.2562 17.445 29.2112 17.04 29.1662 16.65C28.7012 16.74 28.2212 16.785 28.0262 16.785C27.9662 16.785 27.9512 16.725 27.9812 16.665C28.2212 15.495 29.5262 9.24 29.7662 8.115C29.6462 7.86 29.1812 7.5 29.0762 7.5C28.8662 7.5 27.7412 7.755 25.9262 7.89C25.9262 8.28 25.9262 8.685 25.9412 9.105L27.2912 9.09ZM32.9293 16.125C32.9293 15.78 33.1693 14.64 33.2893 14.025C33.3793 13.545 33.4993 13.05 33.5443 12.75C34.1893 12.765 35.0593 12.765 35.6443 12.765C35.7643 12.345 35.8693 11.82 35.9443 11.385C35.2843 11.4 34.5343 11.4 33.8293 11.4C33.9343 10.98 34.1593 9.885 34.2193 9.555C34.2343 9.51 34.2043 9.495 34.1743 9.495C33.8143 9.495 32.8093 9.645 31.9693 9.99C31.8643 10.35 31.7593 10.83 31.6393 11.28C31.6243 11.37 31.5643 11.4 31.5043 11.4C31.1593 11.43 30.7093 11.46 30.3343 11.49C30.2443 11.895 30.1693 12.345 30.0793 12.75C30.5443 12.75 31.0393 12.75 31.3093 12.75C31.2493 13.005 30.9793 14.355 30.8893 14.745C30.8293 15.075 30.5743 16.365 30.5743 16.71C30.5743 16.815 30.6043 16.98 30.6643 17.115C30.9193 17.7 31.6243 18.135 31.9993 18.135C32.9593 18.135 34.0543 17.955 35.1343 17.625C35.1493 17.25 35.1643 16.8 35.1493 16.395C34.5943 16.485 34.0843 16.56 33.4693 16.56C33.1243 16.56 32.9293 16.395 32.9293 16.125ZM35.9819 15.945C35.9819 17.34 37.1219 18.15 38.2319 18.15C39.7469 18.15 40.9919 17.745 41.9969 17.25C41.9069 16.86 41.8169 16.5 41.6969 16.14C40.7519 16.545 39.8069 16.695 39.2969 16.695C38.7269 16.695 38.3669 16.32 38.3669 15.795C38.3669 15.69 38.3819 15.48 38.4119 15.33C39.8669 15.345 40.9469 15.12 41.6819 14.745C42.1019 14.46 42.4769 13.785 42.5669 13.11C42.5369 12.27 41.8619 11.25 40.4069 11.25C39.5819 11.25 38.6219 11.475 37.6319 12.36C36.5219 13.35 35.9819 14.805 35.9819 15.945ZM39.7769 12.39C40.1369 12.39 40.3619 12.9 40.3619 13.32C40.3619 13.665 40.2119 13.83 39.9869 13.95C39.5819 14.175 39.0719 14.22 38.5469 14.205C38.6969 13.425 38.9069 13.005 39.1469 12.72C39.3719 12.465 39.5519 12.39 39.7769 12.39ZM44.4025 12.87C44.1475 14.25 43.6075 16.8 43.3675 18.015C44.1025 18.015 44.8225 18.015 45.5575 18C45.6925 17.37 45.9175 16.395 46.0525 15.87C46.2925 14.895 47.3875 13.59 48.0175 13.59C48.2125 13.59 48.7675 13.74 48.8875 13.8C49.1575 13.575 49.6075 12.27 49.6075 11.505C49.4725 11.415 49.0975 11.25 48.6625 11.25C48.1225 11.25 47.4925 11.94 46.4725 13.5L46.2925 13.455C46.4425 12.765 46.5775 12.105 46.6075 11.82C46.5025 11.61 46.0375 11.25 45.9325 11.25C45.7825 11.25 44.8225 11.505 43.3375 11.7C43.3225 12.105 43.3375 12.51 43.3375 12.915L44.4025 12.87ZM52.7819 17.475C52.7519 17.655 52.7219 17.835 52.6769 18.015C53.1719 18.015 53.7569 18 54.2969 18C54.8369 18 55.4369 18.015 55.9019 18.015C55.9619 17.835 56.0069 17.64 56.0219 17.475L54.6719 17.43L56.1269 8.88C56.1419 8.85 56.1419 8.835 56.1719 8.82L57.4019 8.775C57.4469 8.61 57.4919 8.415 57.5219 8.25C57.0419 8.25 56.4719 8.25 55.9469 8.25C55.3769 8.25 54.7619 8.25 54.2519 8.25C54.2219 8.415 54.1769 8.61 54.1469 8.775L55.3769 8.835L53.9519 17.355C53.9519 17.4 53.9219 17.43 53.8619 17.43L52.7819 17.475ZM58.9318 12.39C58.5268 14.205 57.9118 16.635 57.5818 18C57.8218 18 58.0618 18 58.2868 18C58.4518 17.4 58.9318 15.39 59.0818 14.865C59.3068 14.01 61.2118 12.345 62.2168 12.345C62.5918 12.345 62.7268 12.63 62.7268 12.96C62.7268 13.395 62.5768 14.025 62.4568 14.49C62.2318 15.33 61.7218 16.98 61.4668 17.715C61.5118 17.955 61.7368 18.135 61.7968 18.135C62.2318 18.135 62.9518 17.985 63.5218 17.79C63.4918 17.625 63.4618 17.46 63.4168 17.295C62.9068 17.46 62.4718 17.565 62.2768 17.565C62.2168 17.565 62.2018 17.52 62.2168 17.46C62.9368 15.51 63.4918 13.515 63.4918 12.81C63.4918 12.675 63.4768 12.525 63.4168 12.375C63.2218 11.985 62.8768 11.715 62.5018 11.64C61.8118 11.655 60.5668 12.24 59.3368 13.65L59.2468 13.62C59.4268 12.96 59.5918 12.315 59.7118 11.88C59.6368 11.76 59.4718 11.64 59.4118 11.64C59.3218 11.64 58.6318 11.865 57.6868 12.045C57.6868 12.195 57.7018 12.345 57.7168 12.51L58.9318 12.39ZM69.4204 12.33C69.0304 14.115 68.4304 16.77 68.1304 18C68.3554 18 68.5954 18 68.8204 18C68.9554 17.415 69.2704 16.05 69.3754 15.615C69.7354 14.265 71.2954 12.525 71.8804 12.525C72.0754 12.525 72.3304 12.6 72.4354 12.645C72.5554 12.6 72.8554 12.105 72.8554 11.835C72.7054 11.745 72.4654 11.64 72.1804 11.64C71.6404 11.64 70.6354 12.6 69.7804 13.875L69.6904 13.83C69.9154 12.915 70.0504 12.36 70.1554 11.91C70.1104 11.805 69.9454 11.64 69.8554 11.64C69.7954 11.64 69.0004 11.865 68.1754 12C68.1904 12.15 68.1904 12.315 68.2204 12.48L69.4204 12.33ZM72.753 16.515C72.753 17.625 73.653 18.15 74.373 18.15C75.273 18.15 76.353 17.625 77.148 17.1C77.088 16.95 77.013 16.8 76.938 16.665C76.143 17.13 75.198 17.535 74.583 17.535C73.893 17.535 73.518 17.115 73.518 16.35C73.518 16.02 73.623 15.42 73.758 15C75.018 15 76.053 14.88 76.908 14.445C77.343 14.205 77.628 13.59 77.703 13.155C77.688 12.42 77.163 11.64 76.218 11.64C75.453 11.64 74.808 12 74.118 12.825C73.143 13.995 72.753 15.66 72.753 16.515ZM76.023 12.24C76.653 12.24 76.923 12.705 76.923 13.215C76.923 13.65 76.623 13.905 76.248 14.085C75.678 14.37 74.793 14.505 73.908 14.49C74.148 13.77 74.448 13.305 74.703 12.975C75.033 12.555 75.468 12.24 76.023 12.24ZM82.2748 13.575C82.4398 13.575 82.6348 13.575 82.7848 13.56C82.8448 13.05 82.9048 12.495 82.9498 11.955C82.6948 11.79 82.1398 11.64 81.6448 11.64C81.1048 11.64 80.5948 11.7 80.1298 11.94C79.6198 12.195 79.0798 12.78 79.0798 13.485C79.0798 14.4 79.6798 14.73 80.5198 15.105C81.1798 15.42 81.6448 15.645 81.6448 16.35C81.6448 16.845 81.4648 17.145 81.1198 17.385C80.8498 17.55 80.4148 17.625 80.0548 17.625C79.6498 17.625 79.3048 17.55 79.1248 17.43C79.0648 17.4 79.0198 17.34 79.0198 17.265L78.9298 16.125C78.7798 16.125 78.5698 16.125 78.4048 16.155C78.3748 16.74 78.3448 17.325 78.3148 17.895C78.5098 18.015 79.0948 18.15 79.6348 18.15C80.4448 18.15 80.9398 18.075 81.3748 17.82C82.0198 17.46 82.3648 16.875 82.3648 16.215C82.3648 15.375 81.7948 14.955 80.8048 14.505C80.1148 14.19 79.7848 14.01 79.7848 13.38C79.7848 12.87 80.1148 12.525 80.4148 12.36C80.7148 12.21 81.0748 12.165 81.3148 12.165C81.7048 12.165 81.9748 12.255 82.1398 12.375C82.1998 12.405 82.2298 12.465 82.2298 12.54L82.2748 13.575ZM89.0772 13.74C89.0772 12.99 88.8372 12.435 88.4922 12.09C88.2072 11.805 87.7872 11.64 87.3072 11.64C86.7222 11.64 86.0622 11.805 85.3872 12.45C84.4572 13.35 83.8422 14.775 83.8422 16.215C83.8422 16.785 84.0372 17.28 84.2772 17.58C84.5322 17.895 84.9672 18.15 85.5972 18.15C86.4822 18.15 87.0972 17.82 87.6372 17.28C88.6572 16.245 89.0772 14.91 89.0772 13.74ZM85.8222 17.61C85.4472 17.61 85.1022 17.49 84.9072 17.175C84.7122 16.875 84.6222 16.53 84.6222 16.02C84.6222 14.79 85.1172 13.68 85.4922 13.155C85.9572 12.525 86.5122 12.195 87.0972 12.195C87.6072 12.195 87.8622 12.42 88.0272 12.705C88.2222 13.005 88.2972 13.335 88.2972 13.98C88.2972 14.925 87.9072 16.155 87.3222 16.83C86.9322 17.28 86.4222 17.61 85.8222 17.61ZM92.3199 8.31C91.8399 10.275 90.4449 16.215 90.0699 17.745C90.1749 17.94 90.4149 18.135 90.4749 18.135C90.8199 18.135 91.5999 18.045 92.3049 17.805C92.2899 17.64 92.2749 17.49 92.2299 17.31C91.6449 17.475 91.1199 17.565 90.9099 17.565C90.8499 17.565 90.8349 17.52 90.8499 17.46C91.2249 15.795 92.3949 10.995 93.1899 7.74C93.0849 7.62 92.9649 7.5 92.8599 7.5C92.7699 7.5 92.0199 7.755 90.8349 7.905C90.8349 8.055 90.8499 8.22 90.8799 8.385L92.3199 8.31ZM95.0252 12.375C94.5302 13.935 93.9302 16.215 93.9302 16.995C93.9302 17.265 93.9752 17.46 94.0952 17.61C94.3052 17.91 94.7102 18.135 94.9802 18.18C95.6252 18.165 96.6902 17.4 97.7852 16.215L97.8602 16.245C97.6952 16.935 97.5602 17.505 97.5152 17.73C97.6202 17.925 97.8302 18.12 97.9052 18.12C98.2502 18.12 98.8802 18.015 99.5252 17.745C99.4952 17.595 99.4652 17.445 99.4052 17.28C98.8352 17.475 98.4002 17.565 98.2652 17.565C98.2352 17.565 98.2052 17.52 98.2052 17.475C98.4752 16.11 99.3152 12.51 99.4652 11.79C99.2402 11.79 99.0002 11.79 98.7452 11.805C98.5652 12.645 98.1302 14.64 98.0102 15.09C97.8002 15.825 95.9702 17.505 95.1752 17.505C94.9052 17.505 94.6652 17.325 94.6652 16.89C94.6652 16.605 94.7252 16.155 94.8302 15.675C95.0102 14.82 95.5352 12.885 95.8502 11.955C95.8202 11.82 95.6702 11.64 95.5652 11.64C95.5052 11.64 94.8902 11.835 93.7802 12.03C93.7952 12.18 93.8102 12.33 93.8402 12.495L95.0252 12.375ZM101.8 16.86C101.8 16.44 102.115 15.015 102.265 14.34C102.37 13.83 102.61 12.84 102.715 12.375C103.6 12.39 104.38 12.375 105.055 12.375C105.1 12.21 105.145 12.015 105.16 11.79C104.41 11.805 103.615 11.805 102.85 11.805C102.985 11.175 103.12 10.62 103.225 10.14C103.225 10.11 103.21 10.095 103.18 10.095C103.09 10.095 102.775 10.155 102.55 10.29C102.415 10.74 102.28 11.28 102.16 11.7C102.145 11.76 102.085 11.805 102.04 11.805C101.695 11.82 101.32 11.835 100.96 11.865C100.915 12.03 100.885 12.21 100.855 12.375C101.23 12.375 101.65 12.375 102.01 12.375C101.905 12.84 101.725 13.56 101.605 14.115C101.515 14.535 101.035 16.53 101.035 16.995C101.035 17.07 101.05 17.145 101.065 17.22C101.245 17.82 101.845 18.12 102.265 18.12C102.685 18.12 103.585 17.97 104.32 17.67C104.305 17.52 104.275 17.34 104.245 17.205C103.585 17.4 102.865 17.535 102.52 17.535C102.085 17.535 101.8 17.34 101.8 16.86ZM105.316 16.515C105.316 17.625 106.216 18.15 106.936 18.15C107.836 18.15 108.916 17.625 109.711 17.1C109.651 16.95 109.576 16.8 109.501 16.665C108.706 17.13 107.761 17.535 107.146 17.535C106.456 17.535 106.081 17.115 106.081 16.35C106.081 16.02 106.186 15.42 106.321 15C107.581 15 108.616 14.88 109.471 14.445C109.906 14.205 110.191 13.59 110.266 13.155C110.251 12.42 109.726 11.64 108.781 11.64C108.016 11.64 107.371 12 106.681 12.825C105.706 13.995 105.316 15.66 105.316 16.515ZM108.586 12.24C109.216 12.24 109.486 12.705 109.486 13.215C109.486 13.65 109.186 13.905 108.811 14.085C108.241 14.37 107.356 14.505 106.471 14.49C106.711 13.77 107.011 13.305 107.266 12.975C107.596 12.555 108.031 12.24 108.586 12.24Z" fill="white"/>
</svg>
