<svg width="122" height="27" viewBox="0 0 122 27" fill="none" xmlns="http://www.w3.org/2000/svg">
<rect x="0.15686" width="121" height="27" rx="5" fill="#171717"/>
<path d="M17.1869 8.105C17.6969 8.105 18.1469 8.255 18.3419 8.345C18.3119 8.735 17.7719 9.83 17.3669 10.085C17.1719 9.995 16.5419 9.65 16.0769 9.65C15.9419 9.65 15.7469 9.71 15.5969 9.92C15.4019 10.175 15.3119 10.67 15.1019 11.9C15.7919 11.9 16.5119 11.885 17.0969 11.885C17.0219 12.305 16.9019 12.83 16.7519 13.25C16.2269 13.25 15.4169 13.25 14.8469 13.25C14.3669 15.635 13.8269 18.32 13.2569 21.095C12.5519 21.125 11.8469 21.14 11.0819 21.14C11.6219 18.29 12.1469 15.695 12.5969 13.25C12.3419 13.25 11.9219 13.25 11.4719 13.25C11.5619 12.83 11.6669 12.365 11.7569 11.99C12.0869 11.96 12.4919 11.915 12.7769 11.9C12.8369 11.9 12.8819 11.87 12.8969 11.795C13.1969 10.355 13.3319 9.86 14.2769 9.14C15.2369 8.405 16.1219 8.105 17.1869 8.105ZM21.0471 17.12L20.8971 17.075C19.6671 18.32 18.7821 18.665 18.1971 18.68C17.8371 18.62 17.1171 18.215 16.8771 17.69C16.7571 17.45 16.6971 17.21 16.6971 16.91C16.6971 16.49 16.8321 15.665 17.0871 14.945C17.4921 13.79 18.6621 11.75 20.3271 11.75C20.9271 11.75 21.4521 11.945 21.9171 12.35H21.9921L22.3821 11.585C22.9821 11.75 23.5671 11.915 24.1371 12.11C23.7471 13.535 23.1921 15.875 22.9221 17.12C22.9071 17.18 22.9521 17.21 23.0121 17.21C23.1021 17.21 23.4171 17.165 23.7921 17.075C23.8671 17.465 23.9121 17.855 23.9421 18.26C23.2521 18.485 22.2921 18.635 21.4821 18.635C21.4071 18.635 21.0321 18.395 20.9271 18.185C20.9421 17.96 20.9871 17.525 21.0471 17.12ZM20.7771 13.16C20.2371 13.16 19.8021 13.91 19.5621 14.48C19.2321 15.245 19.0221 16.085 19.0221 16.535C19.0221 16.82 19.1421 17.03 19.3371 17.03C19.7721 17.03 20.9271 15.845 21.1071 15.26C21.1821 15.02 21.3921 14.15 21.5271 13.535C21.4071 13.325 21.1071 13.16 20.7771 13.16ZM26.5091 9.59L25.1591 9.605C25.1441 9.185 25.1441 8.78 25.1441 8.39C26.9591 8.255 28.0841 8 28.2941 8C28.3991 8 28.8641 8.36 28.9841 8.615C28.7441 9.74 27.4391 15.995 27.1991 17.165C27.1691 17.225 27.1841 17.285 27.2441 17.285C27.4391 17.285 27.9191 17.24 28.3841 17.15C28.4291 17.54 28.4741 17.945 28.5041 18.335C27.6641 18.53 26.7341 18.635 25.5641 18.635C25.4591 18.635 24.9941 18.29 24.8141 18.005C25.1291 16.49 26.1341 11.555 26.5091 9.59ZM32.1473 16.625C32.1473 16.895 32.3423 17.06 32.6873 17.06C33.3023 17.06 33.8123 16.985 34.3673 16.895C34.3823 17.3 34.3673 17.75 34.3523 18.125C33.2723 18.455 32.1773 18.635 31.2173 18.635C30.8423 18.635 30.1373 18.2 29.8823 17.615C29.8223 17.48 29.7923 17.315 29.7923 17.21C29.7923 16.865 30.0473 15.575 30.1073 15.245C30.1973 14.855 30.4673 13.505 30.5273 13.25C30.2573 13.25 29.7623 13.25 29.2973 13.25C29.3873 12.845 29.4623 12.395 29.5523 11.99C29.9273 11.96 30.3773 11.93 30.7223 11.9C30.7823 11.9 30.8423 11.87 30.8573 11.78C30.9773 11.33 31.0823 10.85 31.1873 10.49C32.0273 10.145 33.0323 9.995 33.3923 9.995C33.4223 9.995 33.4523 10.01 33.4373 10.055C33.3773 10.385 33.1523 11.48 33.0473 11.9C33.7523 11.9 34.5023 11.9 35.1623 11.885C35.0873 12.32 34.9823 12.845 34.8623 13.265C34.2773 13.265 33.4073 13.265 32.7623 13.25C32.7173 13.55 32.5973 14.045 32.5073 14.525C32.3873 15.14 32.1473 16.28 32.1473 16.625ZM35.1999 16.445C35.1999 15.305 35.7399 13.85 36.8499 12.86C37.8399 11.975 38.7999 11.75 39.6249 11.75C41.0799 11.75 41.7549 12.77 41.7849 13.61C41.6949 14.285 41.3199 14.96 40.8999 15.245C40.1649 15.62 39.0849 15.845 37.6299 15.83C37.5999 15.98 37.5849 16.19 37.5849 16.295C37.5849 16.82 37.9449 17.195 38.5149 17.195C39.0249 17.195 39.9699 17.045 40.9149 16.64C41.0349 17 41.1249 17.36 41.2149 17.75C40.2099 18.245 38.9649 18.65 37.4499 18.65C36.3399 18.65 35.1999 17.84 35.1999 16.445ZM38.9949 12.89C38.7699 12.89 38.5899 12.965 38.3649 13.22C38.1249 13.505 37.9149 13.925 37.7649 14.705C38.2899 14.72 38.7999 14.675 39.2049 14.45C39.4299 14.33 39.5799 14.165 39.5799 13.82C39.5799 13.4 39.3549 12.89 38.9949 12.89ZM43.6205 13.37L42.5555 13.415C42.5555 13.01 42.5405 12.605 42.5555 12.2C44.0405 12.005 45.0005 11.75 45.1505 11.75C45.2555 11.75 45.7205 12.11 45.8255 12.32C45.7955 12.605 45.6605 13.265 45.5105 13.955L45.6905 14C46.7105 12.44 47.3405 11.75 47.8805 11.75C48.3155 11.75 48.6905 11.915 48.8255 12.005C48.8255 12.77 48.3755 14.075 48.1055 14.3C47.9855 14.24 47.4305 14.09 47.2355 14.09C46.6055 14.09 45.5105 15.395 45.2705 16.37C45.1355 16.895 44.9105 17.87 44.7755 18.5C44.0405 18.515 43.3205 18.515 42.5855 18.515C42.8255 17.3 43.3655 14.75 43.6205 13.37ZM51.9999 17.975L53.0799 17.93C53.1399 17.93 53.1699 17.9 53.1699 17.855L54.5949 9.335L53.3649 9.275C53.3949 9.11 53.4399 8.915 53.4699 8.75C53.9799 8.75 54.5949 8.75 55.1649 8.75C55.6899 8.75 56.2599 8.75 56.7399 8.75C56.7099 8.915 56.6649 9.11 56.6199 9.275L55.3899 9.32C55.3599 9.335 55.3599 9.35 55.3449 9.38L53.8899 17.93L55.2399 17.975C55.2249 18.14 55.1799 18.335 55.1199 18.515C54.6549 18.515 54.0549 18.5 53.5149 18.5C52.9749 18.5 52.3899 18.515 51.8949 18.515C51.9399 18.335 51.9699 18.155 51.9999 17.975ZM58.1498 12.89L56.9348 13.01C56.9198 12.845 56.9048 12.695 56.9048 12.545C57.8498 12.365 58.5398 12.14 58.6298 12.14C58.6898 12.14 58.8548 12.26 58.9298 12.38C58.8098 12.815 58.6448 13.46 58.4648 14.12L58.5548 14.15C59.7848 12.74 61.0298 12.155 61.7198 12.14C62.0948 12.215 62.4398 12.485 62.6348 12.875C62.6948 13.025 62.7098 13.175 62.7098 13.31C62.7098 14.015 62.1548 16.01 61.4348 17.96C61.4198 18.02 61.4348 18.065 61.4948 18.065C61.6898 18.065 62.1248 17.96 62.6348 17.795C62.6798 17.96 62.7098 18.125 62.7398 18.29C62.1698 18.485 61.4498 18.635 61.0148 18.635C60.9548 18.635 60.7298 18.455 60.6848 18.215C60.9398 17.48 61.4498 15.83 61.6748 14.99C61.7948 14.525 61.9448 13.895 61.9448 13.46C61.9448 13.13 61.8098 12.845 61.4348 12.845C60.4298 12.845 58.5248 14.51 58.2998 15.365C58.1498 15.89 57.6698 17.9 57.5048 18.5C57.2798 18.5 57.0398 18.5 56.7998 18.5C57.1298 17.135 57.7448 14.705 58.1498 12.89ZM68.6384 12.83L67.4384 12.98C67.4084 12.815 67.4084 12.65 67.3934 12.5C68.2184 12.365 69.0134 12.14 69.0734 12.14C69.1634 12.14 69.3284 12.305 69.3734 12.41C69.2684 12.86 69.1334 13.415 68.9084 14.33L68.9984 14.375C69.8534 13.1 70.8584 12.14 71.3984 12.14C71.6834 12.14 71.9234 12.245 72.0734 12.335C72.0734 12.605 71.7734 13.1 71.6534 13.145C71.5484 13.1 71.2934 13.025 71.0984 13.025C70.5134 13.025 68.9534 14.765 68.5934 16.115C68.4884 16.55 68.1734 17.915 68.0384 18.5C67.8134 18.5 67.5734 18.5 67.3484 18.5C67.6484 17.27 68.2484 14.615 68.6384 12.83ZM71.971 17.015C71.971 16.16 72.361 14.495 73.336 13.325C74.026 12.5 74.671 12.14 75.436 12.14C76.381 12.14 76.906 12.92 76.921 13.655C76.846 14.09 76.561 14.705 76.126 14.945C75.271 15.38 74.236 15.5 72.976 15.5C72.841 15.92 72.736 16.52 72.736 16.85C72.736 17.615 73.111 18.035 73.801 18.035C74.416 18.035 75.361 17.63 76.156 17.165C76.231 17.3 76.306 17.45 76.366 17.6C75.571 18.125 74.491 18.65 73.591 18.65C72.871 18.65 71.971 18.125 71.971 17.015ZM75.241 12.74C74.686 12.74 74.251 13.055 73.921 13.475C73.666 13.805 73.366 14.27 73.126 14.99C74.011 15.005 74.896 14.87 75.466 14.585C75.841 14.405 76.141 14.15 76.141 13.715C76.141 13.205 75.871 12.74 75.241 12.74ZM81.4928 14.075L81.4478 13.04C81.4478 12.965 81.4178 12.905 81.3578 12.875C81.1928 12.755 80.9228 12.665 80.5328 12.665C80.2928 12.665 79.9328 12.71 79.6328 12.86C79.3328 13.025 79.0028 13.37 79.0028 13.88C79.0028 14.51 79.3328 14.69 80.0228 15.005C81.0128 15.455 81.5828 15.875 81.5828 16.715C81.5828 17.375 81.2378 17.96 80.5928 18.32C80.1578 18.575 79.6628 18.65 78.8528 18.65C78.3128 18.65 77.7278 18.515 77.5328 18.395C77.5628 17.825 77.5928 17.24 77.6228 16.655C77.7878 16.625 77.9978 16.625 78.1478 16.625L78.2378 17.765C78.2378 17.84 78.2828 17.9 78.3428 17.93C78.5228 18.05 78.8678 18.125 79.2728 18.125C79.6328 18.125 80.0678 18.05 80.3378 17.885C80.6828 17.645 80.8628 17.345 80.8628 16.85C80.8628 16.145 80.3978 15.92 79.7378 15.605C78.8978 15.23 78.2978 14.9 78.2978 13.985C78.2978 13.28 78.8378 12.695 79.3478 12.44C79.8128 12.2 80.3228 12.14 80.8628 12.14C81.3578 12.14 81.9128 12.29 82.1678 12.455C82.1228 12.995 82.0628 13.55 82.0028 14.06C81.8528 14.075 81.6578 14.075 81.4928 14.075ZM88.2952 14.24C88.2952 15.41 87.8752 16.745 86.8552 17.78C86.3152 18.32 85.7002 18.65 84.8152 18.65C84.1852 18.65 83.7502 18.395 83.4952 18.08C83.2552 17.78 83.0602 17.285 83.0602 16.715C83.0602 15.275 83.6752 13.85 84.6052 12.95C85.2802 12.305 85.9402 12.14 86.5252 12.14C87.0052 12.14 87.4252 12.305 87.7102 12.59C88.0552 12.935 88.2952 13.49 88.2952 14.24ZM85.0402 18.11C85.6402 18.11 86.1502 17.78 86.5402 17.33C87.1252 16.655 87.5152 15.425 87.5152 14.48C87.5152 13.835 87.4402 13.505 87.2452 13.205C87.0802 12.92 86.8252 12.695 86.3152 12.695C85.7302 12.695 85.1752 13.025 84.7102 13.655C84.3352 14.18 83.8402 15.29 83.8402 16.52C83.8402 17.03 83.9302 17.375 84.1252 17.675C84.3202 17.99 84.6652 18.11 85.0402 18.11ZM91.5379 8.81L90.0979 8.885C90.0679 8.72 90.0529 8.555 90.0529 8.405C91.2379 8.255 91.9879 8 92.0779 8C92.1829 8 92.3029 8.12 92.4079 8.24C91.6129 11.495 90.4429 16.295 90.0679 17.96C90.0529 18.02 90.0679 18.065 90.1279 18.065C90.3379 18.065 90.8629 17.975 91.4479 17.81C91.4929 17.99 91.5079 18.14 91.5229 18.305C90.8179 18.545 90.0379 18.635 89.6929 18.635C89.6329 18.635 89.3929 18.44 89.2879 18.245C89.6629 16.715 91.0579 10.775 91.5379 8.81ZM94.2431 12.875L93.0581 12.995C93.0281 12.83 93.0131 12.68 92.9981 12.53C94.1081 12.335 94.7231 12.14 94.7831 12.14C94.8881 12.14 95.0381 12.32 95.0681 12.455C94.7531 13.385 94.2281 15.32 94.0481 16.175C93.9431 16.655 93.8831 17.105 93.8831 17.39C93.8831 17.825 94.1231 18.005 94.3931 18.005C95.1881 18.005 97.0181 16.325 97.2281 15.59C97.3481 15.14 97.7831 13.145 97.9631 12.305C98.2181 12.29 98.4581 12.29 98.6831 12.29C98.5331 13.01 97.6931 16.61 97.4231 17.975C97.4231 18.02 97.4531 18.065 97.4831 18.065C97.6181 18.065 98.0531 17.975 98.6231 17.78C98.6831 17.945 98.7131 18.095 98.7431 18.245C98.0981 18.515 97.4681 18.62 97.1231 18.62C97.0481 18.62 96.8381 18.425 96.7331 18.23C96.7781 18.005 96.9131 17.435 97.0781 16.745L97.0031 16.715C95.9081 17.9 94.8431 18.665 94.1981 18.68C93.9281 18.635 93.5231 18.41 93.3131 18.11C93.1931 17.96 93.1481 17.765 93.1481 17.495C93.1481 16.715 93.7481 14.435 94.2431 12.875ZM101.018 17.36C101.018 17.84 101.303 18.035 101.738 18.035C102.083 18.035 102.803 17.9 103.463 17.705C103.493 17.84 103.523 18.02 103.538 18.17C102.803 18.47 101.903 18.62 101.483 18.62C101.063 18.62 100.463 18.32 100.283 17.72C100.268 17.645 100.253 17.57 100.253 17.495C100.253 17.03 100.733 15.035 100.823 14.615C100.943 14.06 101.123 13.34 101.228 12.875C100.868 12.875 100.448 12.875 100.073 12.875C100.103 12.71 100.133 12.53 100.178 12.365C100.538 12.335 100.913 12.32 101.258 12.305C101.303 12.305 101.363 12.26 101.378 12.2C101.498 11.78 101.633 11.24 101.768 10.79C101.993 10.655 102.308 10.595 102.398 10.595C102.428 10.595 102.443 10.61 102.443 10.64C102.338 11.12 102.203 11.675 102.068 12.305C102.833 12.305 103.628 12.305 104.378 12.29C104.363 12.515 104.318 12.71 104.273 12.875C103.598 12.875 102.818 12.89 101.933 12.875C101.828 13.34 101.588 14.33 101.483 14.84C101.333 15.515 101.018 16.94 101.018 17.36ZM104.534 17.015C104.534 16.16 104.924 14.495 105.899 13.325C106.589 12.5 107.234 12.14 107.999 12.14C108.944 12.14 109.469 12.92 109.484 13.655C109.409 14.09 109.124 14.705 108.689 14.945C107.834 15.38 106.799 15.5 105.539 15.5C105.404 15.92 105.299 16.52 105.299 16.85C105.299 17.615 105.674 18.035 106.364 18.035C106.979 18.035 107.924 17.63 108.719 17.165C108.794 17.3 108.869 17.45 108.929 17.6C108.134 18.125 107.054 18.65 106.154 18.65C105.434 18.65 104.534 18.125 104.534 17.015ZM107.804 12.74C107.249 12.74 106.814 13.055 106.484 13.475C106.229 13.805 105.929 14.27 105.689 14.99C106.574 15.005 107.459 14.87 108.029 14.585C108.404 14.405 108.704 14.15 108.704 13.715C108.704 13.205 108.434 12.74 107.804 12.74Z" fill="white"/>
</svg>
