<svg width="28" height="27" viewBox="0 0 28 27" fill="none" xmlns="http://www.w3.org/2000/svg">
<path d="M20.0997 14.7721C19.9245 15.6734 18.5296 16.6611 16.9276 16.8523C16.0927 16.952 15.27 17.044 14.3929 17.0031C12.959 16.9373 11.8269 16.6611 11.8269 16.6611C11.8269 16.8005 11.8358 16.9334 11.8525 17.0575C12.0391 18.4734 13.2563 18.5578 14.4095 18.5981C15.573 18.6377 16.6086 18.3104 16.6086 18.3104L16.6572 19.3627C16.6572 19.3627 15.8428 19.7999 14.3929 19.8805C13.5938 19.9239 12.601 19.86 11.4446 19.5544C8.93675 18.8902 8.50524 16.2175 8.43939 13.5044C8.41958 12.6989 8.43172 11.9401 8.43172 11.3053C8.43172 8.53089 10.2492 7.71838 10.2492 7.71838C11.1652 7.29774 12.7372 7.12066 14.3725 7.10724H14.4121C16.0467 7.12002 17.6199 7.29774 18.536 7.71838C18.536 7.71838 20.3535 8.53153 20.3535 11.3047C20.3535 11.3047 20.3765 13.351 20.0997 14.7721ZM18.21 11.5201C18.21 10.8335 18.0355 10.2882 17.6845 9.88486C17.322 9.48148 16.8483 9.27436 16.2596 9.27436C15.5788 9.27436 15.0635 9.53646 14.7221 10.0594L14.391 10.6155L14.0592 10.0594C13.7185 9.53646 13.2032 9.27436 12.5224 9.27436C11.9336 9.27436 11.4593 9.48148 11.0975 9.88486C10.7465 10.2882 10.572 10.8335 10.572 11.5201V14.8782H11.9023V11.6186C11.9023 10.9313 12.1913 10.5829 12.7698 10.5829C13.4091 10.5829 13.7293 10.9966 13.7293 11.8148V13.5984H15.0526V11.8148C15.0526 10.9966 15.3723 10.5829 16.0115 10.5829C16.5901 10.5829 16.8797 10.9313 16.8797 11.6186V14.8788H18.2093V11.5195L18.21 11.5201Z" fill="#605CED"/>
<rect x="1.14099" y="0.25" width="26.5" height="26.5" rx="4.75" stroke="black" stroke-width="0.5"/>
</svg>
