<svg width="80" height="27" viewBox="0 0 80 27" fill="none" xmlns="http://www.w3.org/2000/svg">
<rect x="0.25" y="0.25" width="78.6701" height="26.5" rx="4.75" fill="black"/>
<rect x="0.25" y="0.25" width="78.6701" height="26.5" rx="4.75" stroke="black" stroke-width="0.5"/>
<path d="M15 10.09C15.18 10.075 15.39 10.06 15.555 10.045C15.63 9.37 15.705 8.68 15.765 8.005C15.45 7.765 14.715 7.6 13.995 7.6C13.155 7.6 12.36 7.81 11.76 8.215C11.13 8.635 10.56 9.415 10.56 10.345C10.56 11.41 11.22 11.965 12.36 12.595C13.575 13.255 14.355 13.675 14.355 14.77C14.355 15.46 14.1 16.045 13.68 16.435C13.215 16.855 12.525 17.065 11.655 17.065C11.055 17.065 10.47 16.945 10.185 16.735C10.14 16.705 10.095 16.645 10.11 16.54L10.14 14.965C9.945 14.95 9.75 14.95 9.57 14.98C9.48 15.715 9.405 16.465 9.315 17.215C9.81 17.485 10.725 17.65 11.475 17.65C12.525 17.65 13.41 17.425 14.055 16.885C14.655 16.36 15.09 15.67 15.09 14.635C15.09 13.54 14.52 12.94 13.2 12.22C11.865 11.5 11.295 11.275 11.295 10.255C11.295 9.49 11.655 9.025 12.045 8.695C12.48 8.305 13.08 8.185 13.71 8.185C14.265 8.185 14.745 8.275 14.94 8.5C14.97 8.545 15 8.62 15 8.71V10.09ZM18.0677 11.875C17.5727 13.435 16.9727 15.715 16.9727 16.495C16.9727 16.765 17.0177 16.96 17.1377 17.11C17.3477 17.41 17.7527 17.635 18.0227 17.68C18.6677 17.665 19.7327 16.9 20.8277 15.715L20.9027 15.745C20.7377 16.435 20.6027 17.005 20.5577 17.23C20.6627 17.425 20.8727 17.62 20.9477 17.62C21.2927 17.62 21.9227 17.515 22.5677 17.245C22.5377 17.095 22.5077 16.945 22.4477 16.78C21.8777 16.975 21.4427 17.065 21.3077 17.065C21.2777 17.065 21.2477 17.02 21.2477 16.975C21.5177 15.61 22.3577 12.01 22.5077 11.29C22.2827 11.29 22.0427 11.29 21.7877 11.305C21.6077 12.145 21.1727 14.14 21.0527 14.59C20.8427 15.325 19.0127 17.005 18.2177 17.005C17.9477 17.005 17.7077 16.825 17.7077 16.39C17.7077 16.105 17.7677 15.655 17.8727 15.175C18.0527 14.32 18.5777 12.385 18.8927 11.455C18.8627 11.32 18.7127 11.14 18.6077 11.14C18.5477 11.14 17.9327 11.335 16.8227 11.53C16.8377 11.68 16.8527 11.83 16.8827 11.995L18.0677 11.875ZM25.174 13.39C25.339 12.67 25.504 11.905 25.624 11.395C25.579 11.29 25.384 11.14 25.309 11.14C25.234 11.14 24.799 11.305 23.644 11.485C23.644 11.635 23.644 11.8 23.644 11.965L24.889 11.86C24.364 14.575 23.614 18.22 23.059 20.98C23.299 20.98 23.539 20.98 23.764 20.965C24.019 19.75 24.334 18.235 24.574 17.035C25.024 17.47 25.549 17.65 26.014 17.65C27.139 17.65 27.964 16.885 28.444 16.12C29.134 14.98 29.434 13.525 29.434 12.415C29.434 12.235 29.404 12.04 29.329 11.875C29.149 11.47 28.729 11.17 28.414 11.125C27.364 11.14 26.389 11.95 25.309 13.42L25.174 13.39ZM28.684 12.565C28.684 13.51 28.489 14.665 28.009 15.64C27.679 16.33 27.049 17.08 26.074 17.08C25.624 17.08 25.024 16.795 24.694 16.33C24.769 16 24.949 15.04 25.009 14.815C25.324 13.81 27.094 11.785 28.114 11.785C28.504 11.785 28.684 12.16 28.684 12.565ZM31.9855 13.39C32.1505 12.67 32.3155 11.905 32.4355 11.395C32.3905 11.29 32.1955 11.14 32.1205 11.14C32.0455 11.14 31.6105 11.305 30.4555 11.485C30.4555 11.635 30.4555 11.8 30.4555 11.965L31.7005 11.86C31.1755 14.575 30.4255 18.22 29.8705 20.98C30.1105 20.98 30.3505 20.98 30.5755 20.965C30.8305 19.75 31.1455 18.235 31.3855 17.035C31.8355 17.47 32.3605 17.65 32.8255 17.65C33.9505 17.65 34.7755 16.885 35.2555 16.12C35.9455 14.98 36.2455 13.525 36.2455 12.415C36.2455 12.235 36.2155 12.04 36.1405 11.875C35.9605 11.47 35.5405 11.17 35.2255 11.125C34.1755 11.14 33.2005 11.95 32.1205 13.42L31.9855 13.39ZM35.4955 12.565C35.4955 13.51 35.3005 14.665 34.8205 15.64C34.4905 16.33 33.8605 17.08 32.8855 17.08C32.4355 17.08 31.8355 16.795 31.5055 16.33C31.5805 16 31.7605 15.04 31.8205 14.815C32.1355 13.81 33.9055 11.785 34.9255 11.785C35.3155 11.785 35.4955 12.16 35.4955 12.565ZM42.442 13.24C42.442 12.49 42.202 11.935 41.857 11.59C41.572 11.305 41.152 11.14 40.672 11.14C40.087 11.14 39.427 11.305 38.752 11.95C37.822 12.85 37.207 14.275 37.207 15.715C37.207 16.285 37.402 16.78 37.642 17.08C37.897 17.395 38.332 17.65 38.962 17.65C39.847 17.65 40.462 17.32 41.002 16.78C42.022 15.745 42.442 14.41 42.442 13.24ZM39.187 17.11C38.812 17.11 38.467 16.99 38.272 16.675C38.077 16.375 37.987 16.03 37.987 15.52C37.987 14.29 38.482 13.18 38.857 12.655C39.322 12.025 39.877 11.695 40.462 11.695C40.972 11.695 41.227 11.92 41.392 12.205C41.587 12.505 41.662 12.835 41.662 13.48C41.662 14.425 41.272 15.655 40.687 16.33C40.297 16.78 39.787 17.11 39.187 17.11ZM45.0362 11.83C44.6462 13.615 44.0462 16.27 43.7462 17.5C43.9712 17.5 44.2112 17.5 44.4362 17.5C44.5712 16.915 44.8862 15.55 44.9912 15.115C45.3512 13.765 46.9112 12.025 47.4962 12.025C47.6912 12.025 47.9462 12.1 48.0512 12.145C48.1712 12.1 48.4712 11.605 48.4712 11.335C48.3212 11.245 48.0812 11.14 47.7962 11.14C47.2562 11.14 46.2512 12.1 45.3962 13.375L45.3062 13.33C45.5312 12.415 45.6662 11.86 45.7712 11.41C45.7262 11.305 45.5612 11.14 45.4712 11.14C45.4112 11.14 44.6162 11.365 43.7912 11.5C43.8062 11.65 43.8062 11.815 43.8362 11.98L45.0362 11.83ZM50.0379 16.36C50.0379 15.94 50.3529 14.515 50.5029 13.84C50.6079 13.33 50.8479 12.34 50.9529 11.875C51.8379 11.89 52.6179 11.875 53.2929 11.875C53.3379 11.71 53.3829 11.515 53.3979 11.29C52.6479 11.305 51.8529 11.305 51.0879 11.305C51.2229 10.675 51.3579 10.12 51.4629 9.64C51.4629 9.61 51.4479 9.595 51.4179 9.595C51.3279 9.595 51.0129 9.655 50.7879 9.79C50.6529 10.24 50.5179 10.78 50.3979 11.2C50.3829 11.26 50.3229 11.305 50.2779 11.305C49.9329 11.32 49.5579 11.335 49.1979 11.365C49.1529 11.53 49.1229 11.71 49.0929 11.875C49.4679 11.875 49.8879 11.875 50.2479 11.875C50.1429 12.34 49.9629 13.06 49.8429 13.615C49.7529 14.035 49.2729 16.03 49.2729 16.495C49.2729 16.57 49.2879 16.645 49.3029 16.72C49.4829 17.32 50.0829 17.62 50.5029 17.62C50.9229 17.62 51.8229 17.47 52.5579 17.17C52.5429 17.02 52.5129 16.84 52.4829 16.705C51.8229 16.9 51.1029 17.035 50.7579 17.035C50.3229 17.035 50.0379 16.84 50.0379 16.36Z" fill="white"/>
<path d="M65.7711 17.5678C65.3769 17.9007 64.7932 17.9007 64.399 17.5678C62.5333 15.9921 60 14.0785 60 11.6315C60 10.0604 61.2306 8.83502 62.7968 8.83502C63.6816 8.83502 64.5308 9.24686 65.085 9.89259C65.6393 9.24686 66.4885 8.83502 67.3733 8.83502C68.9395 8.83502 70.1701 10.0604 70.1701 11.6315C70.1701 14.0785 67.6368 15.9921 65.7711 17.5678Z" fill="white"/>
</svg>
