<svg width="80" height="27" viewBox="0 0 80 27" fill="none" xmlns="http://www.w3.org/2000/svg">
<path d="M15.782 10.09C15.962 10.075 16.172 10.06 16.337 10.045C16.412 9.37 16.487 8.68 16.547 8.005C16.232 7.765 15.497 7.6 14.777 7.6C13.937 7.6 13.142 7.81 12.542 8.215C11.912 8.635 11.342 9.415 11.342 10.345C11.342 11.41 12.002 11.965 13.142 12.595C14.357 13.255 15.137 13.675 15.137 14.77C15.137 15.46 14.882 16.045 14.462 16.435C13.997 16.855 13.307 17.065 12.437 17.065C11.837 17.065 11.252 16.945 10.967 16.735C10.922 16.705 10.877 16.645 10.892 16.54L10.922 14.965C10.727 14.95 10.532 14.95 10.352 14.98C10.262 15.715 10.187 16.465 10.097 17.215C10.592 17.485 11.507 17.65 12.257 17.65C13.307 17.65 14.192 17.425 14.837 16.885C15.437 16.36 15.872 15.67 15.872 14.635C15.872 13.54 15.302 12.94 13.982 12.22C12.647 11.5 12.077 11.275 12.077 10.255C12.077 9.49 12.437 9.025 12.827 8.695C13.262 8.305 13.862 8.185 14.492 8.185C15.047 8.185 15.527 8.275 15.722 8.5C15.752 8.545 15.782 8.62 15.782 8.71V10.09ZM18.8498 11.875C18.3548 13.435 17.7548 15.715 17.7548 16.495C17.7548 16.765 17.7998 16.96 17.9198 17.11C18.1298 17.41 18.5348 17.635 18.8048 17.68C19.4498 17.665 20.5148 16.9 21.6098 15.715L21.6848 15.745C21.5198 16.435 21.3848 17.005 21.3398 17.23C21.4448 17.425 21.6548 17.62 21.7298 17.62C22.0748 17.62 22.7048 17.515 23.3498 17.245C23.3198 17.095 23.2898 16.945 23.2298 16.78C22.6598 16.975 22.2248 17.065 22.0898 17.065C22.0598 17.065 22.0298 17.02 22.0298 16.975C22.2998 15.61 23.1398 12.01 23.2898 11.29C23.0648 11.29 22.8248 11.29 22.5698 11.305C22.3898 12.145 21.9548 14.14 21.8348 14.59C21.6248 15.325 19.7948 17.005 18.9998 17.005C18.7298 17.005 18.4898 16.825 18.4898 16.39C18.4898 16.105 18.5498 15.655 18.6548 15.175C18.8348 14.32 19.3598 12.385 19.6748 11.455C19.6448 11.32 19.4948 11.14 19.3898 11.14C19.3298 11.14 18.7148 11.335 17.6048 11.53C17.6198 11.68 17.6348 11.83 17.6648 11.995L18.8498 11.875ZM25.956 13.39C26.121 12.67 26.286 11.905 26.406 11.395C26.361 11.29 26.166 11.14 26.091 11.14C26.016 11.14 25.581 11.305 24.426 11.485C24.426 11.635 24.426 11.8 24.426 11.965L25.671 11.86C25.146 14.575 24.396 18.22 23.841 20.98C24.081 20.98 24.321 20.98 24.546 20.965C24.801 19.75 25.116 18.235 25.356 17.035C25.806 17.47 26.331 17.65 26.796 17.65C27.921 17.65 28.746 16.885 29.226 16.12C29.916 14.98 30.216 13.525 30.216 12.415C30.216 12.235 30.186 12.04 30.111 11.875C29.931 11.47 29.511 11.17 29.196 11.125C28.146 11.14 27.171 11.95 26.091 13.42L25.956 13.39ZM29.466 12.565C29.466 13.51 29.271 14.665 28.791 15.64C28.461 16.33 27.831 17.08 26.856 17.08C26.406 17.08 25.806 16.795 25.476 16.33C25.551 16 25.731 15.04 25.791 14.815C26.106 13.81 27.876 11.785 28.896 11.785C29.286 11.785 29.466 12.16 29.466 12.565ZM32.7676 13.39C32.9326 12.67 33.0976 11.905 33.2176 11.395C33.1726 11.29 32.9776 11.14 32.9026 11.14C32.8276 11.14 32.3926 11.305 31.2376 11.485C31.2376 11.635 31.2376 11.8 31.2376 11.965L32.4826 11.86C31.9576 14.575 31.2076 18.22 30.6526 20.98C30.8926 20.98 31.1326 20.98 31.3576 20.965C31.6126 19.75 31.9276 18.235 32.1676 17.035C32.6176 17.47 33.1426 17.65 33.6076 17.65C34.7326 17.65 35.5576 16.885 36.0376 16.12C36.7276 14.98 37.0276 13.525 37.0276 12.415C37.0276 12.235 36.9976 12.04 36.9226 11.875C36.7426 11.47 36.3226 11.17 36.0076 11.125C34.9576 11.14 33.9826 11.95 32.9026 13.42L32.7676 13.39ZM36.2776 12.565C36.2776 13.51 36.0826 14.665 35.6026 15.64C35.2726 16.33 34.6426 17.08 33.6676 17.08C33.2176 17.08 32.6176 16.795 32.2876 16.33C32.3626 16 32.5426 15.04 32.6026 14.815C32.9176 13.81 34.6876 11.785 35.7076 11.785C36.0976 11.785 36.2776 12.16 36.2776 12.565ZM43.2241 13.24C43.2241 12.49 42.9841 11.935 42.6391 11.59C42.3541 11.305 41.9341 11.14 41.4541 11.14C40.8691 11.14 40.2091 11.305 39.5341 11.95C38.6041 12.85 37.9891 14.275 37.9891 15.715C37.9891 16.285 38.1841 16.78 38.4241 17.08C38.6791 17.395 39.1141 17.65 39.7441 17.65C40.6291 17.65 41.2441 17.32 41.7841 16.78C42.8041 15.745 43.2241 14.41 43.2241 13.24ZM39.9691 17.11C39.5941 17.11 39.2491 16.99 39.0541 16.675C38.8591 16.375 38.7691 16.03 38.7691 15.52C38.7691 14.29 39.2641 13.18 39.6391 12.655C40.1041 12.025 40.6591 11.695 41.2441 11.695C41.7541 11.695 42.0091 11.92 42.1741 12.205C42.3691 12.505 42.4441 12.835 42.4441 13.48C42.4441 14.425 42.0541 15.655 41.4691 16.33C41.0791 16.78 40.5691 17.11 39.9691 17.11ZM45.8183 11.83C45.4283 13.615 44.8283 16.27 44.5283 17.5C44.7533 17.5 44.9933 17.5 45.2183 17.5C45.3533 16.915 45.6683 15.55 45.7733 15.115C46.1333 13.765 47.6933 12.025 48.2783 12.025C48.4733 12.025 48.7283 12.1 48.8333 12.145C48.9533 12.1 49.2533 11.605 49.2533 11.335C49.1033 11.245 48.8633 11.14 48.5783 11.14C48.0383 11.14 47.0333 12.1 46.1783 13.375L46.0883 13.33C46.3133 12.415 46.4483 11.86 46.5533 11.41C46.5083 11.305 46.3433 11.14 46.2533 11.14C46.1933 11.14 45.3983 11.365 44.5733 11.5C44.5883 11.65 44.5883 11.815 44.6183 11.98L45.8183 11.83ZM50.8199 16.36C50.8199 15.94 51.1349 14.515 51.2849 13.84C51.3899 13.33 51.6299 12.34 51.7349 11.875C52.6199 11.89 53.3999 11.875 54.0749 11.875C54.1199 11.71 54.1649 11.515 54.1799 11.29C53.4299 11.305 52.6349 11.305 51.8699 11.305C52.0049 10.675 52.1399 10.12 52.2449 9.64C52.2449 9.61 52.2299 9.595 52.1999 9.595C52.1099 9.595 51.7949 9.655 51.5699 9.79C51.4349 10.24 51.2999 10.78 51.1799 11.2C51.1649 11.26 51.1049 11.305 51.0599 11.305C50.7149 11.32 50.3399 11.335 49.9799 11.365C49.9349 11.53 49.9049 11.71 49.8749 11.875C50.2499 11.875 50.6699 11.875 51.0299 11.875C50.9249 12.34 50.7449 13.06 50.6249 13.615C50.5349 14.035 50.0549 16.03 50.0549 16.495C50.0549 16.57 50.0699 16.645 50.0849 16.72C50.2649 17.32 50.8649 17.62 51.2849 17.62C51.7049 17.62 52.6049 17.47 53.3399 17.17C53.3249 17.02 53.2949 16.84 53.2649 16.705C52.6049 16.9 51.8849 17.035 51.5399 17.035C51.1049 17.035 50.8199 16.84 50.8199 16.36Z" fill="#060606"/>
<path d="M66.5532 17.5678C66.159 17.9007 65.5752 17.9007 65.181 17.5678C63.3154 15.9921 60.782 14.0785 60.782 11.6315C60.782 10.0604 62.0126 8.83502 63.5788 8.83502C64.4636 8.83502 65.3128 9.24686 65.8671 9.89259C66.4214 9.24686 67.2706 8.83502 68.1554 8.83502C69.7215 8.83502 70.9521 10.0604 70.9521 11.6315C70.9521 14.0785 68.4188 15.9921 66.5532 17.5678Z" fill="#E65276"/>
<rect x="1.03204" y="0.25" width="78.6701" height="26.5" rx="4.75" stroke="black" stroke-width="0.5"/>
</svg>
