<svg width="28" height="27" viewBox="0 0 28 27" fill="none" xmlns="http://www.w3.org/2000/svg">
<rect x="1.03204" y="0.25" width="26.5" height="26.5" rx="4.75" fill="black"/>
<rect x="1.03204" y="0.25" width="26.5" height="26.5" rx="4.75" stroke="black" stroke-width="0.5"/>
<path fill-rule="evenodd" clip-rule="evenodd" d="M14.5374 9.69841C13.3139 9.69841 12.4297 10.072 11.7594 11.0294C11.7594 11.0294 12.555 11.5815 12.7938 11.7411L12.8221 11.7091C13.165 11.312 13.4593 10.9715 14.5362 10.9715C15.7443 10.9715 16.2218 11.9385 16.2218 12.5035C15.8944 12.4373 15.2679 12.4019 14.7478 12.4019C13.3588 12.4019 11.5999 13.0733 11.5999 14.9268C11.5999 16.2247 12.8375 17.2153 14.2714 17.2153C16.7325 17.2153 17.2928 15.3748 17.502 14.2814C17.5576 14.2814 18.6286 14.8913 18.6286 16.1668C18.6286 18.0404 16.7928 19.3194 14.3305 19.3194C11.3374 19.3194 9.3397 17.369 9.3397 13.6962C9.3397 9.6003 11.127 7.67585 14.2891 7.67585C16.2006 7.67585 18.2869 8.15815 19.2823 11.1843L20.488 10.8722C19.2019 6.62261 15.7797 6.40747 14.321 6.40747C11.1625 6.40747 8.07605 8.21134 8.07605 13.4953C8.07605 18.8076 11.263 20.5926 14.3305 20.5926C17.9028 20.5926 19.8769 18.5014 19.8769 16.0935C19.8769 14.9611 19.3355 13.9729 18.352 13.3121C18.1077 13.1474 17.8405 13.0043 17.5505 12.883C17.4819 11.877 17.1829 11.0897 16.6592 10.5389C16.1344 9.98921 15.4003 9.69841 14.5374 9.69841ZM12.8753 14.9233C12.8753 14.4386 13.1082 13.6679 14.9168 13.6679C15.4712 13.6679 15.8128 13.7081 16.2715 13.8109C16.1249 15.7093 15.1958 15.9599 14.2927 15.9599C13.7986 15.9599 12.8753 15.7022 12.8753 14.9233Z" fill="white"/>
</svg>
