<svg width="27" height="27" viewBox="0 0 27 27" fill="none" xmlns="http://www.w3.org/2000/svg">
<path d="M20.0147 9.5233C19.526 9.73566 19.0089 9.87557 18.4797 9.93861C19.0358 9.61298 19.454 9.09565 19.6559 8.48365C19.1301 8.79109 18.5559 9.00681 17.9577 9.12155C17.7058 8.85758 17.4029 8.64758 17.0674 8.50432C16.7318 8.36107 16.3706 8.28754 16.0057 8.28821C14.5285 8.28821 13.3331 9.46629 13.3331 10.9185C13.332 11.1205 13.3552 11.3219 13.402 11.5184C12.3428 11.4688 11.3055 11.1986 10.3567 10.7251C9.4078 10.2516 8.56823 9.58523 7.89165 8.76867C7.65429 9.16882 7.52876 9.62537 7.52818 10.0906C7.52818 11.0027 8.00403 11.8089 8.72255 12.2812C8.29685 12.2711 7.87987 12.1584 7.50701 11.9527V11.9853C7.50701 13.2611 8.42993 14.3225 9.65144 14.5641C9.42174 14.6253 9.18503 14.6563 8.94731 14.6564C8.77863 14.6567 8.61033 14.6403 8.44486 14.6075C8.78444 15.6526 9.77278 16.4126 10.9435 16.4343C9.99221 17.1675 8.82424 17.5638 7.62319 17.5608C7.41 17.5605 7.19701 17.5478 6.98529 17.5228C8.20712 18.303 9.6274 18.7157 11.0771 18.7118C16 18.7118 18.6895 14.7025 18.6895 11.2253C18.6895 11.1113 18.6866 10.9973 18.6811 10.886C19.2031 10.5146 19.6547 10.0532 20.0147 9.5233Z" fill="#4A99E9"/>
<rect x="0.25" y="0.25" width="26.5" height="26.5" rx="4.75" stroke="black" stroke-width="0.5"/>
</svg>
