<svg width="27" height="27" viewBox="0 0 27 27" fill="none" xmlns="http://www.w3.org/2000/svg">
<rect x="0.25" y="0.25" width="26.5" height="26.5" rx="4.75" fill="black"/>
<rect x="0.25" y="0.25" width="26.5" height="26.5" rx="4.75" stroke="black" stroke-width="0.5"/>
<path d="M20.6288 9.14845C20.094 9.38083 19.5281 9.53393 18.9491 9.60291C19.5576 9.24658 20.0153 8.68049 20.2362 8.01081C19.6608 8.34722 19.0324 8.58327 18.3779 8.70883C18.1023 8.41998 17.7708 8.19019 17.4036 8.03342C17.0364 7.87666 16.6412 7.7962 16.2419 7.79694C14.6255 7.79694 13.3174 9.08607 13.3174 10.6752C13.3162 10.8962 13.3415 11.1166 13.3928 11.3316C12.2337 11.2773 11.0987 10.9816 10.0604 10.4635C9.02208 9.94537 8.10336 9.21622 7.36301 8.32269C7.10328 8.76055 6.96592 9.26014 6.96528 9.76925C6.96528 10.7673 7.48598 11.6495 8.27223 12.1663C7.8064 12.1553 7.35012 12.032 6.94211 11.8069V11.8425C6.94211 13.2386 7.95203 14.4 9.28868 14.6644C9.03733 14.7314 8.77831 14.7653 8.51818 14.7654C8.33359 14.7657 8.14943 14.7478 7.96837 14.7119C8.33996 15.8555 9.42146 16.6872 10.7026 16.7109C9.66157 17.5132 8.38351 17.9468 7.06925 17.9436C6.83596 17.9433 6.60289 17.9294 6.37122 17.902C7.70822 18.7558 9.26238 19.2074 10.8487 19.203C16.2357 19.203 19.1787 14.8159 19.1787 11.0108C19.1787 10.8861 19.1755 10.7613 19.1695 10.6396C19.7407 10.2332 20.2349 9.72829 20.6288 9.14845Z" fill="white"/>
</svg>
