<svg
    viewBox="2 2 21 21"
    xmlns="http://www.w3.org/2000/svg"
    fill="currentcolor" 
    >
    <g class="frame-children">
        <path d="M19.771,15.999C20.266,15.999,20.667,16.399,20.667,16.894C20.667,18.545,19.328,19.884,17.677,19.884L11.960,19.884C11.465,19.884,11.064,19.483,11.064,18.989C11.064,18.494,11.465,18.093,11.960,18.093L17.677,18.093C18.339,18.093,18.876,17.556,18.876,16.894C18.876,16.399,19.277,15.999,19.771,15.999ZZ" />
        <path d="M11.145,5.289C11.440,5.240,12.157,5.336,13.538,5.971C14.954,6.623,16.545,7.845,17.366,8.795C17.689,9.169,18.255,9.210,18.629,8.886C19.003,8.563,19.044,7.997,18.721,7.623C17.727,6.475,15.927,5.099,14.286,4.344C12.875,3.695,11.724,3.379,10.855,3.521C10.375,3.600,9.939,3.827,9.646,4.243C9.370,4.636,9.299,5.090,9.310,5.487C9.331,6.258,9.668,7.138,10.080,7.936C10.506,8.761,11.071,9.609,11.661,10.347C12.233,11.062,12.671,11.768,12.932,12.361C13.062,12.657,13.139,12.905,13.173,13.096C13.187,13.171,13.192,13.232,13.194,13.279C13.146,13.279,13.079,13.275,12.989,13.262C12.486,13.184,11.622,12.853,10.298,12.058C8.860,11.195,7.789,10.720,7.005,10.639C6.593,10.596,6.115,10.648,5.729,10.973C5.341,11.299,5.232,11.746,5.212,12.078C5.174,12.695,5.412,13.413,5.597,13.920C5.675,14.132,5.757,14.343,5.830,14.528C5.852,14.584,5.873,14.637,5.892,14.687C5.984,14.923,6.042,15.082,6.070,15.183C6.082,15.227,6.091,15.267,6.097,15.302C6.017,15.282,5.912,15.248,5.776,15.190C5.408,15.034,4.901,14.738,4.238,14.234C3.844,13.935,3.282,14.012,2.983,14.405C2.684,14.799,2.760,15.361,3.154,15.660C3.886,16.217,4.524,16.605,5.077,16.839C5.612,17.066,6.167,17.192,6.681,17.077C7.271,16.946,7.659,16.534,7.816,16.031C7.956,15.584,7.906,15.110,7.798,14.712C7.741,14.505,7.648,14.260,7.561,14.037C7.538,13.978,7.515,13.920,7.492,13.861C7.421,13.679,7.349,13.495,7.279,13.305C7.150,12.952,7.066,12.667,7.026,12.459C7.439,12.562,8.174,12.872,9.376,13.594C10.753,14.420,11.860,14.900,12.716,15.032C13.149,15.098,13.602,15.090,14.009,14.912C14.452,14.718,14.748,14.365,14.887,13.943C15.015,13.554,15.001,13.145,14.937,12.783C14.871,12.411,14.740,12.024,14.571,11.639C14.233,10.871,13.703,10.032,13.060,9.228C12.534,8.570,12.036,7.820,11.672,7.114C11.293,6.382,11.110,5.796,11.101,5.438C11.099,5.368,11.104,5.323,11.145,5.289ZC11.118,5.294,11.131,5.291,11.145,5.289ZZM11.077,5.307C11.077,5.307,11.078,5.306,11.077,5.307ZC11.077,5.306,11.076,5.307,11.077,5.307ZZM6.738,12.418C6.738,12.418,6.739,12.418,6.738,12.418ZZM7.001,12.167C7.002,12.166,7.002,12.166,7.001,12.167ZZ" />
    </g>
</svg>