<svg
    viewBox="2 2 21 21"
    xmlns="http://www.w3.org/2000/svg"
    fill="currentcolor" 
>
    <g class="frame-children">
        <path d="M14.808,16.098C15.147,16.458,15.129,17.024,14.769,17.363C13.110,18.925,10.521,18.925,8.862,17.363C8.502,17.024,8.485,16.458,8.824,16.098C9.163,15.737,9.730,15.720,10.090,16.059C11.059,16.972,12.572,16.972,13.542,16.059C13.902,15.720,14.469,15.737,14.808,16.098ZZ"/>
        <path d="M12.576,6.218C12.819,6.242,13.279,6.354,14.047,6.707C15.069,7.177,16.224,8.066,16.811,8.745C17.135,9.119,17.700,9.160,18.074,8.837C18.448,8.513,18.489,7.948,18.166,7.573C17.406,6.695,16.043,5.654,14.795,5.080C13.744,4.596,12.833,4.333,12.114,4.451C11.709,4.517,11.324,4.713,11.065,5.081C10.821,5.428,10.765,5.820,10.773,6.144C10.791,6.770,11.060,7.461,11.371,8.062C11.695,8.690,12.123,9.333,12.570,9.891C12.985,10.410,13.299,10.917,13.482,11.335C13.534,11.453,13.573,11.557,13.600,11.647C13.248,11.555,12.684,11.316,11.856,10.820C10.788,10.178,9.954,9.800,9.316,9.734C8.977,9.699,8.549,9.738,8.196,10.035C7.842,10.334,7.748,10.737,7.731,11.018C7.699,11.531,7.895,12.108,8.030,12.479C8.089,12.639,8.152,12.799,8.206,12.937C8.217,12.966,8.228,12.993,8.238,13.019C8.012,12.898,7.727,12.716,7.377,12.450C6.983,12.150,6.421,12.227,6.122,12.621C5.823,13.014,5.899,13.576,6.293,13.876C6.846,14.295,7.336,14.596,7.770,14.780C8.187,14.956,8.652,15.070,9.102,14.970C9.627,14.853,9.975,14.482,10.115,14.036C10.237,13.647,10.190,13.246,10.103,12.927C10.058,12.760,9.984,12.567,9.920,12.403C9.903,12.358,9.885,12.314,9.868,12.270C9.815,12.135,9.763,12.002,9.713,11.864C9.689,11.799,9.667,11.737,9.647,11.677C9.667,11.685,9.689,11.694,9.711,11.704C10.020,11.838,10.421,12.047,10.934,12.355C11.964,12.973,12.817,13.349,13.498,13.453C13.843,13.506,14.228,13.504,14.586,13.348C14.978,13.176,15.241,12.861,15.364,12.489C15.476,12.151,15.461,11.805,15.409,11.515C15.356,11.216,15.252,10.910,15.122,10.614C14.861,10.020,14.455,9.380,13.968,8.772C13.586,8.293,13.225,7.750,12.962,7.240C12.732,6.795,12.613,6.446,12.576,6.218ZZM9.107,11.514C9.107,11.514,9.108,11.514,9.107,11.514ZC9.108,11.514,9.107,11.514,9.107,11.514ZZ"/>
    </g>
</svg>