<svg
    viewBox="2 2 21 21"
    xmlns="http://www.w3.org/2000/svg"
    fill="currentcolor" 
>
    <g >
        <path d="M19.771,17.456C20.266,17.456,20.667,17.857,20.667,18.351C20.667,20.003,19.328,21.341,17.677,21.341L11.960,21.341C11.465,21.341,11.064,20.940,11.064,20.446C11.064,19.951,11.465,19.550,11.960,19.550L17.677,19.550C18.339,19.550,18.876,19.013,18.876,18.351C18.876,17.857,19.277,17.456,19.771,17.456ZZ"/>
        <path d="M11.145,5.746C11.440,5.698,12.157,5.793,13.538,6.428C14.954,7.080,16.545,8.303,17.366,9.252C17.689,9.626,18.255,9.667,18.629,9.344C19.003,9.020,19.044,8.454,18.721,8.080C17.727,6.932,15.927,5.556,14.286,4.801C12.875,4.152,11.724,3.836,10.855,3.979C10.375,4.057,9.939,4.285,9.646,4.700C9.370,5.093,9.299,5.548,9.310,5.944C9.331,6.716,9.668,7.595,10.080,8.393C10.506,9.218,11.071,10.066,11.661,10.804C12.233,11.519,12.671,12.225,12.932,12.818C13.062,13.115,13.139,13.362,13.173,13.553C13.187,13.628,13.192,13.689,13.194,13.736C13.146,13.737,13.079,13.733,12.989,13.719C12.486,13.641,11.622,13.310,10.298,12.515C8.860,11.652,7.789,11.177,7.005,11.096C6.593,11.054,6.115,11.105,5.729,11.430C5.341,11.757,5.232,12.203,5.212,12.535C5.174,13.152,5.412,13.871,5.597,14.377C5.675,14.589,5.757,14.800,5.830,14.985C5.852,15.041,5.873,15.094,5.892,15.144C5.984,15.381,6.042,15.539,6.070,15.640C6.082,15.685,6.091,15.724,6.097,15.759C6.017,15.739,5.912,15.705,5.776,15.648C5.408,15.491,4.901,15.196,4.238,14.691C3.844,14.392,3.282,14.469,2.983,14.862C2.684,15.256,2.760,15.818,3.154,16.117C3.886,16.674,4.524,17.062,5.077,17.296C5.612,17.524,6.167,17.649,6.681,17.535C7.271,17.404,7.659,16.991,7.816,16.488C7.956,16.041,7.906,15.567,7.798,15.169C7.741,14.962,7.648,14.717,7.561,14.494C7.538,14.436,7.515,14.377,7.492,14.318C7.421,14.136,7.349,13.952,7.279,13.762C7.150,13.409,7.066,13.124,7.026,12.916C7.439,13.019,8.174,13.330,9.376,14.051C10.753,14.878,11.860,15.357,12.716,15.489C13.149,15.556,13.602,15.547,14.009,15.369C14.452,15.176,14.748,14.823,14.887,14.400C15.015,14.012,15.001,13.603,14.937,13.240C14.871,12.868,14.740,12.481,14.571,12.097C14.233,11.328,13.703,10.489,13.060,9.685C12.534,9.027,12.036,8.278,11.672,7.571C11.293,6.839,11.110,6.254,11.101,5.895C11.099,5.826,11.104,5.780,11.145,5.746ZC11.118,5.751,11.131,5.748,11.145,5.746ZZM11.077,5.764C11.077,5.764,11.078,5.763,11.077,5.764ZC11.077,5.763,11.076,5.764,11.077,5.764ZZM6.738,12.875C6.738,12.875,6.739,12.875,6.738,12.875ZZM7.001,12.625C7.002,12.624,7.002,12.623,7.001,12.625ZZ"/>
    </g>
</svg>