<svg
    viewBox="2 2 21 21"
    xmlns="http://www.w3.org/2000/svg"
    fill="currentcolor" 
>
    <g>
        <path d="M19.771,17.456C20.266,17.456,20.667,17.857,20.667,18.351C20.667,20.003,19.328,21.341,17.677,21.341L11.960,21.341C11.465,21.341,11.064,20.940,11.064,20.446C11.064,19.951,11.465,19.550,11.960,19.550L17.677,19.550C18.339,19.550,18.876,19.013,18.876,18.351C18.876,17.857,19.277,17.456,19.771,17.456ZZ"/>
        <path d="M11.145,6.293C11.440,6.244,12.157,6.340,13.538,6.975C14.954,7.626,16.545,8.849,17.366,9.799C17.689,10.173,18.255,10.214,18.629,9.890C19.003,9.567,19.044,9.001,18.721,8.627C17.727,7.479,15.927,6.103,14.286,5.348C12.875,4.699,11.724,4.382,10.855,4.525C10.375,4.604,9.939,4.831,9.646,5.246C9.370,5.640,9.299,6.094,9.310,6.491C9.331,7.262,9.668,8.142,10.080,8.940C10.506,9.765,11.071,10.613,11.661,11.351C12.233,12.066,12.671,12.772,12.932,13.365C13.062,13.661,13.139,13.908,13.173,14.100C13.187,14.175,13.192,14.236,13.194,14.283C13.146,14.283,13.079,14.279,12.989,14.265C12.486,14.188,11.622,13.857,10.298,13.062C8.860,12.199,7.789,11.724,7.005,11.643C6.593,11.600,6.115,11.652,5.729,11.977C5.341,12.303,5.232,12.749,5.212,13.082C5.174,13.699,5.412,14.417,5.597,14.924C5.675,15.136,5.757,15.346,5.830,15.532C5.852,15.587,5.873,15.640,5.892,15.691C5.984,15.927,6.042,16.086,6.070,16.187C6.082,16.231,6.091,16.271,6.097,16.306C6.017,16.286,5.912,16.252,5.776,16.194C5.408,16.038,4.901,15.742,4.238,15.238C3.844,14.939,3.282,15.015,2.983,15.409C2.684,15.803,2.760,16.365,3.154,16.664C3.886,17.220,4.524,17.609,5.077,17.843C5.612,18.070,6.167,18.196,6.681,18.081C7.271,17.950,7.659,17.538,7.816,17.035C7.956,16.588,7.906,16.113,7.798,15.715C7.741,15.509,7.648,15.263,7.561,15.041C7.538,14.982,7.515,14.924,7.492,14.865C7.421,14.683,7.349,14.499,7.279,14.309C7.150,13.956,7.066,13.671,7.026,13.463C7.439,13.566,8.174,13.876,9.376,14.597C10.753,15.424,11.860,15.904,12.716,16.036C13.149,16.102,13.602,16.094,14.009,15.916C14.452,15.722,14.748,15.369,14.887,14.947C15.015,14.558,15.001,14.149,14.937,13.786C14.871,13.415,14.740,13.028,14.571,12.643C14.233,11.875,13.703,11.036,13.060,10.232C12.534,9.574,12.036,8.824,11.672,8.118C11.293,7.385,11.110,6.800,11.101,6.442C11.099,6.372,11.104,6.327,11.145,6.293ZC11.118,6.298,11.131,6.295,11.145,6.293ZZM11.077,6.310C11.077,6.310,11.078,6.310,11.077,6.310ZC11.077,6.310,11.076,6.310,11.077,6.310ZZM6.738,13.422C6.738,13.422,6.739,13.422,6.738,13.422ZZM7.001,13.171C7.002,13.170,7.002,13.170,7.001,13.171ZZ"/>
    </g>
</svg>