<svg
    viewBox="2 2 21 21"
    xmlns="http://www.w3.org/2000/svg"
    fill="currentcolor" 
>
    <g class="frame-children">
        <path d="M16.298,3.315C16.298,2.821,16.699,2.420,17.194,2.420C20.312,2.420,22.839,4.947,22.839,8.065C22.839,8.559,22.438,8.960,21.943,8.960C21.449,8.960,21.048,8.559,21.048,8.065C21.048,5.936,19.322,4.211,17.194,4.211C16.699,4.211,16.298,3.810,16.298,3.315ZZ" />
        <path d="M8.590,19.763C8.590,20.257,8.189,20.658,7.694,20.658C4.576,20.658,2.049,18.131,2.049,15.013C2.049,14.518,2.450,14.117,2.944,14.117C3.439,14.117,3.840,14.518,3.840,15.013C3.840,17.142,5.565,18.867,7.694,18.867C8.189,18.867,8.590,19.268,8.590,19.763ZZ" />
        <path d="M21.943,14.117C22.438,14.117,22.839,14.518,22.839,15.013C22.839,18.131,20.312,20.658,17.194,20.658C16.699,20.658,16.298,20.257,16.298,19.763C16.298,19.268,16.699,18.867,17.194,18.867C19.322,18.867,21.048,17.142,21.048,15.013C21.048,14.518,21.449,14.117,21.943,14.117ZZ" />
        <path d="M2.954,8.960C2.459,8.960,2.058,8.559,2.058,8.065C2.058,4.947,4.586,2.420,7.703,2.420C8.198,2.420,8.599,2.821,8.599,3.315C8.599,3.810,8.198,4.211,7.703,4.211C5.575,4.211,3.849,5.936,3.849,8.065C3.849,8.559,3.448,8.960,2.954,8.960ZZ" />
        <path d="M13.216,8.168C13.459,8.192,13.919,8.304,14.686,8.657C15.709,9.127,16.863,10.016,17.451,10.695C17.774,11.069,18.340,11.110,18.714,10.787C19.088,10.463,19.129,9.898,18.806,9.523C18.046,8.645,16.683,7.604,15.435,7.030C14.383,6.546,13.472,6.283,12.753,6.401C12.349,6.468,11.964,6.663,11.705,7.031C11.461,7.378,11.404,7.770,11.413,8.095C11.430,8.720,11.700,9.411,12.011,10.013C12.335,10.640,12.763,11.283,13.209,11.841C13.625,12.360,13.938,12.868,14.122,13.285C14.174,13.403,14.212,13.507,14.240,13.597C13.887,13.505,13.323,13.266,12.496,12.770C11.428,12.128,10.593,11.750,9.956,11.684C9.617,11.649,9.189,11.688,8.836,11.985C8.481,12.284,8.388,12.688,8.370,12.968C8.339,13.481,8.534,14.058,8.670,14.429C8.728,14.589,8.791,14.749,8.846,14.888C8.857,14.916,8.867,14.943,8.877,14.969C8.652,14.848,8.367,14.666,8.017,14.400C7.623,14.100,7.061,14.177,6.762,14.571C6.462,14.965,6.539,15.526,6.933,15.826C7.485,16.245,7.976,16.546,8.410,16.730C8.826,16.906,9.292,17.020,9.742,16.920C10.267,16.803,10.615,16.432,10.754,15.986C10.876,15.597,10.830,15.196,10.743,14.877C10.697,14.710,10.623,14.517,10.560,14.353C10.542,14.309,10.525,14.264,10.508,14.220C10.455,14.085,10.403,13.953,10.352,13.814C10.328,13.749,10.306,13.687,10.286,13.627C10.307,13.635,10.328,13.644,10.350,13.654C10.660,13.788,11.061,13.997,11.574,14.305C12.603,14.923,13.457,15.299,14.138,15.403C14.483,15.456,14.868,15.454,15.225,15.298C15.618,15.126,15.881,14.811,16.004,14.440C16.115,14.101,16.100,13.755,16.049,13.465C15.995,13.166,15.892,12.860,15.761,12.564C15.500,11.970,15.095,11.331,14.608,10.722C14.225,10.243,13.865,9.700,13.602,9.191C13.372,8.745,13.253,8.396,13.216,8.168ZZM9.747,13.464C9.747,13.464,9.747,13.464,9.747,13.464ZC9.747,13.464,9.747,13.464,9.747,13.464ZZ" />
    </g>
</svg>