<svg
    viewBox="2 2 21 21"
    xmlns="http://www.w3.org/2000/svg"
    fill="currentcolor" 
    >
    <g class="frame-children">
        <path d="M3.337,7.285C3.292,4.586,4.792,2.536,6.791,2.536C7.644,2.536,8.562,2.835,9.244,3.671C9.904,4.480,10.246,5.674,10.246,7.270C10.246,8.787,9.619,10.449,8.510,12.222C8.137,12.819,7.704,13.438,7.211,14.077C7.551,13.992,7.924,14.111,8.147,14.408C8.613,15.030,9.004,15.484,9.343,15.800C9.685,16.120,9.926,16.252,10.087,16.299C10.265,16.352,10.567,16.372,11.245,15.624C11.908,14.893,12.190,14.351,12.413,13.805C12.472,13.661,12.532,13.500,12.597,13.326C12.772,12.856,12.984,12.286,13.316,11.665C13.500,11.320,13.886,11.135,14.269,11.206C14.653,11.277,14.946,11.588,14.995,11.976C15.208,13.685,15.534,14.917,15.948,15.527C16.138,15.806,16.262,15.834,16.302,15.838C16.361,15.846,16.577,15.840,17.005,15.513C17.660,15.014,18.317,14.799,18.988,14.918C19.564,15.020,20.015,15.359,20.287,15.563C20.296,15.570,20.305,15.577,20.314,15.584C20.653,15.838,20.786,15.925,20.908,15.953C20.909,15.953,20.910,15.954,20.911,15.954C20.946,15.962,21.081,15.995,21.416,15.751C21.816,15.460,22.376,15.548,22.667,15.948C22.958,16.348,22.870,16.908,22.470,17.199C21.817,17.674,21.161,17.850,20.505,17.698C19.980,17.577,19.553,17.254,19.294,17.058C19.275,17.043,19.257,17.029,19.239,17.016C18.918,16.775,18.786,16.701,18.675,16.681C18.637,16.674,18.474,16.645,18.092,16.937C17.480,17.404,16.799,17.703,16.085,17.616C15.351,17.527,14.825,17.061,14.466,16.533C14.197,16.136,13.978,15.641,13.800,15.082C13.532,15.612,13.165,16.173,12.572,16.826C11.768,17.713,10.791,18.374,9.581,18.017C9.046,17.860,8.566,17.525,8.121,17.110C7.671,16.690,7.208,16.141,6.715,15.483C6.589,15.315,6.531,15.118,6.536,14.924C5.692,15.945,4.708,17.016,3.587,18.138C3.237,18.487,2.670,18.487,2.320,18.138C1.970,17.788,1.970,17.221,2.320,16.871C4.425,14.766,5.974,12.900,6.991,11.273C8.015,9.635,8.454,8.311,8.454,7.270C8.454,5.896,8.156,5.170,7.856,4.803C7.579,4.463,7.218,4.327,6.791,4.327C6.232,4.327,5.091,5.054,5.128,7.255C5.136,7.749,4.742,8.157,4.248,8.165C3.753,8.173,3.345,7.779,3.337,7.285ZZ"/>
        <path d="M4.218,6.374C4.712,6.366,5.120,6.760,5.128,7.255C5.147,8.373,5.612,9.795,6.256,11.172C6.890,12.532,7.648,13.742,8.147,14.408C8.444,14.804,8.364,15.366,7.968,15.662C7.572,15.959,7.011,15.879,6.714,15.483C6.137,14.713,5.317,13.395,4.633,11.930C3.957,10.484,3.362,8.786,3.337,7.285C3.329,6.790,3.723,6.383,4.218,6.374ZZ"/>
        <path d="M3.837,20.400C3.837,19.906,4.238,19.505,4.732,19.505L21.299,19.505C21.794,19.505,22.194,19.906,22.194,20.400C22.194,20.895,21.794,21.296,21.299,21.296L4.732,21.296C4.238,21.296,3.837,20.895,3.837,20.400ZZ"/>
        <ellipse cx="14.496" cy="8.705" rx="1.107" ry="1.107" transform="matrix(0.897379, -0.441262, 0.441262, 0.897379, -2.353381, 7.289870)" />
    </g>
</svg>