<svg
    viewBox="2 2 21 21"
    xmlns="http://www.w3.org/2000/svg"
    fill="currentcolor" 
>
    <g class="frame-children">
        <path d="M15.954,3.315C15.954,2.821,16.355,2.420,16.850,2.420C19.968,2.420,22.495,4.947,22.495,8.065C22.495,8.559,22.094,8.960,21.599,8.960C21.105,8.960,20.704,8.559,20.704,8.065C20.704,5.936,18.978,4.211,16.850,4.211C16.355,4.211,15.954,3.810,15.954,3.315ZZ"/>
        <path d="M8.246,19.763C8.246,20.257,7.845,20.658,7.350,20.658C4.232,20.658,1.705,18.131,1.705,15.013C1.705,14.518,2.106,14.117,2.600,14.117C3.095,14.117,3.496,14.518,3.496,15.013C3.496,17.142,5.221,18.867,7.350,18.867C7.845,18.867,8.246,19.268,8.246,19.763ZZ"/>
        <path d="M21.599,14.117C22.094,14.117,22.495,14.518,22.495,15.013C22.495,18.131,19.968,20.658,16.850,20.658C16.355,20.658,15.954,20.257,15.954,19.763C15.954,19.268,16.355,18.867,16.850,18.867C18.978,18.867,20.704,17.142,20.704,15.013C20.704,14.518,21.105,14.117,21.599,14.117ZZ"/>
        <path d="M2.610,8.960C2.115,8.960,1.714,8.559,1.714,8.065C1.714,4.947,4.242,2.420,7.359,2.420C7.854,2.420,8.255,2.821,8.255,3.315C8.255,3.810,7.854,4.211,7.359,4.211C5.231,4.211,3.505,5.936,3.505,8.065C3.505,8.559,3.104,8.960,2.610,8.960ZZ"/>
        <ellipse cx="13.625" cy="9.567" rx=".965" ry=".965" transform="matrix(0.897379, -0.441262, 0.441262, 0.897379, -2.823144, 6.993809)"/>
        <path d="M7.522,12.684C7.941,12.421,8.494,12.549,8.756,12.969C8.952,13.282,9.202,13.674,9.312,13.821C9.609,14.216,9.528,14.778,9.133,15.074C8.737,15.371,8.176,15.291,7.879,14.895C7.713,14.674,7.417,14.206,7.237,13.917C6.975,13.498,7.103,12.946,7.522,12.684ZZ"/>
        <path d="M13.686,11.568C14.122,11.801,14.287,12.344,14.054,12.780C13.872,13.121,13.779,13.373,13.671,13.663C13.618,13.806,13.561,13.958,13.489,14.135C13.275,14.660,12.988,15.195,12.391,15.854C11.810,16.495,11.024,17.059,10.023,16.764C9.593,16.638,9.221,16.373,8.894,16.068C8.563,15.759,8.228,15.361,7.879,14.895C7.582,14.500,7.663,13.938,8.058,13.641C8.454,13.345,9.015,13.425,9.312,13.821C9.634,14.250,9.896,14.553,10.116,14.759C10.340,14.968,10.473,15.030,10.529,15.046C10.530,15.047,10.531,15.047,10.532,15.047C10.553,15.053,10.564,15.057,10.614,15.034C10.696,14.996,10.842,14.896,11.064,14.651C11.503,14.166,11.685,13.815,11.831,13.458C11.867,13.369,11.906,13.264,11.950,13.148C12.073,12.817,12.232,12.389,12.474,11.936C12.707,11.500,13.250,11.335,13.686,11.568ZZ"/>
        <path d="M13.153,11.470C13.644,11.408,14.091,11.757,14.153,12.247C14.302,13.444,14.526,14.246,14.775,14.613C14.807,14.660,14.832,14.689,14.849,14.706C14.893,14.691,14.984,14.651,15.129,14.541C15.673,14.126,16.258,13.983,16.840,14.149C17.285,14.275,17.641,14.570,17.831,14.728C17.845,14.740,17.858,14.750,17.870,14.760C17.938,14.816,17.990,14.857,18.029,14.886C18.040,14.874,18.052,14.860,18.066,14.845C18.387,14.469,18.953,14.426,19.328,14.748C19.704,15.069,19.747,15.635,19.425,16.010C19.021,16.483,18.484,16.829,17.819,16.722C17.335,16.645,16.950,16.325,16.768,16.173C16.755,16.162,16.743,16.152,16.733,16.144C16.495,15.949,16.412,15.893,16.363,15.875C16.343,15.883,16.294,15.904,16.215,15.965C15.760,16.312,15.214,16.566,14.616,16.493C13.998,16.418,13.569,16.026,13.294,15.619C12.777,14.859,12.524,13.659,12.375,12.469C12.314,11.978,12.662,11.531,13.153,11.470ZZM17.933,14.975C17.933,14.975,17.935,14.973,17.933,14.975ZC17.935,14.974,17.933,14.975,17.933,14.975ZZM14.876,14.729C14.876,14.729,14.874,14.728,14.876,14.729ZC14.874,14.727,14.876,14.728,14.876,14.729ZZ"/>
        <path d="M5.463,9.004C5.430,7.041,6.534,5.409,8.148,5.409C8.809,5.409,9.534,5.643,10.072,6.302C10.588,6.934,10.833,7.840,10.833,8.989C10.833,10.122,10.366,11.335,9.578,12.596C8.784,13.867,7.615,15.263,6.097,16.781C5.747,17.130,5.180,17.130,4.830,16.781C4.481,16.431,4.481,15.864,4.830,15.514C5.624,14.721,6.300,13.980,6.865,13.290C6.203,12.083,5.487,10.426,5.463,9.004ZZM8.047,11.667C8.051,11.660,8.055,11.653,8.047,11.667ZC8.763,10.521,9.042,9.646,9.042,8.989C9.042,8.062,8.840,7.625,8.684,7.434C8.551,7.271,8.382,7.200,8.148,7.200C7.973,7.200,7.229,7.510,7.254,8.974C7.267,9.738,7.601,10.726,8.047,11.667ZZ"/>
    </g>
</svg>