<svg
    viewBox="2 2 21 21"
    xmlns="http://www.w3.org/2000/svg"
    fill="currentcolor" 
>
    <g class="frame-children">
        <path d="M7.522,11.373C7.941,11.111,8.494,11.239,8.756,11.658C8.952,11.972,9.202,12.364,9.312,12.511C9.609,12.906,9.528,13.468,9.133,13.764C8.737,14.061,8.176,13.981,7.879,13.585C7.713,13.363,7.417,12.896,7.237,12.607C6.975,12.188,7.103,11.635,7.522,11.373ZZ"/>
        <path d="M13.686,10.258C14.122,10.491,14.287,11.034,14.054,11.470C13.872,11.811,13.779,12.062,13.671,12.353C13.618,12.496,13.561,12.648,13.489,12.825C13.275,13.349,12.988,13.885,12.391,14.544C11.810,15.185,11.024,15.749,10.023,15.454C9.593,15.328,9.221,15.063,8.894,14.758C8.563,14.449,8.228,14.051,7.879,13.585C7.582,13.189,7.663,12.628,8.058,12.331C8.454,12.035,9.015,12.115,9.312,12.511C9.634,12.939,9.896,13.243,10.116,13.449C10.340,13.658,10.473,13.720,10.529,13.736C10.530,13.737,10.531,13.737,10.532,13.737C10.553,13.743,10.564,13.747,10.614,13.724C10.696,13.686,10.842,13.586,11.064,13.341C11.503,12.856,11.685,12.505,11.831,12.148C11.867,12.059,11.906,11.954,11.950,11.838C12.073,11.507,12.232,11.079,12.474,10.626C12.707,10.190,13.250,10.025,13.686,10.258ZZ"/>
        <path d="M13.153,10.160C13.644,10.098,14.091,10.446,14.153,10.937C14.302,12.134,14.526,12.936,14.775,13.303C14.807,13.350,14.832,13.379,14.849,13.396C14.893,13.381,14.984,13.341,15.129,13.231C15.673,12.815,16.258,12.673,16.840,12.838C17.285,12.965,17.641,13.260,17.831,13.418C17.845,13.429,17.858,13.440,17.870,13.450C17.938,13.506,17.990,13.547,18.029,13.576C18.040,13.564,18.052,13.550,18.066,13.535C18.387,13.159,18.953,13.116,19.328,13.437C19.704,13.759,19.747,14.325,19.425,14.700C19.021,15.173,18.484,15.519,17.819,15.412C17.335,15.335,16.950,15.015,16.768,14.863C16.755,14.852,16.743,14.842,16.733,14.834C16.495,14.638,16.412,14.583,16.363,14.565C16.343,14.572,16.294,14.594,16.215,14.655C15.760,15.002,15.214,15.256,14.616,15.183C13.998,15.108,13.569,14.716,13.294,14.309C12.777,13.549,12.524,12.349,12.375,11.159C12.314,10.668,12.662,10.221,13.153,10.160ZZM17.933,13.665C17.933,13.665,17.935,13.663,17.933,13.665ZC17.935,13.664,17.933,13.665,17.933,13.665ZZM14.876,13.419C14.876,13.419,14.874,13.418,14.876,13.419ZC14.874,13.417,14.876,13.418,14.876,13.419ZZ"/>
        <path d="M5.463,7.694C5.430,5.731,6.534,4.099,8.148,4.099C8.809,4.099,9.534,4.332,10.072,4.992C10.588,5.624,10.833,6.530,10.833,7.679C10.833,8.812,10.366,10.025,9.578,11.286C8.784,12.557,7.615,13.953,6.097,15.471C5.747,15.820,5.180,15.820,4.830,15.471C4.481,15.121,4.481,14.554,4.830,14.204C5.624,13.411,6.300,12.670,6.865,11.979C6.203,10.773,5.487,9.116,5.463,7.694ZZM8.047,10.357C8.051,10.350,8.055,10.343,8.047,10.357ZC8.763,9.211,9.042,8.336,9.042,7.679C9.042,6.751,8.840,6.315,8.684,6.124C8.551,5.961,8.382,5.890,8.148,5.890C7.973,5.890,7.229,6.200,7.254,7.664C7.267,8.428,7.601,9.416,8.047,10.357ZZ"/>
        <path d="M15.105,16.737C15.444,17.098,15.426,17.664,15.066,18.003C13.407,19.565,10.819,19.565,9.159,18.003C8.799,17.664,8.782,17.098,9.121,16.737C9.460,16.377,10.027,16.360,10.387,16.699C11.356,17.612,12.869,17.612,13.839,16.699C14.199,16.360,14.766,16.377,15.105,16.737ZZ"/>
        <ellipse cx="13.695" cy="8.395" rx=".965" ry=".965" transform="matrix(0.897379, -0.441262, 0.441262, 0.897379, -2.298862, 6.904515)" />
    </g>
</svg>